<?xml version="1.0" encoding="utf-8"?>
<!-- Generator: Adobe Illustrator 26.5.0, SVG Export Plug-In . SVG Version: 6.00 Build 0)  -->
<svg version="1.1" id="Layer_1" xmlns="http://www.w3.org/2000/svg" xmlns:xlink="http://www.w3.org/1999/xlink" x="0px" y="0px"
	 viewBox="0 0 1920 1080" style="enable-background:new 0 0 1920 1080;" xml:space="preserve">
<style type="text/css">
	.st0{fill:#E6E7E8;}
	.st1{fill:#FFFFFF;}
	.st2{fill:#231F20;}
	.st3{fill:#0BEEB1;}
	.st4{fill:#282C2B;}
	.st5{fill:#CBDDD8;}
	.st6{fill:#C9DBD6;}
	.st7{fill:#0CECAF;}
</style>
<g id="_505_achievement_flatline">
	<path class="st0" d="M805.39,476.54c-0.32,0-0.32,0-0.64,0l-202.41-99.46c-0.95-0.32-1.27-1.27-0.95-1.91
		c0.32-0.64,1.27-1.27,1.91-0.95c0,0,0.32,0,0.32,0.32L806.03,474c0.95,0.32,1.27,1.27,0.64,2.22l0,0
		C806.66,476.23,806.03,476.54,805.39,476.54z"/>
	<path class="st1" d="M1176.22,416.8c0,0,9.53-19.07,8.26-26.69c-1.27-7.63-4.13-30.82-4.13-30.82l63.55,6.04l-20.34,73.72"/>
	<path class="st2" d="M1223.56,440.64h-0.32c-0.95-0.32-1.27-1.27-1.27-1.91l20.02-71.81l-59.42-5.4c0.64,5.72,2.54,22.56,3.81,28.6
		c1.59,8.26-7.94,27.01-8.26,27.64c-0.32,0.95-1.27,1.27-2.22,0.64c-0.95-0.32-1.27-1.27-0.64-2.22l0,0
		c2.54-5.08,9.21-19.7,7.94-25.74c-1.27-7.63-3.81-29.87-4.13-31.14c0-0.64,0-0.95,0.32-1.27c0.32-0.32,0.95-0.64,1.27-0.64
		l63.55,6.04c0.64,0,0.95,0.32,1.27,0.64c0.32,0.32,0.32,0.95,0.32,1.27l-20.34,73.72C1224.83,440,1224.2,440.32,1223.56,440.64z"/>
	<path class="st1" d="M731.67,509.59c0,0,0.64-37.5,0-46.07c-0.64-8.58,12.07-55.61,9.22-62.92c-2.86-7.31-11.44-10.17-14.62-1.59
		c-3.18,8.58-8.58,27.96-8.58,27.96s-33.36-20.65-40.04-6.36c-6.67,14.3-13.03,40.36-5.72,47.03c4.13,4.13,9.85,6.36,15.57,6.99
		l-1.91,47.66L731.67,509.59z"/>
	<path class="st2" d="M685.6,524.21c-0.32,0-0.64,0-0.95-0.32c-0.32-0.32-0.64-0.95-0.64-1.27l1.59-46.07
		c-5.72-0.95-10.8-3.5-14.93-7.31c-8.58-7.94-0.32-36.22,5.4-48.93c1.27-2.54,3.5-4.77,6.36-5.4c10.17-3.18,28.28,6.36,34,9.53
		c1.59-5.4,5.4-19.07,7.94-26.06c0.95-3.5,3.81-6.04,7.63-6.36c4.77,0.32,8.58,3.5,10.17,7.94c1.91,4.45-0.64,18.11-4.77,38.77
		c-1.91,7.94-3.18,16.21-4.13,24.47c0.64,8.58,0,44.49,0,46.07c0,0.64-0.64,1.27-1.27,1.59l-46.07,13.03
		C686.23,523.89,685.92,524.21,685.6,524.21z M687.19,417.76c-1.27,0-2.54,0-3.81,0.64c-1.91,0.64-3.5,1.91-4.13,3.5
		c-6.36,13.98-12.39,39.08-6.36,44.8c4.13,3.81,9.22,6.04,14.62,6.36c0.95,0,1.59,0.95,1.59,1.59l-1.59,45.44L730.08,508
		c0-6.36,0.64-37.18,0-44.49c0.64-8.58,2.22-17.16,4.13-25.42c2.86-13.98,6.67-33.05,5.08-36.86c-0.95-3.18-3.81-5.4-6.99-5.72
		c-2.54,0-3.81,2.22-4.45,4.13c-2.86,8.58-8.26,27.64-8.58,27.96c0,0.64-0.64,0.95-0.95,0.95c-0.32,0.32-0.95,0.32-1.59,0
		C716.74,428.56,698.94,417.44,687.19,417.76L687.19,417.76z M731.67,509.59"/>
	<polygon class="st2" points="860.05,735.2 815.24,906.47 927.73,899.16 952.51,814.32 991.6,895.98 1092.33,895.98 1031,662.11 	
		"/>
	<path class="st1" d="M1019.88,712.96L853.06,744.1l41.31-246.26c0,0,84.84-17.16,105.5-17.16
		C1017.02,480.67,1019.88,712.96,1019.88,712.96z"/>
	<path class="st2" d="M853.06,745.37c-0.32,0-0.95-0.32-1.27-0.32c-0.32-0.32-0.64-0.95-0.64-1.27l41.31-246.26
		c0-0.64,0.64-1.27,1.27-1.27c3.5-0.64,85.16-17.16,105.81-17.16l0,0c3.81,0,12.39,0.32,18.11,117.57
		c2.86,57.51,3.5,115.66,3.5,115.98c0,0.64-0.64,1.59-1.27,1.59L853.06,745.37L853.06,745.37z M895.95,499.1l-40.99,242.77
		l163.01-30.19c-1.59-128.69-9.53-229.42-18.11-229.42C981.11,482.26,905.8,496.88,895.95,499.1z"/>
	<path class="st3" d="M922.65,480.67c-2.54,1.59,4.77,37.5,5.08,40.67c3.5,32.41,5.4,65.14,5.4,97.87
		c-0.32,36.54-7.31,72.45-20.97,106.45c-6.04,15.57-13.35,30.82-20.97,46.07c-7.63,14.93-22.24,17.48-38.13,16.52
		c-16.84-1.27-33.36-4.45-49.57-9.21c-5.72-1.27-11.12-4.13-15.25-8.58c-6.36-8.26,0.64-19.38,4.13-27.33
		c5.08-11.12,10.17-22.56,14.93-34c7.31-18.43,27.64-62.28,32.73-81.35c6.67-24.79-3.18-24.79-1.91-50.52
		c0.64-10.49,0.64-20.65,0.95-31.14c0.32-6.36-1.59-25.74,2.54-30.5C872.76,479.72,922.65,480.67,922.65,480.67z"/>
	<path class="st3" d="M1047.21,474.95c0.95,0.32-4.13,83.57-3.81,87.7c2.54,31.78,48.93,156.02,48.93,156.02
		c0,11.44-115.66,80.08-122.97,59.42c34.32-180.49,10.49-297.42,9.85-297.42C979.52,480.67,1020.51,469.87,1047.21,474.95z"/>
	<path class="st2" d="M962.68,524.52l-12.71,12.39l10.17,6.99c0,0-10.8,80.39-48.93,91.83c-38.13,11.44-52.75,7.63-52.75,7.63
		l-20.97,27.33c0,0,32.73,9.21,34.95,10.17c2.22,0.95,71.5-15.25,82.3-58.15c6.36-25.1,10.8-50.84,12.71-76.9l6.99-8.58
		L962.68,524.52z"/>
	<path class="st2" d="M915.02,604.28c-0.64,0-0.95-0.32-1.27-0.64l-32.09-43.53c-0.64-0.64-0.64-1.59,0-1.91l20.02-20.65l-25.1-6.36
		c-0.64,0-0.95-0.64-1.27-0.95c0-0.64,0-1.27,0.32-1.59l29.23-31.46c0.64-0.64,1.59-0.64,2.22,0c0.64,0.64,0.64,1.59,0,2.22
		l-27.65,29.55l25.1,6.36c0.64,0,0.95,0.64,1.27,1.27s0,1.27-0.32,1.59l-20.97,21.61l31.46,42.58c0.64,0.64,0.32,1.59-0.32,2.22
		C915.65,604.28,915.34,604.28,915.02,604.28z"/>
	<path class="st2" d="M995.73,599.52c-0.32,0-0.32,0-0.64,0c-0.95-0.32-1.27-1.27-0.95-2.22l23.51-55.29l-24.15-12.07
		c-0.32-0.32-0.64-0.64-0.95-0.95c0-0.32,0-0.95,0.32-1.27l18.11-29.55l-23.83-11.12c-0.95-0.32-1.27-1.27-0.95-2.22
		c0.32-0.95,1.27-1.27,2.22-0.64l0,0l25.42,11.76c0.32,0.32,0.64,0.64,0.95,0.95c0,0.32,0,0.95-0.32,1.27l-18.11,29.23l24.15,12.07
		c0.64,0.32,0.95,1.27,0.64,1.91L997,597.93C996.68,599.2,996.37,599.52,995.73,599.52z"/>
	<polygon class="st1" points="1195.28,174.99 1233.73,252.84 1319.84,265.23 1257.56,325.93 1272.18,411.72 1195.28,371.37 
		1118.38,411.72 1133,325.93 1070.72,265.23 1156.83,252.84 	"/>
	<path class="st2" d="M1272.18,413.31c-0.32,0-0.64,0-0.64-0.32l-76.26-40.04l-76.26,40.04c-0.64,0.32-1.27,0.32-1.59,0
		c-0.64-0.32-0.64-0.95-0.64-1.59l14.62-84.84l-61.65-60.06c-0.32-0.32-0.64-0.95-0.32-1.59c0.32-0.64,0.64-0.95,1.27-0.95
		l85.16-12.39l38.13-77.22c0.32-0.95,1.59-0.95,2.22-0.64c0.32,0,0.32,0.32,0.64,0.64l38.13,77.22l85.16,12.39
		c0.64,0,0.95,0.64,1.27,0.95c0.32,0.64,0,1.27-0.32,1.59l-61.65,60.06l14.62,84.84c0,0.64,0,1.27-0.64,1.59
		C1272.81,413.31,1272.5,413.31,1272.18,413.31z M1195.28,369.78c0.32,0,0.64,0,0.64,0l74.04,39.08l-14.3-82.62
		c0-0.64,0-0.95,0.32-1.59l59.74-58.15l-82.3-12.07c-0.64,0-0.95-0.32-1.27-0.95l-36.86-74.99l-37.18,74.99
		c-0.32,0.64-0.64,0.95-1.27,0.95l-82.94,12.07l60.06,58.47c0.32,0.32,0.64,0.95,0.32,1.59l-14.3,82.62l74.04-39.08
		C1194.96,369.78,1194.96,369.78,1195.28,369.78z"/>
	<path class="st3" d="M1047.21,474.95c0,0,60.37,20.34,75.94,15.89c15.57-4.45,47.03-78.8,47.03-78.8l63.55,7.94
		c0,0-26.37,157.29-76.9,165.87c-50.52,8.58-117.57-13.98-117.57-13.98L1047.21,474.95z"/>
	<path class="st1" d="M900.08,416.8c-2.54-11.76-6.04-23.2-6.99-35.27c-0.95-11.76,0.64-24.47,7.31-34.32
		c7.31-10.49,16.52-9.21,27.64-10.8c14.93-1.91,27.96-9.21,41.63-14.62c2.54-0.95,6.67-1.27,7.31,1.59c0,0.95,0,1.59-0.64,2.54
		c-1.91,4.45-4.13,8.58-7.31,12.07c10.8-2.54,20.97-6.36,30.5-12.07c1.91,10.8-0.95,21.61-7.94,29.87l18.11-9.21
		c2.86,15.89-7.31,31.14-22.88,34.95"/>
	<path class="st2" d="M900.08,418.39c-0.64,0-1.59-0.64-1.59-1.27c-0.64-3.18-1.27-6.04-2.22-9.21c-2.22-8.58-4.13-17.48-5.08-26.06
		c-0.95-9.85-0.32-24.15,7.63-35.59c6.36-9.21,14.62-10.17,23.2-10.8l5.72-0.64c10.49-1.91,20.65-5.4,30.19-9.85
		c3.5-1.59,7.31-3.18,11.12-4.77c2.22-0.95,5.08-0.95,7.31,0c0.95,0.64,1.91,1.59,1.91,2.86c0,1.27,0,2.22-0.64,3.5
		c-1.27,3.18-2.86,6.04-4.77,8.58c8.9-2.54,17.48-6.04,25.42-10.8c0.32-0.32,0.95-0.32,1.59,0s0.95,0.64,0.95,1.27
		c1.59,8.9,0.32,18.11-4.45,25.74l12.07-6.04c0.32-0.32,0.95-0.32,1.59,0c0.32,0.32,0.95,0.64,0.95,1.27
		c2.86,16.84-7.63,33.05-24.15,37.18c-0.95,0.32-1.91-0.32-1.91-1.27l0,0c-0.32-0.95,0.32-1.91,1.27-1.91
		c7.31-1.59,13.35-6.04,17.48-12.39c3.81-5.4,5.4-12.07,4.45-18.75l-16.21,7.94c-0.95,0.32-1.91,0-2.22-0.95
		c-0.32-0.64-0.32-1.27,0.32-1.91c6.04-7.31,8.9-16.84,7.94-26.06c-9.21,5.08-18.75,8.9-28.92,11.12c-0.95,0.32-1.91-0.32-1.91-1.27
		c0-0.64,0-0.95,0.32-1.27c2.86-3.5,5.4-7.31,6.99-11.44c0.32-0.64,0.32-0.95,0.32-1.59c0-0.32-0.32-0.32-0.32-0.64
		c-1.59-0.32-3.18-0.32-4.45,0.32c-3.81,1.27-7.31,3.18-11.12,4.77c-9.85,4.77-20.34,8.26-31.14,10.17
		c-1.91,0.32-3.81,0.32-5.72,0.64c-8.58,0.64-15.25,1.27-20.65,9.53c-7.31,10.49-7.94,23.83-6.99,33.36
		c0.95,8.58,2.54,17.48,4.77,25.74c0.64,3.18,1.59,6.04,2.22,9.21C901.67,417.44,901.04,418.08,900.08,418.39L900.08,418.39z"/>
	<path class="st1" d="M979.52,466.69l3.81,25.1c0,0-3.81,36.54-31.46,29.87c-27.64-6.36-38.45-31.14-38.45-31.14l-3.5-66.09
		c0,0,20.34-11.12,13.98-55.29c22.56,9.53,47.35,12.71,71.5,9.21c0,0,9.53,45.44,6.67,66.73
		C1000.81,456.84,991.28,466.06,979.52,466.69z"/>
	<path class="st2" d="M957.92,524.21c-2.22,0-4.45-0.32-6.36-0.64c-17.16-4.45-31.78-16.21-39.72-32.09c0-0.32,0-0.32,0-0.64
		l-3.81-65.78c0-0.64,0.32-1.27,0.95-1.59c0.32,0,19.07-11.12,13.03-53.38c0-0.64,0.32-1.27,0.64-1.59
		c0.64-0.32,1.27-0.32,1.59-0.32c22.24,9.21,46.71,12.39,70.54,9.21c0.95,0,1.59,0.32,1.91,1.27c0.32,1.91,9.85,46.07,6.67,67.36
		c-1.27,11.76-10.49,21.29-22.24,22.56l3.5,23.2v0.32c0,0.64-2.22,19.7-14.3,28.28C966.81,522.62,962.36,524.21,957.92,524.21z
		 M915.02,490.21c1.27,2.54,12.39,24.15,37.18,29.87c5.72,1.59,11.76,0.64,16.52-2.54c10.17-7.31,12.71-23.83,13.03-25.74
		l-3.81-24.79c0-0.32,0-0.95,0.32-1.27c0.32-0.32,0.64-0.64,1.27-0.64c11.12-0.32,20.02-8.9,20.65-20.02
		c2.86-18.75-4.77-56.56-6.36-64.5c-23.2,2.86-46.39,0-68-8.26c4.77,37.5-10.17,50.52-14.3,53.38L915.02,490.21z"/>
	<path class="st1" d="M965.22,405.05c0,0,13.03,23.83,9.22,27.64c-3.81,3.81-13.66,0-13.66,0"/>
	<path class="st1" d="M927.41,412.99c-2.54-4.13-5.72-7.94-9.53-10.8c-1.91-1.91-4.45-2.86-6.99-3.18c-2.22,0-4.13,0.64-6.04,1.91
		c-5.4,3.18-9.21,8.58-10.49,14.93c-0.64,2.86-0.64,5.72,0.32,8.58c1.59,4.45,4.45,7.94,8.58,10.17c3.81,2.22,8.26,4.13,12.39,5.4"
		/>
	<path class="st2" d="M915.65,441.91h-0.64c-4.45-1.27-8.9-3.18-13.03-5.72c-4.45-2.54-7.63-6.36-9.21-11.12
		c-0.95-3.18-0.95-6.36-0.32-9.53c1.27-6.67,5.4-12.71,11.44-16.21c2.22-1.27,4.45-1.91,6.99-1.91c2.86,0.32,5.72,1.59,7.94,3.5
		c3.81,3.18,7.31,6.99,9.85,11.12c0.32,0.64,0.32,1.91-0.64,2.22c-0.95,0.32-1.91,0.32-2.22-0.64c-2.22-3.81-5.4-7.31-8.9-10.17
		c-1.59-1.59-3.81-2.54-6.04-2.86c-1.91,0-3.5,0.64-5.08,1.59c-5.08,2.86-8.58,7.94-9.53,13.66c-0.64,2.54-0.32,5.4,0.32,7.94
		c1.59,3.81,4.13,7.31,7.94,9.53c3.81,2.22,7.94,4.13,12.07,5.4c0.95,0.32,1.27,1.27,0.95,2.22l0,0
		C917.24,441.27,916.61,441.91,915.65,441.91z"/>
	<path class="st2" d="M979.52,466.69c-15.89,2.54-32.09-0.32-46.07-7.63c0,0,23.51,36.22,49.89,31.14L979.52,466.69z"/>
	<path class="st2" d="M977.94,492.43c-24.79,0-45.12-30.82-46.08-32.09c-0.32-0.64-0.32-1.27,0.32-1.91
		c0.64-0.64,1.27-0.64,1.91-0.32c13.98,7.31,29.55,9.85,45.12,7.31c0.32,0,0.95,0,1.27,0.32s0.64,0.64,0.64,0.95l3.5,23.51
		c0,0.95-0.32,1.59-1.27,1.91C981.43,492.11,979.84,492.43,977.94,492.43z M938.22,463.2c7.31,9.21,24.47,28.28,42.9,25.74
		l-3.18-20.34C964.27,470.51,950.61,468.6,938.22,463.2L938.22,463.2z"/>
	<path class="st2" d="M944.57,422.52c-12.07,0-21.93-9.85-21.93-21.93s9.85-21.93,21.93-21.93c12.07,0,21.93,9.85,21.93,21.93l0,0
		C966.18,412.67,956.65,422.52,944.57,422.52z M944.57,382.17c-10.17,0-18.43,8.26-18.43,18.43s8.26,18.43,18.43,18.43
		S963,410.77,963,400.6l0,0C963,390.43,954.74,382.17,944.57,382.17z"/>
	<path class="st2" d="M988.1,422.52c-12.07,0-21.93-9.85-21.93-21.93s9.85-21.93,21.93-21.93c12.07,0,21.93,9.85,21.93,21.93l0,0
		C1010.03,412.67,1000.18,422.52,988.1,422.52z M988.1,382.17c-10.17,0-18.43,8.26-18.43,18.43s8.26,18.43,18.43,18.43
		c10.17,0,18.43-8.26,18.43-18.43l0,0C1006.53,390.43,998.27,382.17,988.1,382.17z"/>
	<path class="st3" d="M853.06,504.51c-11.44,10.8-96.28,96.6-102.64,80.71c-6.36-15.89-10.8-88.34-10.8-88.34l-58.15,8.58
		c0,0-33.36,163.33,24.79,181.44s146.8-67.68,146.8-67.68V504.51z"/>
	<path class="st2" d="M805.39,715.82c-0.32,0-0.64,0-0.95-0.32c-0.64-0.32-0.95-1.27-0.64-2.22l0,0
		c0.32-0.64,37.5-67.05,49.57-172.23c0-0.95,0.95-1.59,1.91-1.27c0.95,0,1.59,0.95,1.27,1.91
		c-12.07,106.13-49.57,172.86-49.89,173.5C806.35,715.5,806.03,715.82,805.39,715.82z"/>
	<path class="st2" d="M1144.44,587.12c-43.53,0-123.93-18.11-124.88-18.43c-0.95-0.32-1.27-0.95-1.27-1.91l0,0
		c0.32-0.95,0.95-1.27,1.91-1.27l0,0c0.95,0.32,81.03,18.11,124.24,18.11h3.18c0.95,0,1.59,0.64,1.59,1.59
		c0,0.95-0.64,1.59-1.59,1.59l0,0h-3.18V587.12z"/>
	<path class="st1" d="M705.62,420.94c0,0,10.17,10.8,5.08,29.87c-5.08,19.07-13.35,22.56-27.65,13.98"/>
	<path class="st2" d="M695.77,471.14c-4.77-0.32-9.53-1.91-13.35-4.77c-0.64-0.32-0.95-1.59-0.64-2.22
		c0.32-0.64,1.59-0.95,2.22-0.64c6.36,3.81,11.44,5.08,15.25,3.5c4.45-1.59,7.63-7.31,10.17-16.52c4.77-17.79-4.45-27.96-4.77-28.28
		c-0.64-0.64-0.64-1.59,0-2.22c0.64-0.64,1.59-0.64,2.22,0l0,0c0.32,0.64,10.8,11.76,5.72,31.46c-2.86,10.8-6.36,16.52-12.07,18.75
		C698.94,470.51,697.35,470.82,695.77,471.14z"/>
	<path class="st1" d="M1184.48,390.11c0,0-18.75-31.46-13.98-34.64c4.45-3.18,15.25,8.9,20.97,17.16c0,0,17.79,3.18,14.93,23.2"/>
	<path class="st2" d="M1206.09,397.74L1206.09,397.74c-1.27,0-1.91-0.95-1.59-1.91c2.86-18.11-13.03-21.29-13.66-21.29
		c-0.32,0-0.95-0.32-0.95-0.64c-7.63-10.8-16.21-18.43-18.75-16.84c-1.27,2.22,5.4,16.84,14.62,32.41c0.32,0.64,0.32,1.91-0.64,2.22
		c-0.64,0.64-1.91,0.32-2.22-0.64l0,0c-8.9-14.93-18.43-33.36-13.66-36.86c6.36-4.45,18.75,11.44,22.88,17.16
		c3.5,0.95,18.43,6.04,15.57,24.79C1207.67,397.1,1207.04,397.74,1206.09,397.74z"/>
	<path class="st0" d="M613.78,868.66c-0.95,0-1.59-0.64-1.59-1.59c0-0.32,0.32-0.95,0.64-1.27l157.93-131.87
		c0.64-0.64,1.59-0.32,2.22,0.32c0.64,0.64,0.32,1.59-0.32,2.22l0,0L614.74,868.34C614.42,868.66,614.1,868.66,613.78,868.66z"/>
	<path class="st0" d="M1340.82,812.73c-0.32,0-0.64,0-0.95-0.32l-242.13-183.66c-0.64-0.32-0.95-1.59-0.64-2.22
		c0.32-0.64,1.59-0.95,2.22-0.64c0,0,0.32,0,0.32,0.32l242.13,183.35c0.64,0.64,0.95,1.59,0.32,2.22
		C1341.77,812.41,1341.45,812.73,1340.82,812.73z"/>
	<path class="st0" d="M830.18,406.64c-0.32,0-0.95-0.32-1.27-0.64L710.7,273.81c-0.64-0.64-0.64-1.59,0-2.22
		c0.64-0.64,1.59-0.64,2.22,0l0,0l118.21,132.19c0.64,0.64,0.64,1.59,0,2.22l0,0C831.13,406.32,830.81,406.64,830.18,406.64z"/>
	<path class="st0" d="M1233.73,506.41c-0.95,0.32-1.59-0.32-1.91-1.27c-0.32-0.95,0.32-1.59,1.27-1.91l124.56-48.62
		c0.95-0.32,1.91,0,2.22,0.95c0.32,0.95,0,1.91-0.95,2.22l0,0l-124.88,48.62C1234.05,506.41,1234.05,506.41,1233.73,506.41z"/>
	<path class="st0" d="M1039.26,395.51c-0.32,0-0.64,0-0.64,0c-0.95-0.32-1.27-1.27-0.64-2.22l0,0l44.49-89.93
		c0.32-0.95,1.27-1.27,2.22-0.64c0.95,0.32,1.27,1.27,0.64,2.22l-44.49,89.93C1040.53,395.2,1039.9,395.51,1039.26,395.51z"/>
	<path class="st0" d="M1340.82,613.82L1340.82,613.82l-145.85-19.07c-0.95,0-1.59-0.95-1.27-1.91c0-0.95,0.95-1.59,1.91-1.27
		l145.53,19.07c0.95,0,1.59,0.95,1.27,1.91C1342.4,613.18,1341.77,613.82,1340.82,613.82z"/>
	<path class="st0" d="M1070.72,449.22c-0.64,0-0.95-0.32-1.27-0.64c-0.64-0.64-0.64-1.59,0.32-2.22l0,0l21.61-17.48
		c0.64-0.64,1.59-0.32,2.22,0.32c0.64,0.64,0.32,1.59-0.32,2.22l-21.61,17.48C1071.36,449.22,1071.04,449.22,1070.72,449.22z"/>
	<path class="st0" d="M1210.22,868.66c-0.64,0-0.95-0.32-1.27-0.64l-83.57-141.4c-0.32-0.64-0.32-1.59,0.64-2.22
		c0.64-0.32,1.91-0.32,2.22,0.64l83.57,141.4c0.32,0.64,0.32,1.59-0.64,2.22l0,0C1210.53,868.66,1210.22,868.66,1210.22,868.66z"/>
	<path class="st0" d="M751.69,876.6c-0.32,0-0.64,0-0.64-0.32c-0.64-0.32-0.95-1.27-0.64-2.22l34-63.87
		c0.32-0.64,1.27-0.95,2.22-0.64l0,0c0.64,0.32,0.95,1.27,0.64,2.22l0,0l-34,63.87C752.96,876.28,752.33,876.6,751.69,876.6z"/>
	<path class="st0" d="M561.67,675.46c-0.64,0-1.27-0.64-1.59-1.27c-0.32-0.95,0.32-1.59,1.27-1.91l103.91-23.51
		c0.95-0.32,1.91,0.32,1.91,1.27c0.32,0.95-0.32,1.91-1.27,1.91l-103.91,23.51H561.67z"/>
	<path class="st0" d="M892.78,294.79c-0.64,0-1.27-0.32-1.59-1.27l-24.47-85.79c-0.32-0.95,0.32-1.91,1.27-1.91
		c0.95-0.32,1.59,0.32,1.91,0.95l0,0l24.79,85.79c0.32,0.95-0.32,1.59-0.95,1.91l0,0C893.09,294.79,892.78,295.1,892.78,294.79z"/>
	<path class="st0" d="M1002.4,267.46h-0.32c-0.95-0.32-1.27-0.95-1.27-1.91l0,0l17.48-76.26c0.32-0.95,0.95-1.59,1.91-1.27
		c0.95,0.32,1.59,0.95,1.27,1.91l0,0l-17.48,76.26C1003.67,266.82,1003.04,267.46,1002.4,267.46z"/>
	<path class="st0" d="M656.68,516.9h-64.19c-0.95,0-1.59-0.64-1.59-1.59c0-0.95,0.64-1.59,1.59-1.59h64.19
		c0.95,0,1.59,0.64,1.59,1.59C658.27,515.95,657.63,516.9,656.68,516.9z"/>
</g>
</svg>
