<?xml version="1.0" encoding="utf-8"?>
<!-- Generator: Adobe Illustrator 26.5.0, SVG Export Plug-In . SVG Version: 6.00 Build 0)  -->
<svg version="1.1" id="Layer_1" xmlns="http://www.w3.org/2000/svg" xmlns:xlink="http://www.w3.org/1999/xlink" x="0px" y="0px"
	 viewBox="0 0 1920 1080" style="enable-background:new 0 0 1920 1080;" xml:space="preserve">
<style type="text/css">
	.st0{fill:#E6E7E8;}
	.st1{fill:#FFFFFF;}
	.st2{fill:#231F20;}
	.st3{fill:#0BEEB1;}
	.st4{fill:#282C2B;}
	.st5{fill:#CBDDD8;}
	.st6{fill:#C9DBD6;}
	.st7{fill:#0CECAF;}
</style>
<g>
	<path class="st1" d="M771.62,252.52c0,0-70.64-3.38-85,43.06v93.44c0,0,54.88-43.34,85-28.71V252.52z"/>
	<path class="st1" d="M1257.4,475.15c-16.61,18.29-58.82,53.19-145.79,54.6l-2.53,154.8c0,0,83.03,12.67,148.32-45.03L1257.4,475.15
		L1257.4,475.15z"/>
	<path d="M1129.06,687.08c-6.75,0-13.51-0.28-20.26-1.13c-0.84,0-1.13-0.84-1.13-1.41l2.53-154.8c0-0.84,0.56-1.41,1.41-1.41
		c84.43-1.13,126.93-34.34,144.94-54.04c0.28-0.56,1.13-0.56,1.69-0.28c0.56,0.28,0.84,0.84,0.84,1.41v164.36
		c0,0.28-0.28,0.84-0.56,1.13C1212.65,680.89,1157.77,687.08,1129.06,687.08z M1110.48,683.14c10.41,1.13,85.84,7.88,145.51-44.47
		V478.81c-19.42,19.98-62.2,50.66-142.97,52.35L1110.48,683.14z"/>
	<polygon class="st1" points="959.63,777.98 955.97,810.35 987.21,825.27 994.25,780.8 	"/>
	<path d="M987.21,826.96c-0.28,0-0.28,0-0.56,0l-31.24-14.92c-0.56-0.28-0.84-0.84-0.84-1.41l3.66-32.37c0-0.84,0.84-1.41,1.41-1.13
		l0,0l34.62,2.53c0.28,0,0.84,0.28,1.13,0.56s0.28,0.84,0.28,1.13l-7.04,44.47c0,0.56-0.28,0.84-0.84,1.13
		C987.49,826.67,987.21,826.96,987.21,826.96z M957.38,809.79l28.43,13.79l6.47-41.09l-31.52-2.53L957.38,809.79z"/>
	<path class="st1" d="M844.52,747.59c-9.57,3.1-19.42,5.91-28.99,9.85c-15.76,6.19-28.71,1.97-37.15-11.82
		c-13.51-21.11-32.08-36.03-52.91-49.53c-30.4-19.98-51.5-48.13-59.67-83.87c-16.89-71.77,25.05-132.56,98.79-149.73
		c108.92-25.05,175.62,74.3,145.79,168.59c-8.16,25.61-15.76,50.38-13.79,77.4c1.13,15.2-7.04,24.77-21.95,28.99
		C864.78,739.99,854.65,743.65,844.52,747.59z"/>
	<path class="st6" d="M805.11,760.53l78.24-26.17c7.04-2.25,14.64,1.41,16.89,8.44l1.41,3.94c2.25,7.04-1.41,14.64-8.44,16.89
		l-78.24,26.17c-7.04,2.25-14.64-1.41-16.89-8.44l-1.41-3.94C794.42,770.67,798.36,763.07,805.11,760.53z"/>
	<path class="st6" d="M814.97,790.09l78.24-26.17c7.04-2.25,14.64,1.41,16.89,8.44l1.41,3.94c2.25,7.04-1.41,14.64-8.44,16.89
		l-78.24,26.17c-7.04,2.25-14.64-1.41-16.89-8.44l-1.41-3.94C804.27,799.94,807.93,792.06,814.97,790.09z"/>
	<path class="st1" d="M1095,324.29c-0.84,0-39.97,110.89-39.97,110.89h106.11l22.23-115.96L1095,324.29z"/>
	<path class="st1" d="M1016.48,388.46c0,0,12.38-10.41,18.01-14.92c5.63-4.78,11.26-17.45,16.32-17.45s-3.94,15.48-3.94,15.48
		s19.14-14.64,25.05-15.2c5.91-0.56,9.29,9.57,7.88,12.67s-17.73,10.69-23.64,16.61c-5.91,5.91-25.61,19.42-25.61,19.42"/>
	<path class="st1" d="M1024.36,306.56c5.91-4.22,12.38-7.88,19.14-10.41c7.88-2.53,17.73-4.22,15.48-7.6
		c-2.25-3.38-20.83,1.41-20.83,1.41s10.69-16.61,16.89-19.7c6.19-3.1,14.64-3.1,10.41-6.19c-4.22-3.1-17.17-3.66-21.67-1.41
		c-4.5,2.25-30.4,30.68-31.8,32.37C1010.57,296.43,1024.36,306.56,1024.36,306.56z"/>
	<path class="st1" d="M855.21,293.33c-4.22-0.56-8.16-1.97-11.54-4.5c-6.47-4.78-9.85-12.67-12.67-19.98
		c-2.25-5.07-3.66-10.41-3.66-16.04c0.28-9.85,6.75-18.01,13.23-25.05c5.07-5.35,10.69-12.1,8.16-18.86
		c-0.84-1.41-1.13-2.81-1.41-4.5c-0.28-3.94,5.07-6.19,8.72-4.78c3.38,1.97,6.19,4.78,7.88,8.44c2.53-2.81,3.66-6.47,2.81-10.13
		c-0.28-1.41-0.84-3.1-0.28-4.22c0.56-0.84,1.69-1.41,2.53-1.69c10.41-2.25,20.83,3.94,23.36,14.35c1.97-3.38,2.25-7.32,1.13-10.69
		c17.73,6.19,28.71,24.2,25.61,42.78c-0.84,6.75-2.53,13.23-5.07,19.42c-1.13,1.97-2.81,3.94-4.78,5.35
		c-13.23,10.98-19.42,25.05-37.43,29.27C866.47,293.62,860.84,294.18,855.21,293.33z"/>
	<path class="st1" d="M916,241.83c6.75,6.47,3.66,19.14,2.81,27.3c-1.13,11.54-2.53,23.08-3.94,34.62
		c-1.13,7.32-19.98,5.63-23.08,3.38l-0.28,24.2c0,0-5.63,12.95-20.26,4.5s-17.45-18.58-17.45-18.58l4.22-33.21
		c0,0,12.38,1.13,21.11-13.23c8.72-14.35,10.41-37.15,10.41-37.15S909.53,235.36,916,241.83z"/>
	<path d="M1038.43,720.85c0,0-7.88,16.89-5.91,23.64c1.69,6.75,32.08,51.22,36.31,46.16c4.5-5.07-2.25-48.69-2.25-48.69
		L1038.43,720.85z"/>
	<path d="M955.97,810.35c0,0-7.6,28.43-6.47,30.96c1.13,2.53,47.85,61.64,52.35,43.34s-14.64-59.67-14.64-59.67L955.97,810.35z"/>
	<path class="st6" d="M904.18,792.9c3.66,10.98-11.54,26.17-33.49,33.49c-21.95,7.32-43.06,4.5-46.72-6.75L904.18,792.9z"/>
	<path d="M686.63,390.43c-0.28,0-0.28,0-0.56,0c-0.56-0.28-0.84-0.84-0.84-1.41v-93.44v-0.28c14.35-47,85.84-44.19,86.4-44.19
		c0.84,0,1.41,0.56,1.41,1.41v107.51c0,0.56-0.28,0.84-0.56,1.13c-0.56,0.28-0.84,0.28-1.41,0c-28.99-14.07-82.75,28.14-83.59,28.71
		C687.19,390.15,686.91,390.43,686.63,390.43z M688.03,295.87v90.34c10.7-7.88,54.6-38.84,82.18-28.14V253.93
		C760.36,253.65,700.7,254.49,688.03,295.87z"/>
	<path d="M802.3,761.1c-10.13,0-18.58-5.07-25.05-15.2c-14.35-22.52-34.34-37.43-52.35-49.25c-30.4-19.14-52.07-49.82-60.23-84.72
		c-7.88-34.05-3.38-66.42,13.51-93.44c17.73-28.71,48.69-49.25,86.4-57.98c47.85-10.98,90.63,0.84,120.46,33.21
		c32.37,34.9,42.5,87.53,27.02,137.35c-7.6,24.2-15.76,49.25-13.51,76.83c1.13,15.2-6.75,25.61-22.8,30.68
		c-7.04,1.97-14.07,4.5-20.83,6.75l-9.57,3.1l0,0l-8.72,2.81c-6.75,2.25-13.51,4.22-19.98,6.75
		C811.59,760.25,806.8,761.1,802.3,761.1z M798.36,459.39c-11.26,0-22.52,1.41-33.49,3.94c-37.15,8.44-66.98,28.71-84.43,56.57
		c-16.61,26.46-21.11,57.98-13.23,91.19c8.16,34.9,28.14,62.76,59.1,83.03c18.29,11.82,38.84,27.3,53.19,50.1
		c8.44,13.23,20.26,17.17,35.46,11.26c6.75-2.53,13.51-4.78,20.26-7.04l8.72-2.81l9.57-3.1c6.75-2.25,13.79-4.78,21.11-6.75
		c14.64-4.22,21.67-13.79,20.83-27.58c-1.97-27.86,5.91-53.47,13.79-77.96c15.48-48.69,5.35-100.19-26.17-134.53
		C861.12,472.33,830.45,459.11,798.36,459.39z M844.52,747.59"/>
	<path d="M810.74,792.06c-6.47,0-12.1-3.94-14.07-10.13l-1.41-4.22c-2.53-7.6,1.69-16.04,9.29-18.58l78.24-26.17
		c7.88-2.53,16.04,1.69,18.58,9.29l1.41,3.94c2.53,7.88-1.69,16.04-9.29,18.58l0,0l-78.24,25.89
		C814.12,791.49,812.43,792.06,810.74,792.06z M887.58,735.2c-1.41,0-2.53,0.28-3.66,0.56l-78.24,26.17
		c-6.19,2.25-9.57,8.72-7.32,14.92l1.41,3.94c0.84,3.1,3.1,5.35,5.91,6.75c2.81,1.41,6.19,1.69,9.01,0.56l78.24-26.17
		c6.19-1.97,9.57-8.72,7.6-15.2l0,0l-1.41-3.94C897.15,738.58,892.64,735.2,887.58,735.2z M893.21,763.91"/>
	<path d="M820.59,821.61c-6.47,0-12.1-4.22-14.07-10.13l-1.41-3.94c-1.41-3.66-1.13-7.88,0.84-11.54c1.69-3.66,4.78-6.19,8.44-7.32
		l78.24-26.17c7.6-2.53,16.04,1.69,18.58,9.57l1.41,4.22c2.53,7.6-1.41,16.04-9.29,18.58l0,0l0,0l-78.24,26.17
		C823.69,821.33,822.28,821.61,820.59,821.61z M897.43,764.76c-1.41,0-2.53,0.28-3.66,0.56l-78.24,25.89
		c-3.1,1.13-5.35,3.1-6.75,5.91s-1.69,6.19-0.56,9.01l1.41,3.94c1.97,6.19,8.72,9.57,14.92,7.6l0,0l78.24-26.17
		c6.19-1.97,9.57-8.72,7.6-14.92l0,0l-1.41-3.94c-1.13-3.1-3.1-5.35-5.91-6.75C901.09,765.04,899.4,764.76,897.43,764.76
		L897.43,764.76z M903.06,793.18"/>
	<path d="M847.33,832.02c-2.53,0-4.78-0.28-7.04-0.56c-9.29-1.41-15.76-5.35-17.73-11.26c-0.28-0.84,0.28-1.69,0.84-1.69
		l80.21-26.74c0.84-0.28,1.41,0.28,1.69,0.84c1.97,5.91-0.56,12.95-7.32,19.7c-7.6,7.32-16.89,12.67-27.02,15.76
		C863.37,830.05,855.49,831.46,847.33,832.02z M825.66,820.76c1.97,4.22,7.32,7.04,14.64,7.88c20.26,1.69,40.25-5.07,55.44-18.58
		c5.35-5.35,7.88-10.69,7.04-15.2L825.66,820.76z"/>
	<path d="M1161.14,436.59h-105.82c-0.56,0-0.84-0.28-1.13-0.56c-0.28-0.28-0.28-0.84-0.28-1.41
		c38.84-110.61,39.68-111.73,41.09-111.73l88.37-5.07c0.56,0,0.84,0.28,1.13,0.56c0.28,0.28,0.28,0.84,0.28,1.13l-22.23,115.96
		C1162.55,436.03,1161.99,436.59,1161.14,436.59z M1057.29,433.78h102.73l21.67-112.86l-85.84,4.78
		C1093.03,332.45,1071.93,392.4,1057.29,433.78z"/>
	<path d="M1030.27,406.48c-0.84,0-1.41-0.56-1.41-1.41c0-0.56,0.28-0.84,0.56-1.13c0.28,0,19.7-13.51,25.33-19.14
		c4.22-3.66,9.01-7.04,14.07-9.85c3.38-1.69,6.47-3.94,9.29-6.47c0.56-2.81-0.28-5.63-1.97-7.88c-0.84-1.69-2.53-2.81-4.5-2.81
		c-3.94,0.28-16.61,9.01-24.2,14.64c-0.56,0.56-1.41,0.56-1.69,0c-0.56-0.56-0.56-1.13-0.28-1.69c3.38-5.63,5.91-12.1,5.35-13.23
		c-2.53,0-5.63,4.5-8.44,8.44c-1.97,3.1-4.22,5.91-7.04,8.44c-5.63,4.78-18.01,14.92-18.01,14.92l-1.97-2.25
		c0,0,12.38-10.41,18.01-14.92c2.53-2.25,4.78-5.07,6.47-7.88c3.66-5.07,7.04-9.85,10.69-9.85l0,0c1.13,0,1.97,0.56,2.53,1.41
		c1.13,2.25-0.28,6.47-2.25,10.41c6.19-4.5,16.32-11.26,20.55-11.54c2.81,0,5.63,1.41,7.04,3.94c2.25,3.1,3.1,7.04,2.25,10.69
		c-0.84,1.69-4.5,3.94-10.41,7.88c-4.78,2.81-9.29,5.91-13.23,9.29c-5.91,5.91-25.05,19.14-25.61,19.7
		C1031.12,406.48,1030.55,406.48,1030.27,406.48z"/>
	<path d="M1024.36,307.97c-0.28,0-0.56,0-0.84-0.28c-5.63-4.22-12.67-9.85-12.95-12.38c0-0.56,0-1.13,0.56-1.41
		c0.28-0.28,27.3-30.11,32.08-32.65c5.07-2.53,18.29-2.25,23.36,1.41c0.56,0.28,1.97,1.41,1.69,2.81c-0.28,1.41-2.25,2.25-5.35,3.1
		c-2.53,0.56-4.78,1.41-7.04,2.53c-3.94,1.97-10.41,10.69-14.35,16.32c6.75-1.41,16.61-3.1,18.58,0c0.56,0.84,0.84,1.69,0.28,2.53
		c-0.84,2.53-4.78,3.66-11.54,5.63c-1.69,0.56-3.38,1.13-5.07,1.41c-6.75,2.81-12.95,6.19-18.86,10.41
		C1024.92,307.69,1024.64,307.97,1024.36,307.97z M1013.67,295.3c3.38,3.66,6.75,6.75,10.7,9.57c5.91-4.22,12.1-7.6,18.86-10.13
		c1.69-0.56,3.38-1.13,5.35-1.69c3.38-1.13,9.01-2.53,9.57-3.66c-1.13-1.41-10.13-0.28-19.14,1.97c-0.56,0.28-1.13,0-1.41-0.56
		s-0.28-1.13,0-1.69c0.56-0.56,10.98-16.89,17.45-20.26c2.25-1.13,4.78-2.25,7.6-2.81c0.84-0.28,2.25-0.56,2.81-0.84l-0.28-0.28
		c-3.94-2.81-16.32-3.1-20.26-1.13C1040.97,265.75,1017.61,290.8,1013.67,295.3z"/>
	<path class="st7" d="M891.8,330.2c0,0,67.55,9.57,77.96,7.04l39.97-44.75l23.36,15.2c0,0-12.38,36.87-29.27,58.26
		c-16.89,21.39-127.5,25.89-127.5,25.89L891.8,330.2z"/>
	<path d="M1067.99,792.06h-0.84c-8.44-1.97-34.62-42.22-36.03-47.56c-1.69-7.04,5.35-22.8,6.19-24.49c0.28-0.28,0.56-0.56,0.84-0.84
		c0.28,0,0.84,0,1.13,0.28l28.14,21.11c0.28,0.28,0.56,0.56,0.56,0.84c1.13,7.32,6.47,44.47,1.97,49.82
		C1069.39,792.06,1068.55,792.06,1067.99,792.06z M1039,722.82c-2.25,5.35-6.47,16.32-5.35,21.11c1.97,7.6,29.27,45.59,34.06,45.59
		l0,0c2.53-2.81,0-28.99-2.53-47L1039,722.82z"/>
	<polygon class="st1" points="1054.48,685.67 1038.43,720.85 1066.58,741.96 1087.69,700.59 	"/>
	<path d="M1066.58,743.37c-0.28,0-0.56,0-0.84-0.28l-28.14-21.11c-0.56-0.28-0.84-1.13-0.56-1.69l16.04-34.9
		c0.28-0.28,0.56-0.56,0.84-0.84c0.28-0.28,0.84-0.28,1.13,0l33.21,15.2c0.28,0.28,0.56,0.56,0.84,0.84c0.28,0.28,0.28,0.84,0,1.13
		l-21.11,40.81c-0.28,0.28-0.56,0.56-0.84,0.84L1066.58,743.37z M1040.12,720.29l25.61,19.42l19.7-38l-30.68-14.07L1040.12,720.29z"
		/>
	<path d="M970.89,488.09c0,0,117.36,29.83,140.44,48.69c23.08,18.86,5.35,153.67-22.52,178.72l-43.91-23.08
		c0,0,23.36-103.29,14.92-112.02c-8.72-8.44-105.54-21.11-105.54-21.11l-63.33-70.92L970.89,488.09z"/>
	<path d="M1088.81,716.63c-0.28,0-0.56,0-0.56-0.28l-43.91-23.08c-0.56-0.28-0.84-0.84-0.84-1.69
		c9.01-39.68,21.11-104.7,15.2-110.61c-6.75-6.75-77.96-17.17-104.7-20.55c-0.28,0-0.56-0.28-0.84-0.56l-63.33-70.92
		c-0.28-0.28-0.56-1.13-0.28-1.41c0.28-0.56,0.84-0.84,1.41-0.84l79.93-0.28h0.28c4.78,1.13,117.93,30.11,141,48.97
		c8.44,7.04,10.69,27.02,10.98,42.78c1.13,48.13-13.79,120.46-33.77,138.19C1089.66,716.63,1089.38,716.63,1088.81,716.63z
		 M1046.6,691.3l42.22,22.23c19.14-18.29,32.93-88.37,32.08-135.09c-0.56-21.39-3.94-35.74-10.13-40.53
		c-22.23-18.01-134.53-47-139.88-48.13l-76.83,0.28l60.79,68.11c12.1,1.69,97.1,12.95,105.82,21.39c2.53,2.53,4.78,11.54-3.66,60.51
		C1052.79,663.15,1047.72,686.23,1046.6,691.3z"/>
	<path d="M856.06,518.21c0,0,106.67,77.96,108.08,114.55c1.41,36.59-12.67,151.7-12.67,151.7l53.47,12.95
		c0,0,38.84-153.11,25.61-192.23c-12.95-39.12-88.09-120.46-88.09-120.46L856.06,518.21z"/>
	<path d="M1005.22,798.81h-0.56l-53.47-12.95c-0.84-0.28-1.13-0.84-1.13-1.41c0-1.13,14.07-115.67,12.67-151.42
		c-1.41-35.46-106.39-112.58-107.51-113.42c-0.28-0.28-0.56-0.84-0.56-1.41s0.56-0.84,0.84-1.13l86.69-33.49
		c0.56-0.28,1.13,0,1.69,0.28c3.1,3.38,75.15,82.18,88.37,121.02c12.95,38.84-23.92,186.88-25.61,193.07
		C1006.35,798.25,1005.79,798.81,1005.22,798.81z M953.16,783.61l50.94,12.1c3.66-15.2,37.43-153.67,25.33-189.98
		c-12.1-36.31-79.65-111.17-86.97-119.33l-83.31,32.37c15.48,11.54,105.26,79.65,106.67,113.99
		C966.95,666.81,954.56,770.67,953.16,783.61L953.16,783.61z"/>
	<path d="M880.26,340.05c-3.38,0-7.04-1.13-9.85-3.1c-14.92-8.44-18.01-18.86-18.01-19.42c0-0.28,0-0.28,0-0.56l4.22-33.21
		c0-0.84,0.84-1.41,1.41-1.13c0.56,0,11.82,0.84,19.98-12.38c8.44-13.79,10.13-36.31,10.13-36.59c0-0.84,0.84-1.41,1.41-1.41l0,0
		c0.84,0,20.55,1.69,27.58,8.44l0,0c6.19,5.91,4.78,16.04,3.66,23.92c-0.28,1.41-0.28,3.1-0.56,4.5
		c-1.13,11.54-2.53,23.08-3.94,34.62c-0.56,2.53-2.25,4.5-4.78,5.07c-5.91,1.97-12.38,1.97-18.29,0.28l-0.28,22.23
		c0,0.28,0,0.28,0,0.56c-1.69,3.66-4.5,6.19-8.16,7.6C883.36,340.05,881.67,340.05,880.26,340.05z M855.21,317.26
		c0.56,1.41,3.94,10.13,16.61,17.45c3.38,2.25,7.6,3.1,11.54,2.25c2.81-1.13,5.07-3.1,6.47-5.63l0.28-23.92
		c0-0.56,0.28-1.13,0.84-1.13c0.56-0.28,1.13-0.28,1.41,0c1.69,1.41,12.1,2.81,18.01,0.56c1.69-0.84,2.81-1.69,2.81-2.81
		c1.69-11.54,2.81-22.8,3.94-34.34c0-1.41,0.28-2.81,0.56-4.5c0.84-7.32,2.25-16.61-2.81-21.67c-5.07-5.07-19.7-7.04-24.49-7.6
		c-0.56,5.35-2.81,23.92-10.41,36.31s-17.45,13.79-21.11,13.79L855.21,317.26z"/>
	<path class="st1" d="M893.77,270.54c0-2.81-0.84-5.63-2.53-8.16c-0.84-1.97-2.25-3.94-3.66-5.63c-1.69-1.69-3.66-2.53-6.19-2.53
		c-1.97,0.28-3.66,1.41-4.78,3.1c-1.13,1.69-1.69,3.66-1.97,5.63c-1.13,8.72,2.53,17.45,9.57,22.8l-0.56-0.84"/>
	<path d="M884.2,287.42c-0.28,0-0.56,0-0.84-0.28c-7.32-5.63-11.26-14.92-10.13-24.2c0.28-2.25,1.13-4.22,2.25-6.19
		c1.41-1.97,3.38-3.38,5.63-3.94c2.81-0.28,5.35,0.84,7.32,2.81c1.69,1.69,3.1,3.66,3.94,5.91c1.69,2.53,2.81,5.91,2.81,9.01
		c0,0.84-0.84,1.41-1.41,1.41c-0.84,0-1.41-0.84-1.41-1.41l0,0c0-2.53-0.84-5.35-2.53-7.32c-0.84-1.97-1.97-3.66-3.38-5.35
		c-1.13-1.41-3.1-2.25-4.78-1.97c-1.69,0.28-3.1,1.13-3.94,2.53c-0.84,1.41-1.41,3.1-1.69,5.07c-1.13,8.16,2.25,16.04,8.44,21.39
		h0.28l0.56,0.84c0.56,0.56,0.28,1.41-0.28,1.97C884.76,287.42,884.48,287.42,884.2,287.42L884.2,287.42z"/>
	<path d="M891.8,306.84c0,0-9.57-3.94-13.51-10.98c0,0-0.84,17.73,13.79,23.92L891.8,306.84z"/>
	<path d="M891.8,321.2c-0.28,0-0.28,0-0.56,0c-15.48-6.75-14.64-25.33-14.64-25.33c0-0.56,0.56-1.13,1.13-1.41
		c0.56,0,1.13,0,1.69,0.56c3.66,6.47,12.67,10.41,12.95,10.41c0.56,0.28,0.84,0.84,0.84,1.41l0.28,12.95c0,0.56-0.28,0.84-0.56,1.13
		C892.36,321.2,892.08,321.2,891.8,321.2z M879.98,300.37c0.56,7.04,4.5,13.51,10.69,17.17l-0.28-9.85
		C886.45,306,882.79,303.47,879.98,300.37z"/>
	<path class="st7" d="M841.14,308.53c0,0,42.22,1.97,59.1,24.77c16.89,22.8,30.68,109.48,38.84,115.39c8.16,5.91,31.8,38,31.52,39.4
		c-0.28,1.69-121.02,39.97-121.02,39.97s-7.04-27.86-20.26-63.89C816.37,428.15,805.96,311.06,841.14,308.53z"/>
	<path d="M950.62,461.64c-0.56,0-0.84-0.28-1.13-0.56c-13.79-18.29-23.08-39.4-27.58-61.92c-6.19-35.18-18.01-56.29-18.01-56.57
		c-0.28-0.56-0.28-1.69,0.56-1.97c0.56-0.28,1.69,0,1.97,0.56l0,0c0,0.28,12.1,21.95,18.29,57.42
		c4.22,21.95,13.51,42.78,27.02,60.51c0.56,0.56,0.28,1.41-0.28,1.97C951.47,461.36,951.19,461.36,950.62,461.64z"/>
	<path class="st7" d="M875.76,343.99c0.84,1.13,48.69,77.4,48.69,77.4l94.85-45.59l23.08,26.74c0,0-79.93,60.51-111.17,70.64
		c-31.24,10.13-102.73-101.32-102.16-113.42C830.16,347.37,861.97,326.83,875.76,343.99z"/>
	<path d="M924.45,422.8c-0.56,0-0.84-0.28-1.13-0.56c0,0-42.5-67.83-43.34-68.95c-0.28-0.56-0.28-1.69,0.56-1.97
		c0.56-0.28,1.41-0.28,1.97,0.28c0.56,0.84,36.87,58.82,42.5,67.55l50.38-26.17c0.56-0.28,1.41,0,1.97,0.56
		c0.28,0.56,0,1.69-0.56,1.97l0,0l-51.5,27.02C924.73,422.8,924.73,422.8,924.45,422.8z"/>
	<path d="M929.23,473.18c-19.98,0-41.37-16.89-64.17-50.38c-0.56-0.56-0.28-1.41,0.28-1.97l0,0c0.56-0.56,1.41-0.28,1.97,0.28
		c24.77,36.59,47.85,52.91,68.67,48.41c20.83-4.5,62.2-37.15,62.76-37.43c0.56-0.56,1.41-0.28,1.97,0.28l0,0
		c0.56,0.56,0.28,1.41-0.28,1.97l0,0c-1.69,1.41-42.22,33.21-63.89,38C934.02,472.9,931.77,473.18,929.23,473.18z"/>
	<path d="M892.64,327.39l-2.25,6.75l5.63,7.32c0,0-10.98,56.57-95.41,11.54l-27.02,9.85l16.04,21.95c0,0,101.32,39.12,109.2-42.5
		l1.41-9.01L892.64,327.39z"/>
	<path d="M839.45,395.5c-6.47,0-12.95-0.56-19.14-1.41c-10.69-1.69-21.11-4.22-30.96-7.88c-0.28,0-0.56-0.28-0.56-0.56l-16.04-21.95
		c-0.56-0.56-0.28-1.41,0.28-1.97l0.28-0.28l27.02-9.85c0.28-0.28,0.84-0.28,1.13,0c31.8,17.17,56.57,21.39,74.02,13.23
		c9.57-4.78,16.32-13.23,19.14-23.36l-5.07-6.75c-0.28-0.28-0.28-0.84-0.28-1.41l2.25-6.75c0.28-0.56,0.56-0.84,0.84-0.84
		c0.56,0,0.84,0,1.41,0.28l7.6,5.63c0.56,0.28,0.56,0.84,0.56,1.41l-1.41,9.29c-1.97,20.55-10.13,35.46-24.2,44.19
		C865.34,393.25,852.12,395.5,839.45,395.5z M790.76,383.4c4.78,1.69,54.32,19.14,84.15,0.56c13.23-8.16,20.83-22.23,22.8-41.94
		l1.41-8.44l-5.35-3.94l-1.41,4.22l5.07,6.75c0.28,0.28,0.28,0.84,0.28,1.13c-2.81,11.26-10.41,20.83-20.83,25.89
		c-18.01,8.44-43.62,4.22-75.99-12.95l-24.77,9.01L790.76,383.4z"/>
	<path d="M997.91,890c-13.51,0-48.69-45.31-49.82-47.85c-1.13-2.53,3.66-21.11,6.47-32.08c0-0.28,0.28-0.84,0.84-0.84
		c0.28-0.28,0.84-0.28,1.13,0l31.24,14.92c0.28,0,0.56,0.28,0.56,0.56c0.84,1.69,19.14,41.94,14.64,60.51
		c-0.28,2.53-2.25,4.5-4.78,4.5L997.91,890z M957.1,812.6c-3.38,12.95-6.47,26.74-6.19,28.43c1.97,3.94,37.15,47.28,47.56,45.88
		c0.84,0,1.69-0.56,1.97-2.53c3.94-16.61-12.1-53.47-14.35-58.26L957.1,812.6z"/>
	<path class="st1" d="M1006.35,564.09c-0.56,0-0.84-0.28-1.13-0.56l-40.53-51.5c-0.56-0.56-0.56-1.41,0-1.97
		c0.56-0.56,1.41-0.56,1.97,0l0,0l40.53,51.5c0.56,0.56,0.28,1.41-0.28,1.97C1006.91,563.52,1006.63,564.09,1006.35,564.09z"/>
	<path d="M821.44,739.99c-0.56,0-1.13-0.56-1.41-1.13l-0.84-2.81c-5.63-24.2-11.82-48.69-22.52-71.49
		c-15.48,2.81-31.24,1.97-46.16-2.81c-8.72-2.53-16.61-7.32-22.8-13.79c-6.47-6.75-8.72-16.61-6.47-25.61
		c5.35-12.95,19.98-19.42,33.21-14.07c0.56,0.28,1.13,0.56,1.41,0.56c10.41,5.91,21.39,18.01,32.65,35.74
		c3.38,5.35,6.75,10.98,9.57,16.89c12.67-2.53,24.49-7.6,35.18-14.92c-0.28-1.13-0.56-1.97-0.56-3.1l-0.56-2.53
		c-4.22-19.42-9.29-43.62-0.84-62.76c1.41-3.1,6.47-13.23,14.35-14.92c3.94-0.84,7.88,0.56,10.69,3.38
		c9.01,8.72,13.23,21.39,11.26,34.06c-1.97,12.1-7.32,23.36-15.76,32.65c-4.5,5.35-9.85,10.13-15.48,14.35
		c6.19,26.17,15.76,51.5,28.14,75.43c0.28,0.56,0,1.69-0.56,1.97l0,0c-0.56,0.28-1.41,0-1.97-0.56
		c-12.38-23.64-21.95-48.97-28.14-74.86c-10.41,7.04-21.95,12.1-34.34,14.64c10.41,22.52,16.61,47.28,22.23,71.21l0.84,2.81
		C822.85,739.43,822.28,739.99,821.44,739.99L821.44,739.99z M745.73,609.12c-2.81,0-5.91,0.56-8.44,1.69
		c-5.91,1.97-10.69,6.47-12.67,12.38c-2.25,8.16,0,16.61,5.63,22.8c5.91,6.19,13.23,10.69,21.39,12.95
		c14.07,4.5,29.27,5.63,43.91,3.1c-2.53-5.35-5.63-10.7-9.01-15.76c-11.26-17.45-21.95-28.99-31.8-34.62
		C751.92,609.96,748.83,609.12,745.73,609.12z M848.46,565.49c-0.56,0-1.13,0-1.69,0.28c-5.35,1.13-9.85,7.6-12.38,13.23
		c-8.16,18.29-3.1,41.94,0.84,61.07l0.56,2.53c0,0.56,0.28,1.13,0.28,1.97c5.07-3.94,9.85-8.16,14.07-13.23
		c7.88-8.72,13.23-19.42,14.92-31.24c1.69-11.54-1.97-23.08-10.41-31.52C853.24,566.9,850.99,566.06,848.46,565.49z"/>
	<path d="M1076.43,399.72c-0.56,0-0.84-0.28-1.13-0.56c-0.28-0.28-0.28-0.84-0.28-1.41l12.95-38.84c0.28-0.56,0.56-0.84,1.13-0.84
		l16.32-1.97c0.56,0,0.84,0,1.13,0.56c0.28,0.28,0.56,0.84,0.28,1.41l-12.1,39.68c-0.28,0.56-0.56,0.84-1.41,1.13L1076.43,399.72
		L1076.43,399.72z M1090.22,360.88l-12.1,35.74l14.35-0.84l10.98-36.59L1090.22,360.88z"/>
	<path d="M1150.45,424.21H1095c-0.56,0-0.84-0.28-1.13-0.56c-0.28-0.28-0.28-0.84-0.28-1.13l27.02-90.63
		c0.28-0.56,0.56-0.84,1.41-1.13l51.5-3.66c0.56,0,0.84,0.28,1.13,0.56c0.28,0.28,0.56,0.84,0.28,1.13l-23.08,94.28
		C1151.86,423.92,1151.01,424.21,1150.45,424.21z M1096.97,421.39h52.35l22.23-91.47l-48.41,3.38L1096.97,421.39z"/>
	<polygon class="st1" points="1161.14,435.18 1162.55,366.51 1185.91,257.31 1183.38,319.23 	"/>
	<g>
		<path d="M1130.47,666.25c-0.84,0-1.41-0.56-1.41-1.41s0.56-1.41,1.41-1.41c28.14-0.56,56.01-7.32,81.34-20.26
			c9.57-4.78,18.29-10.7,26.17-18.01V519.05c0-0.84,0.56-1.41,1.41-1.41c0.84,0,1.41,0.56,1.41,1.41v106.67
			c0,0.28-0.28,0.84-0.28,0.84C1239.95,627.41,1204.21,663.72,1130.47,666.25L1130.47,666.25z"/>
		<path d="M1139.47,566.9c-0.84,0-1.41-0.56-1.41-1.41c0-0.84,0.56-1.41,1.41-1.41c0.28,0,21.67-1.41,33.21-9.29
			c0.56-0.56,1.41-0.28,1.97,0.28l0,0c0.56,0.56,0.28,1.41-0.28,1.97C1162.27,565.21,1140.6,566.9,1139.47,566.9L1139.47,566.9z"/>
		<path d="M1139.47,553.39c-0.84,0-1.41-0.56-1.41-1.41c0-0.84,0.56-1.41,1.41-1.41l0,0c0.28,0,20.26-0.56,33.21-9.57
			c0.56-0.56,1.41-0.28,1.97,0.28c0.56,0.56,0.28,1.41-0.28,1.97C1160.86,552.83,1140.6,553.39,1139.47,553.39L1139.47,553.39z"/>
		<path d="M1134.41,647.67c-0.28,0-0.56-0.28-0.84-0.28c-0.56-0.56-0.56-1.41,0-1.97l0,0c0.28-0.28,27.58-30.11,39.12-48.69
			c0.28-0.28,0.56-0.56,1.13-0.56s0.84,0,1.13,0.56l22.23,22.8c4.22-8.16,21.67-43.06,25.05-63.61l-10.13,6.19
			c-0.56,0.28-1.69,0.28-1.97-0.56c-0.28-0.56-0.28-1.69,0.56-1.97l12.95-7.6c0.56-0.28,1.13-0.28,1.41,0
			c0.56,0.28,0.84,0.84,0.56,1.41c-2.53,23.08-25.61,67.55-26.74,69.52c-0.28,0.28-0.56,0.56-1.13,0.84c-0.56,0-0.84,0-1.13-0.28
			l-22.23-23.08c-12.1,18.86-38.28,47-38.56,47.56C1135.25,647.11,1134.69,647.67,1134.41,647.67z"/>
		<path d="M1227.85,566.9c-0.56,0-1.13-0.28-1.41-0.84l-4.22-12.67c-0.28-0.84,0-1.69,0.56-1.97c0.84-0.28,1.69,0,1.97,0.56v0.28
			l4.22,12.67c0.28,0.84-0.28,1.69-0.84,1.69L1227.85,566.9z"/>
	</g>
	<path class="st6" d="M686.63,295.59c0,0,4.78,38,28.71,46.16v82.75c0,0-17.73-8.16-28.71-35.74V295.59z"/>
	<path d="M715.05,426.18c-0.28,0-0.28,0-0.56,0c-0.84-0.28-18.58-8.44-29.27-36.59c0-0.28,0-0.28,0-0.56v-93.44
		c0-0.84,0.56-1.41,1.41-1.41c0.84,0,1.41,0.56,1.41,1.13l0,0c0,0.28,5.07,37.43,27.58,45.03c0.56,0.28,0.84,0.84,0.84,1.41v82.75
		c0,0.56-0.28,0.84-0.56,1.13C715.62,426.18,715.33,426.18,715.05,426.18z M688.03,388.74c8.16,21.11,20.83,30.68,25.61,33.49
		v-79.37c-14.92-5.63-22.23-22.23-25.61-34.34V388.74z"/>
	<path d="M855.21,295.02l0.28-2.81l0,0c-3.94-0.56-7.6-1.97-10.98-4.22c-6.19-4.5-9.29-11.82-12.1-19.42
		c-2.25-4.78-3.38-10.13-3.66-15.48c0.28-9.29,6.75-17.45,12.95-24.2c3.94-4.22,11.54-12.1,8.44-20.26
		c-0.28-0.56-0.28-1.13-0.56-1.41c-0.56-0.84-0.84-1.69-0.84-2.53c0-1.13,0.56-1.97,1.41-2.53c1.13-0.56,2.25-1.13,3.38-1.13
		c0.56,0,1.41,0,1.97,0.28c3.1,1.69,5.63,4.5,7.04,7.88c0.28,0.28,0.56,0.56,1.13,0.56c0.56,0,0.84,0,1.13-0.56
		c2.81-3.1,3.94-7.32,3.1-11.54l-0.28-0.56c-0.28-1.13-0.56-1.97-0.28-2.53c0.56-0.56,1.13-0.84,1.69-0.84
		c9.57-1.97,19.14,3.66,21.67,13.23c0,0.28,0.28,0.56,0.56,0.84c0.56,0.28,1.69,0.28,1.97-0.56c1.69-2.81,2.25-5.91,1.97-9.29
		c9.01,3.94,16.32,11.54,19.98,20.55c2.53,6.19,3.1,12.95,2.25,19.7c0,0.84-0.28,1.97-0.56,2.81l0,0c0.84,0.84,1.69,1.97,2.25,3.1
		c0.28-1.69,0.56-3.66,0.84-5.35c1.13-7.04,0.28-14.35-2.25-21.11c-4.22-10.98-13.23-19.42-24.2-23.36c-0.28,0-0.56,0-0.84,0
		c-0.84,0.28-1.13,1.13-0.84,1.69c0.56,1.97,0.84,4.22,0.28,6.19c-1.69-3.66-4.78-6.75-8.16-9.01c-4.78-2.81-10.41-3.94-15.76-2.53
		c-1.41,0.28-2.81,1.13-3.66,2.25c-0.56,1.41-0.84,3.1-0.28,4.78l0.28,0.56c0.56,2.53,0,5.07-1.13,7.32
		c-1.69-3.1-4.22-5.63-7.32-7.32c-2.81-0.84-5.63-0.56-7.88,1.13c-1.69,1.13-2.81,3.1-2.81,5.07c0,1.13,0.56,2.53,1.13,3.66
		c0.28,0.56,0.28,0.84,0.56,1.41c1.97,5.91-2.53,11.82-7.88,17.45c-6.75,7.04-13.51,15.76-13.79,26.17
		c0.28,5.63,1.69,11.26,3.94,16.61c3.1,7.88,6.47,15.76,13.23,20.83C846.49,292.77,850.71,294.46,855.21,295.02
		C854.93,295.02,854.93,295.02,855.21,295.02z"/>
	<path d="M1161.14,436.59L1161.14,436.59c-0.84,0-1.41-0.84-1.41-1.41l1.13-68.39l23.36-109.76c0.28-0.84,0.84-1.13,1.69-1.13
		c0.84,0,1.41,0.84,1.13,1.41l-2.25,61.92l-22.23,115.96C1162.55,436.03,1161.99,436.59,1161.14,436.59z M1183.66,273.63
		l-19.98,93.44l-0.84,51.79l19.14-99.63L1183.66,273.63z"/>
</g>
</svg>
