<?xml version="1.0" encoding="utf-8"?>
<!-- Generator: Adobe Illustrator 26.5.0, SVG Export Plug-In . SVG Version: 6.00 Build 0)  -->
<svg version="1.1" id="Layer_1" xmlns="http://www.w3.org/2000/svg" xmlns:xlink="http://www.w3.org/1999/xlink" x="0px" y="0px"
	 viewBox="0 0 1920 1080" style="enable-background:new 0 0 1920 1080;" xml:space="preserve">
<style type="text/css">
	.st0{fill:#E6E7E8;}
	.st1{fill:#FFFFFF;}
	.st2{fill:#231F20;}
	.st3{fill:#0BEEB1;}
	.st4{fill:#282C2B;}
	.st5{fill:#CBDDD8;}
	.st6{fill:#C9DBD6;}
	.st7{fill:#0CECAF;}
</style>
<g>
	<path class="st1" d="M983.77,751.92l-27.79,22.82c0,0,58.52,104.16,67.29,88.94c4.1-7.61-5.56-59.39-5.56-59.39"/>
	<path class="st4" d="M1020.93,866.61c-14.34,0-60.86-81.92-66.12-91.28c-0.29-0.59-0.29-1.46,0.29-1.76l27.79-23.11
		c0.59-0.59,1.46-0.29,2.05,0.29s0.29,1.46-0.29,2.05l-26.62,22.24c19.6,34.82,53.54,88.65,62.9,88.65c0.59,0,0.88-0.29,1.17-0.88
		c2.93-5.27-1.76-37.74-5.56-58.22c0-0.88,0.29-1.46,1.17-1.76c0.88,0,1.46,0.29,1.76,1.17c0.88,5.27,9.36,52.66,5.27,60.27
		C1023.85,865.74,1022.39,866.61,1020.93,866.61L1020.93,866.61z"/>
	<path class="st1" d="M1292.44,603.59l-46.81-19.6l62.9-151.26c5.85-14.63,32.48-37.45,41.55-33.65c9.07,3.8,11.41,38.62,5.27,53.25
		L1292.44,603.59z"/>
	<path class="st4" d="M1292.44,605.05c-0.29,0-0.29,0-0.59,0l-46.81-19.6c-0.29-0.29-0.59-0.59-0.88-0.88
		c-0.29-0.29-0.29-0.88,0-1.17l62.9-151.26c5.85-14.04,32.77-38.91,43.3-34.52c10.83,4.39,12,40.96,6.14,55l-62.9,151.26
		C1293.61,604.76,1293.02,605.05,1292.44,605.05z M1247.38,583.1l44.47,18.43l62.32-149.8c5.85-14.63,2.93-47.98-4.68-51.2
		c-7.61-3.22-33.65,18.14-39.5,32.77L1247.38,583.1z"/>
	
		<rect x="1264.04" y="578.75" transform="matrix(0.3841 -0.9233 0.9233 0.3841 229.3992 1538.8491)" class="st1" width="8.19" height="37.45"/>
	<path class="st4" d="M1283.66,610.02c-0.29,0-0.29,0-0.59,0l-34.52-14.34c-0.88-0.29-1.17-1.17-0.88-2.05l0,0l3.22-7.61
		c0-0.29,0.29-0.59,0.88-0.88c0.29-0.29,0.88-0.29,1.17,0l34.52,14.34c0.88,0.29,1.17,1.17,0.88,2.05l0,0l-3.22,7.31
		c-0.29,0.29-0.59,0.59-0.88,0.88C1283.95,610.02,1283.95,610.02,1283.66,610.02z M1250.89,593.35l31.89,13.17l2.05-4.68
		l-31.6-13.17L1250.89,593.35z"/>
	
		<rect x="1249.01" y="486.53" transform="matrix(0.3841 -0.9233 0.9233 0.3841 329.713 1518.2407)" class="st5" width="107.67" height="50.91"/>
	<path class="st4" d="M1305.61,573.16c-0.29,0-0.29,0-0.59,0l-46.81-19.6c-0.29,0-0.59-0.29-0.88-0.88c-0.29-0.29-0.29-0.88,0-1.17
		l41.25-99.48c0.29-0.29,0.59-0.59,0.88-0.88c0.29-0.29,0.88-0.29,1.17,0l46.81,19.6c0.88,0.29,1.17,1.17,0.88,2.05l-41.25,99.48
		C1306.78,572.86,1306.19,573.16,1305.61,573.16z M1260.55,551.21l44.18,18.43l40.38-96.55l-44.18-18.43L1260.55,551.21z"/>
	<polygon class="st1" points="1226.02,578.42 1247.67,578.13 1257.04,555.9 1231.29,565.55 	"/>
	<path class="st4" d="M1226.02,579.89c-0.59,0-0.88-0.29-1.17-0.59c-0.29-0.29-0.29-0.88,0-1.46l5.27-12.58
		c0-0.29,0.59-0.59,0.88-0.88l25.75-9.95c0.59-0.29,1.17,0,1.46,0.29s0.59,1.17,0.29,1.46l-9.36,22.53
		c-0.29,0.59-0.88,0.88-1.46,0.88L1226.02,579.89L1226.02,579.89z M1232.46,566.72l-4.1,9.95h18.43l7.61-18.43L1232.46,566.72z"/>
	<polygon class="st1" points="1309.99,613.24 1294.78,597.73 1304.14,575.21 1315.26,600.66 	"/>
	<path class="st4" d="M1309.99,614.7c-0.29,0-0.88-0.29-1.17-0.59l-15.21-15.51c-0.29-0.29-0.59-1.17-0.29-1.46l9.36-22.53
		c0.29-0.59,0.88-0.88,1.46-0.88l0,0c0.59,0,1.17,0.29,1.46,0.88l11.12,25.16c0.29,0.29,0.29,0.88,0,1.17l-5.27,12.58
		C1311.16,614.41,1310.58,614.7,1309.99,614.7L1309.99,614.7z M1296.54,597.44l12.87,13.17l4.1-9.95l-9.36-21.36L1296.54,597.44z"/>
	<polygon class="st1" points="830.16,267.12 1113.97,275.6 1319.94,470.75 1282.49,561.16 792.71,357.23 	"/>
	<path class="st4" d="M1282.49,562.62c-0.29,0-0.29,0-0.59,0L791.84,358.7c-0.29,0-0.59-0.29-0.88-0.88c-0.29-0.29-0.29-0.88,0-1.17
		l37.45-90.11c0.29-0.59,0.88-0.88,1.46-0.88l283.8,8.48c0.29,0,0.59,0,0.88,0.29l206.27,195.15c0.29,0.29,0.59,1.17,0.29,1.76
		l-37.45,90.41c-0.29,0.29-0.59,0.59-0.88,0.88C1282.78,562.62,1282.78,562.62,1282.49,562.62z M794.47,356.36l487.14,202.76
		l36.57-88.07l-204.81-194.27l-282.05-8.48L794.47,356.36z"/>
	<path class="st5" d="M1075.64,249.27l84.26,35.11c27.21,11.41,40.08,42.72,28.97,69.93l-43.89,105.62
		c-11.41,27.21-42.72,40.08-69.93,28.97l-84.26-35.11c-27.21-11.41-40.08-42.72-28.97-69.93l43.89-105.62
		C1016.83,250.74,1048.14,237.86,1075.64,249.27z"/>
	<path class="st4" d="M1095.24,494.16c-7.31,0-14.34-1.46-21.07-4.39l-84.26-35.11c-28.09-11.7-41.25-43.89-29.55-71.97
		l43.89-105.62c11.7-28.09,43.89-41.25,71.97-29.55l84.26,35.11c28.09,11.7,41.25,43.89,29.55,71.97l-43.89,105.62
		C1137.37,480.7,1117.48,494.16,1095.24,494.16L1095.24,494.16z M1054.87,246.64c-6.73,0-13.46,1.46-19.9,3.8
		c-12.87,5.27-22.82,15.51-28.09,28.09L963,384.15c-11.12,26.62,1.46,57.05,28.09,67.88l84.26,35.11l0,0
		c26.62,10.83,57.05-1.76,67.88-28.09l43.89-105.62c11.12-26.62-1.46-57.05-28.09-68.17l-84.26-35.11
		C1068.62,247.81,1061.89,246.64,1054.87,246.64z"/>
	<path class="st1" d="M800.61,398.78l-46.81-19.6l62.9-151.26c5.85-14.63,32.48-37.45,41.55-33.65c9.07,3.8,11.41,38.62,5.56,53.25
		L800.61,398.78z"/>
	<path class="st4" d="M800.61,400.24c-0.29,0-0.29,0-0.59,0l-46.81-19.6c-0.88-0.29-1.17-1.17-0.88-2.05l62.9-151.26
		c2.93-7.02,10.83-16.68,20.19-24.28c4.68-4.1,16.68-12.87,23.41-10.24s8.78,17.55,9.36,23.7c1.17,12,0,24.28-2.93,31.31
		l-62.9,151.26C802.08,399.95,801.49,400.24,800.61,400.24z M755.85,378.59l44.18,18.43l62.32-149.8c2.63-6.73,3.8-18.43,2.93-29.84
		s-4.1-19.9-7.61-21.36c-3.51-1.46-11.41,2.34-20.48,9.66c-8.78,7.31-16.38,16.38-19.31,23.11L755.85,378.59z"/>
	
		<rect x="772.33" y="374.29" transform="matrix(0.3841 -0.9233 0.9233 0.3841 115.3351 958.9329)" class="st1" width="8.19" height="37.45"/>
	<path class="st4" d="M791.84,405.51c-0.29,0-0.29,0-0.59,0l-34.52-14.34c-0.88-0.29-1.17-1.17-0.88-2.05l2.93-7.61
		c0.29-0.29,0.59-0.59,0.88-0.88c0.29-0.29,0.88-0.29,1.17,0l34.52,14.34c0.29,0,0.59,0.29,0.88,0.88c0.29,0.29,0.29,0.88,0,1.17
		l-3.22,7.61c-0.29,0.29-0.59,0.59-0.88,0.88C792.13,405.51,792.13,405.51,791.84,405.51z M759.36,388.83L791.25,402l2.05-4.68
		l-31.89-13.17L759.36,388.83z"/>
	
		<rect x="757.34" y="282.08" transform="matrix(0.3841 -0.9233 0.9233 0.3841 215.6569 938.3645)" class="st5" width="107.67" height="50.91"/>
	<path class="st4" d="M814.07,368.35c-0.29,0-0.29,0-0.59,0l-46.81-19.6c-0.29,0-0.59-0.29-0.88-0.88c-0.29-0.29-0.29-0.88,0-1.17
		l41.25-99.48c0-0.29,0.29-0.59,0.88-0.88c0.29-0.29,0.88-0.29,1.17,0l46.81,19.6c0.88,0.29,1.17,1.17,0.88,1.76l0,0l-41.25,99.18
		C814.95,368.06,814.66,368.35,814.07,368.35z M769.02,346.7l44.18,18.43l40.38-96.55l-44.18-18.43L769.02,346.7z"/>
	<polygon class="st1" points="734.49,373.91 756.14,373.62 765.51,351.09 739.76,361.04 	"/>
	<path class="st4" d="M734.49,375.37c-0.88,0-1.46-0.59-1.46-1.46c0-0.29,0-0.29,0-0.59l5.27-12.58c0.29-0.29,0.59-0.59,0.88-0.88
		l25.75-9.95c0.59-0.29,1.17,0,1.46,0.29c0.29,0.29,0.59,1.17,0.29,1.46l-9.07,22.53c-0.29,0.59-0.88,0.88-1.46,0.88L734.49,375.37
		L734.49,375.37z M740.93,362.21l-4.1,9.95h18.43l7.61-18.43L740.93,362.21z"/>
	<polygon class="st1" points="818.17,408.73 802.96,393.22 812.32,370.69 823.44,395.85 	"/>
	<path class="st4" d="M818.17,410.19c-0.29,0-0.88-0.29-1.17-0.59l-15.21-15.51c-0.29-0.29-0.59-1.17-0.29-1.46l9.36-22.53
		c0.29-0.59,0.88-0.88,1.46-0.88l0,0c0.59,0,1.17,0.29,1.46,0.88l11.12,25.16c0.29,0.29,0.29,0.88,0,1.17l-5.27,12.58
		C819.34,409.61,819.05,409.9,818.17,410.19L818.17,410.19z M804.71,392.93l12.87,13.17l4.1-9.95l-9.36-21.36L804.71,392.93z"/>
	<path class="st5" d="M986.69,290.23L986.69,290.23l-125.22-5.56c-0.88,0-1.46-0.59-1.46-1.46l0,0c0-0.88,0.88-1.46,1.46-1.46
		l125.22,5.56c0.88,0,1.46,0.59,1.46,1.46S987.57,290.23,986.69,290.23L986.69,290.23z"/>
	<path class="st5" d="M1303.26,474.85c-0.29,0-0.88-0.29-0.88-0.29l-106.5-98.89c-0.59-0.59-0.59-1.46,0-2.05s1.46-0.59,2.05,0
		l106.5,98.89c0.59,0.59,0.59,1.46,0,2.05l0,0C1304.14,474.56,1303.85,474.85,1303.26,474.85z"/>
	<path class="st3" d="M1175.41,353.43c0,0,164.14,134.88,95.97,144.83c-57.05,8.19-108.84-22.24-108.84-22.24l16.38-35.69
		c0,0,52.66,24.28,50.62,13.75c-1.76-10.83-73.14-53.54-73.14-53.54L1175.41,353.43z"/>
	<path class="st3" d="M1029.12,299.01c0,0-165.31-18.14-169.7,7.02s67,81.04,68.76,77.53c1.76-3.51,39.5-25.75,39.5-25.75
		l-33.06-26.33l79,17.85L1029.12,299.01z"/>
	<path class="st1" d="M1170.73,262.73c4.68-8.78,1.46-20.19-3.8-28.67c-14.04-21.65-38.91-33.35-64.66-30.43
		c-11.41,1.46-23.41,6.73-29.26,16.68c6.14-1.17,12.58-1.46,19.02-0.59c-14.04,6.14-24.87,18.14-29.55,32.77
		c-0.59,1.46-0.59,3.22-0.29,4.68c1.17,2.63,4.68,2.63,7.61,1.76c2.63-0.88,5.85-2.05,8.19-0.59c-8.19,3.22-14.63,9.66-18.14,17.55
		c-1.76,3.51-2.34,7.61-1.46,11.41c0.88,2.63,2.34,4.97,4.39,7.02c5.27,4.39,11.41,7.31,17.85,8.78c11.7,3.8,23.7,7.02,35.69,5.56
		c14.63-1.76,26.62-10.53,37.16-20.19c4.97-4.39,9.66-4.39,14.92-7.9c2.93-2.05,4.97-5.27,5.56-8.78
		C1172.77,268.58,1171.9,265.66,1170.73,262.73z"/>
	<path class="st4" d="M1109.87,310.13c-10.24-0.29-20.48-2.34-30.14-5.85c-6.73-1.76-13.17-4.97-18.43-9.36
		c-2.34-2.05-3.8-4.68-4.97-7.61c-0.88-4.1-0.29-8.48,1.46-12.29c2.63-6.44,7.31-11.7,13.17-15.51h-0.29l-0.88,0.29
		c-3.22,0.88-7.61,0.88-9.36-2.63c-0.59-1.76-0.59-3.8,0.29-5.56c4.39-13.17,13.46-24.28,25.75-31.01c-4.39,0-8.78,0.29-13.17,1.17
		c-0.88,0.29-1.46-0.29-1.76-1.17c0-0.29,0-0.88,0.29-1.17c5.56-9.36,16.68-15.51,30.43-17.26c26.33-3.22,51.79,9.07,66.12,31.31
		c3.22,4.97,9.95,18.14,4.39,29.55c1.17,2.93,2.34,5.56,2.93,8.78c-0.29,4.1-2.63,7.9-6.14,10.24c-2.05,1.17-4.1,2.34-6.44,3.22
		c-2.93,0.88-5.85,2.63-8.19,4.39c-9.36,8.48-22.24,18.43-38.04,20.48C1114.26,310.13,1111.92,310.13,1109.87,310.13z
		 M1075.05,255.71c1.17,0,2.34,0.29,3.22,0.88c0.59,0.29,0.88,0.88,0.88,1.46c0,0.59-0.29,1.17-0.88,1.17
		c-7.61,3.22-13.75,9.07-17.26,16.68c-1.46,3.22-2.05,6.73-1.46,10.24c0.88,2.34,2.05,4.68,4.1,6.14c4.97,4.1,10.83,7.02,17.26,8.78
		c11.12,3.51,23.11,7.02,35.11,5.56c14.92-1.76,26.62-11.12,36.28-19.6c2.63-2.34,5.56-4.1,8.78-4.97c2.05-0.88,4.1-1.76,5.85-2.93
		c2.63-1.76,4.39-4.68,4.68-7.9c-0.59-2.63-1.76-5.27-2.63-7.9c-0.29-0.59-0.29-0.88,0-1.46c5.56-10.24-0.88-22.53-3.8-27.21
		c-13.75-21.07-38.33-32.48-63.2-29.84c-11.41,1.46-20.77,6.14-26.33,13.17c5.27-0.59,10.53-0.59,16.09,0
		c0.59,0,1.17,0.59,1.17,1.17s-0.29,1.17-0.88,1.46c-13.75,5.85-24.28,17.55-28.97,31.6c-0.59,1.17-0.59,2.34-0.29,3.51
		c0.88,1.76,3.51,1.76,5.85,1.17l0.88-0.29C1071.54,256.29,1073.3,256,1075.05,255.71z"/>
	<path class="st4" d="M1072.71,522.25c0,0,53.83,118.79,44.47,141.9s-99.48,140.15-99.48,140.15l-47.98-40.67
		c0,0,84.26-111.18,80.75-118.79c-3.51-7.61-45.06-88.07-45.06-88.07L778.67,804l-22.82-59.39L939.59,480.7L1072.71,522.25z"/>
	<path class="st4" d="M1018,805.76c-0.29,0-0.59,0-0.88-0.29l-47.98-40.67c-0.59-0.59-0.59-1.46-0.29-2.05
		c31.89-41.84,81.63-110.89,80.46-117.32c-2.93-6.73-37.74-74.02-44.18-86.02L779.84,805.17c-0.59,0.59-1.46,0.59-2.05,0
		c-0.29-0.29-0.29-0.29-0.29-0.59l-22.82-59.39c-0.29-0.59,0-0.88,0.29-1.46l183.74-263.91c0.29-0.59,1.17-0.88,1.76-0.59
		l132.83,41.55c0.29,0,0.88,0.29,0.88,0.88c2.34,4.97,53.83,119.66,44.47,143.07s-95.67,135.46-99.48,140.44
		C1018.88,805.46,1018.59,805.76,1018,805.76L1018,805.76z M972.07,763.33l45.64,38.62c9.66-12.58,89.82-116.74,98.01-138.39
		c8.19-21.65-40.08-131.08-44.18-140.15l-131.08-40.96L757.61,744.61l21.65,56.47l225.29-245.47c0.29-0.29,0.88-0.59,1.17-0.59
		c0.59,0,0.88,0.29,1.17,0.88c1.76,3.22,41.84,80.46,45.35,88.36C1055.74,651.86,992.84,735.83,972.07,763.33L972.07,763.33z"/>
	<path class="st1" d="M1072.71,522.25L939.88,480.7l124.64-162.67c0,0,62.03,29.84,69.63,41.84
		C1141.47,372.16,1072.71,522.25,1072.71,522.25z"/>
	<path class="st4" d="M1072.71,523.71c-0.29,0-0.29,0-0.59,0L939.3,482.17c-0.59,0-0.88-0.59-0.88-0.88c0-0.59,0-0.88,0.29-1.46
		l124.35-162.67c0.29-0.59,1.17-0.88,1.76-0.59c2.63,1.17,62.32,30.14,70.22,42.42c7.9,12.29-54.13,148.34-61.15,163.55
		C1073.59,523.42,1073.01,523.71,1072.71,523.71z M942.22,480.12l129.61,40.38c26.62-57.93,66.12-151.56,60.86-159.75
		c-6.73-10.53-59.69-36.86-67.88-40.96L942.22,480.12z"/>
	<path class="st3" d="M1097.58,316.57c-2.34,0-14.63,27.5-15.8,29.84c-12,21.94-22.82,45.06-35.4,66.71
		c-24.58,42.72-78.41,68.17-119.96,90.41c-5.56,2.93-11.7,5.85-17.85,4.68c-4.39-1.17-8.19-3.51-11.41-6.73
		c-14.34-12.58-25.75-28.09-33.35-45.64c-1.17-2.34-1.76-4.68-1.76-7.31c0.59-4.1,3.8-7.61,7.9-8.48
		c21.94-3.8,54.42-6.44,72.27-17.85c29.84-19.02,63.78-74.61,86.6-123.18C1056.62,305.45,1080.61,312.76,1097.58,316.57z"/>
	<path class="st3" d="M1175.41,353.43c0.59,0.59-26.62,65.83-28.09,69.05c-10.24,23.99-45.93,67.88-67.59,81.63
		c13.75-24.58,17.85-63.49,18.73-91.28c0.59-13.46,11.41-37.16,16.68-49.74c0.59-1.17,4.97-40.08,4.39-40.67
		C1119.82,322.71,1158.15,339.68,1175.41,353.43z"/>
	<path class="st1" d="M1128.3,326.22l-7.61,26.33c0,0-7.02,10.83-23.11,1.76c-16.38-9.07-15.51-21.94-15.51-21.94l16.09-48.28
		c0,0,13.17-4.39,17.26-33.65c0,0,24.87,16.09,51.79,20.19c0,0-8.78,32.18-14.63,45.06C1146.44,328.27,1128.3,326.22,1128.3,326.22z
		"/>
	<path class="st4" d="M1109.58,359.28c-4.39-0.29-8.78-1.46-12.87-3.8c-16.97-9.66-16.38-22.82-16.38-23.41v-0.29l16.09-48.28
		c0.29-0.59,0.59-0.88,0.88-0.88c0,0,12.29-4.68,16.38-32.48c0-0.88,0.88-1.46,1.76-1.17c0.29,0,0.29,0,0.59,0.29
		c0.29,0.29,24.87,15.8,51.2,19.9c0.29,0,0.88,0.29,0.88,0.59c0.29,0.29,0.29,0.88,0.29,1.17c-0.29,1.46-8.78,32.48-14.92,45.35
		c-5.56,12-19.9,12-24.28,12l-7.31,25.16c0,0,0,0.29-0.29,0.29C1118.94,356.94,1114.26,359.28,1109.58,359.28z M1083.54,332.36
		c0,1.46,0.29,12.29,14.92,20.48c14.04,7.9,20.19,0.29,21.07-1.17l7.61-26.04c0.29-0.59,0.88-1.17,1.46-1.17
		c0.29,0,16.97,1.76,22.53-9.95c4.97-11.12,12.29-36.57,14.04-43.3c-22.24-3.8-42.72-15.21-48.86-19.02
		c-4.1,24.58-14.34,31.01-17.26,32.18L1083.54,332.36z M1120.7,352.26"/>
	<path class="st1" d="M1106.65,284.67c0-2.63-0.59-5.27-2.05-7.31c-1.46-1.76-3.22-3.51-5.27-4.97c-1.17-0.88-2.34-1.46-3.51-1.76
		c-0.88,0-1.76,0-2.63,0.29c-2.05,0.29-4.1,1.46-5.56,3.22c-0.88,1.46-1.46,3.22-1.76,4.97c-0.29,1.76-0.29,3.8,0,5.56
		c0.88,7.9,8.19,13.46,16.09,12.58c0,0,0,0,0.29,0"/>
	<path class="st4" d="M1100.22,299.01c-7.9,0-14.92-5.85-15.8-14.04c-0.29-2.05-0.29-4.1,0.29-5.85c0.29-2.05,0.88-3.8,1.76-5.56
		c1.46-2.05,3.8-3.51,6.44-4.1c1.17-0.29,2.34-0.29,3.22-0.29c1.46,0.29,2.93,0.88,4.1,2.05c2.05,1.46,4.1,3.22,5.56,5.27
		c1.76,2.34,2.63,5.27,2.34,8.19c0,0.88-0.59,1.46-1.46,1.46c-0.88,0-1.46-0.59-1.46-1.46c0-2.34-0.59-4.39-1.76-6.44
		c-1.46-1.76-2.93-3.22-4.97-4.39c-0.88-0.59-1.76-1.17-2.93-1.46c-0.59,0-1.46,0-2.05,0.29c-1.76,0.29-3.51,1.17-4.68,2.63
		c-0.88,1.46-1.17,2.93-1.17,4.39c-0.29,1.76-0.29,3.51-0.29,5.27c0.88,7.02,7.61,12,14.63,11.12l0,0c0.88,0,1.46,0.59,1.76,1.17
		c0,0.88-0.59,1.46-1.17,1.76C1101.68,299.01,1100.8,299.01,1100.22,299.01z"/>
	<path class="st1" d="M1139.42,282.63c0,0,5.85,16.09,2.93,18.14c-2.93,1.76-8.48-1.17-8.48-1.17"/>
	<path class="st4" d="M1128.3,326.22c0,0-13.46-4.39-18.73-9.95c0,0,0.29,16.97,13.75,25.75L1128.3,326.22z"/>
	<path class="st4" d="M1123.62,343.48c-0.29,0-0.59,0-0.88-0.29c-14.04-8.78-14.34-26.04-14.34-26.62s0.29-1.17,0.88-1.46
		c0.59-0.29,1.17,0,1.76,0.29c4.68,5.27,17.85,9.36,17.85,9.66c0.88,0.29,1.17,1.17,0.88,1.76l0,0l-4.97,15.8
		c0,0.29-0.59,0.88-0.88,0.88C1123.91,343.48,1123.62,343.48,1123.62,343.48z M1111.63,319.78c1.17,7.61,4.97,14.63,11.12,19.6
		l3.8-12.29C1121.28,325.34,1116.31,323,1111.63,319.78L1111.63,319.78z"/>
	<path class="st1" d="M1122.74,271.51c0,0,7.02-4.97,10.24,4.1"/>
	<path class="st4" d="M1133.28,277.07c-0.59,0-1.17-0.29-1.46-0.88c-0.29-1.76-1.76-3.51-3.22-4.39c-1.46-0.29-3.22,0-4.68,0.88
		c-0.59,0.59-1.46,0.29-2.05-0.29l0,0c-0.59-0.59-0.29-1.46,0.29-2.05l0,0c2.05-1.46,4.68-2.05,7.31-1.46
		c2.63,1.17,4.68,3.22,5.27,6.14c0.29,0.88,0,1.76-0.88,1.76C1133.57,277.07,1133.57,277.07,1133.28,277.07L1133.28,277.07z"/>
	<path class="st1" d="M1146.15,282.92c0,0,6.14-7.61,10.24,1.46"/>
	<path class="st4" d="M1156.39,285.84c-0.59,0-1.17-0.29-1.46-0.88c-0.59-1.46-1.76-3.22-3.22-3.51s-3.8,1.76-4.39,2.34
		c-0.59,0.59-1.46,0.88-2.05,0.29c-0.59-0.59-0.88-1.46-0.29-2.05c0,0,0-0.29,0.29-0.29c1.76-2.34,4.39-3.51,7.02-3.51
		c2.34,0.29,4.1,2.05,5.56,5.27c0.29,0.88,0,1.76-0.88,2.05C1156.98,285.84,1156.68,285.84,1156.39,285.84z"/>
	<path class="st1" d="M1148.2,306.62c0,0-29.84,17.26-29.84-13.46"/>
	<path class="st4" d="M1099.92,360.45l-14.04,4.1l4.68,8.78c0,0-35.69,45.64-57.93,47.4c-12.87,0.88-25.75-2.34-36.86-8.78
		l-23.7,11.12c0,0,21.65,18.43,23.11,19.9c1.46,1.46,37.16,12,61.44-14.92c14.34-15.8,27.21-32.77,38.62-50.91l8.19-3.51
		L1099.92,360.45z"/>
	<path class="st4" d="M1040.24,410.19c-0.88,0-1.46-0.59-1.46-1.17l-6.44-43.89c0-0.59,0.29-1.46,0.88-1.46l22.24-7.31l-15.51-14.04
		c-0.29-0.29-0.59-0.88-0.59-1.46s0.59-0.88,0.88-1.17l33.35-11.41c0.88-0.29,1.76,0,1.76,0.88c0.29,0.88,0,1.76-0.88,1.76
		l-31.01,10.83l15.51,14.34c0.29,0.29,0.59,0.88,0.59,1.46s-0.59,0.88-0.88,1.17l-23.41,7.61l6.44,42.72
		C1041.99,409.31,1041.41,410.19,1040.24,410.19L1040.24,410.19z"/>
	<path class="st4" d="M959.48,458.17h-0.29c-0.29,0-30.72-6.14-47.4-9.95c-0.88-0.29-1.17-0.88-1.17-1.76l0,0
		c0.29-0.88,0.88-1.17,1.76-1.17l0,0c16.38,3.8,47.11,9.95,47.4,9.95c0.88,0.29,1.46,0.88,1.17,1.76l0,0
		C960.65,457.59,960.07,457.88,959.48,458.17z"/>
	<path class="st4" d="M1112.8,413.7c-0.88,0-1.46-0.59-1.46-1.46c0-0.29,0.29-0.88,0.59-1.17l33.35-30.72l-14.92-13.17
		c-0.29-0.29-0.59-0.88-0.59-1.17c0-0.59,0.29-0.88,0.59-1.17l21.07-12l-13.46-10.83c-0.59-0.59-0.88-1.46-0.29-2.05
		c0.59-0.59,1.46-0.59,2.05-0.29l15.21,12.58c0.29,0.29,0.59,0.88,0.59,1.17c0,0.59-0.29,0.88-0.88,1.17l-21.07,12l14.63,12.87
		c0.29,0.29,0.59,0.59,0.59,0.88c0,0.29-0.29,0.88-0.59,1.17l-34.82,31.6C1113.67,413.41,1113.38,413.7,1112.8,413.7z"/>
	<path class="st5" d="M1033.51,496.79c-0.29,0-0.59,0-0.59-0.29c-0.59-0.29-0.88-1.17-0.59-2.05c0.29-0.59,32.77-59.39,48.86-91.28
		c0.29-0.88,1.17-1.17,2.05-0.88c0.88,0.29,1.17,1.17,0.88,2.05c0,0,0,0,0,0.29c-16.09,31.89-48.57,90.7-48.86,91.28
		C1034.38,496.5,1033.8,496.79,1033.51,496.79z"/>
	<path class="st1" d="M755.85,744.61l-26.33,32.77c0,0,18.43,86.02,30.14,76.66c11.7-9.66,19.31-49.74,19.31-49.74L755.85,744.61z"
		/>
	<path class="st4" d="M757.9,856.08c-0.59,0-0.88,0-1.46-0.29c-12-4.1-26.62-70.8-28.09-78.41c0-0.59,0-0.88,0.29-1.17l26.33-32.77
		c0.29-0.29,0.88-0.59,1.46-0.59s0.88,0.29,1.17,0.88l22.82,59.39c0,0.29,0,0.59,0,0.88c-0.29,1.76-7.9,40.67-19.6,50.62
		C759.65,855.5,758.78,855.79,757.9,856.08z M730.98,777.67c5.85,28.09,18.43,72.56,26.04,75.49c0.59,0.29,1.17,0,1.46-0.29
		c10.53-8.78,17.85-44.18,18.72-48.57l-21.94-56.47L730.98,777.67z"/>
	<path class="st4" d="M1045.8,292.28c0,0-22.53,76.36-43.01,96.55c-20.77,20.19-65.25,44.76-59.98,33.06
		c5.27-11.7,31.31-21.36,49.74-54.71c18.43-33.35,30.14-80.17,30.14-80.17s-1.76-8.19,10.53-5.56
		C1045.21,284.38,1045.8,292.28,1045.8,292.28z"/>
	<path class="st4" d="M1118.35,466.37c14.63-14.34,26.92-30.43,37.16-48.28c12.87-22.82,22.82-54.42,26.33-66.42
		c0.88-2.93-0.59-6.14-3.22-7.31l-4.1-2.05c-3.22-1.46-7.02-0.29-8.48,2.93c-0.29,0.29-0.29,0.88-0.59,1.17
		C1160.19,366.89,1142.64,425.99,1118.35,466.37z"/>
	<path class="st1" d="M956.27,361.04c2.05,2.34,21.65,14.92,21.65,14.92s8.48-12,17.26-14.04l-5.27,9.66l27.21,0.29
		c0,0,0,25.75-23.99,31.01c-23.99,5.27-64.95-19.6-64.95-19.6"/>
	<path class="st4" d="M985.82,405.22c-24.28,0-56.76-19.6-58.52-20.48c-0.59-0.29-0.88-1.17-0.59-2.05l0,0
		c0.29-0.59,1.46-0.88,2.05-0.59l0,0c0.29,0.29,40.67,24.58,63.78,19.31c19.6-4.39,22.53-22.82,22.82-28.09l-25.75-0.29
		c-0.59,0-0.88-0.29-1.17-0.88c-0.29-0.59-0.29-0.88,0-1.46l3.51-5.85c-4.97,3.22-9.36,7.02-12.87,12
		c-0.29,0.59-1.46,0.88-2.05,0.29l0,0c-2.05-1.17-19.9-12.87-21.94-15.21c-0.59-0.59-0.59-1.46,0-2.05l0,0
		c0.59-0.59,1.46-0.59,2.05,0l0,0c1.46,1.46,12.58,8.78,20.19,13.75c2.34-3.22,9.66-12,17.26-13.46c0.59,0,1.17,0,1.46,0.59
		s0.29,1.17,0,1.46l-4.1,7.31l24.87,0.29c0.88,0,1.46,0.59,1.46,1.46l0,0c0,0.29,0,27.21-25.16,32.77
		C991.08,405.22,988.45,405.22,985.82,405.22z"/>
	<path class="st1" d="M1177.75,445.01l-17.85-10.83l-4.1-15.8l-8.19,9.36c0,0-12-9.66-19.31-6.14c-5.85,2.93-8.78,18.14-2.93,25.75
		s40.08,25.75,40.08,25.75"/>
	<path class="st4" d="M1165.17,474.56c-0.29,0-0.59,0-0.59-0.29c-1.46-0.88-34.82-18.43-40.67-26.33c-4.1-5.27-4.1-13.46-2.63-18.43
		c0.59-3.8,2.93-7.31,6.14-9.66c7.02-3.22,16.68,2.93,19.9,5.56l7.31-8.19c0.59-0.59,1.46-0.59,2.05,0
		c0.29,0.29,0.29,0.59,0.59,0.88l4.1,15.21l17.26,10.53c0.59,0.29,0.88,1.46,0.59,2.05l0,0c-0.29,0.59-1.17,0.88-2.05,0.59l0,0
		l-17.85-10.83c-0.29-0.29-0.59-0.59-0.59-0.88l-3.22-13.17l-6.44,7.31c-0.59,0.59-1.46,0.59-2.05,0
		c-2.93-2.63-12.29-8.48-17.85-5.85c-2.63,1.76-4.1,4.39-4.68,7.61c-1.46,5.56-0.88,11.12,2.05,16.09
		c5.56,7.31,39.21,25.16,39.79,25.45c0.59,0.29,0.88,1.17,0.59,2.05l0,0C1166.34,474.27,1165.75,474.56,1165.17,474.56z"/>
	<path class="st5" d="M561.58,701.89c-0.29,0-0.59,0-0.88-0.29c-0.59-0.59-0.88-1.46-0.59-2.05l184.91-292.29
		c0.59-0.59,1.46-0.88,2.05-0.59c0.59,0.59,0.88,1.46,0.59,2.05L562.75,701.01C562.75,701.6,562.16,701.89,561.58,701.89z"/>
	<path class="st5" d="M681.24,684.34c-0.29,0-0.29,0-0.59,0c-0.88-0.29-1.17-1.17-0.88-2.05l0,0l99.77-260.4
		c0.29-0.88,1.17-1.17,2.05-0.88l0,0c0.88,0.29,1.17,1.17,0.88,2.05l-99.77,260.1C682.41,684.04,681.83,684.34,681.24,684.34z"/>
	<path class="st5" d="M1077.98,886.22c-0.29,0-0.59,0-0.88-0.29c-0.59-0.29-0.88-1.46-0.59-2.05l162.38-268
		c0.29-0.59,1.46-0.88,2.05-0.59l0,0c0.59,0.59,0.88,1.46,0.59,2.05l-162.09,268C1079.15,885.92,1078.56,886.22,1077.98,886.22z"/>
	<path class="st5" d="M1199.69,876.27h-0.59c-0.88-0.29-1.17-1.17-0.88-2.05c7.61-25.45,75.78-247.52,76.95-249.86
		c0.29-0.88,1.17-1.17,2.05-0.59c0.88,0.29,1.17,1.17,0.88,2.05c-1.46,3.8-50.91,164.72-76.66,249.57
		C1200.86,875.68,1200.28,876.27,1199.69,876.27z"/>
	<path class="st5" d="M1161.95,862.22c-0.29,0-0.29,0-0.59,0c-0.88-0.29-1.17-1.17-0.88-2.05l57.35-142.49
		c0.29-0.88,1.17-1.17,2.05-0.88c0.88,0.29,1.17,1.17,0.88,2.05l0,0l-57.35,142.49C1163.12,861.93,1162.53,862.52,1161.95,862.22z"
		/>
	<path class="st5" d="M646.13,635.48c-0.29,0-0.59,0-0.88-0.29c-0.88-0.29-0.88-1.46-0.59-2.05l0,0l71.1-127.27
		c0.29-0.88,1.46-0.88,2.05-0.59l0,0c0.88,0.29,0.88,1.46,0.59,2.05L647.3,634.6C647.01,635.18,646.72,635.48,646.13,635.48z"/>
	<path class="st5" d="M632.67,731.44c-0.29,0-0.29,0-0.59,0c-0.88-0.29-1.17-1.17-0.88-2.05l0,0l18.43-44.47
		c0.29-0.88,1.17-1.17,2.05-0.88c0.88,0.29,1.17,1.17,0.88,2.05l-18.43,44.47C633.84,731.15,633.26,731.44,632.67,731.44z"/>
	<path class="st5" d="M1110.46,887.68c-0.29,0-0.59,0-0.88-0.29c-0.88-0.29-0.88-1.46-0.59-2.05l0,0l30.43-55.3
		c0.29-0.88,1.46-0.88,2.05-0.59c0.88,0.29,0.88,1.46,0.59,2.05l-30.72,55.3C1111.63,887.39,1111.04,887.68,1110.46,887.68z"/>
</g>
</svg>
