<?xml version="1.0" encoding="utf-8"?>
<!-- Generator: Adobe Illustrator 26.5.0, SVG Export Plug-In . SVG Version: 6.00 Build 0)  -->
<svg version="1.1" id="Layer_1" xmlns="http://www.w3.org/2000/svg" xmlns:xlink="http://www.w3.org/1999/xlink" x="0px" y="0px"
	 viewBox="0 0 1920 1080" style="enable-background:new 0 0 1920 1080;" xml:space="preserve">
<style type="text/css">
	.st0{fill:#E6E7E8;}
	.st1{fill:#FFFFFF;}
	.st2{fill:#231F20;}
	.st3{fill:#0BEEB1;}
	.st4{fill:#282C2B;}
	.st5{fill:#CBDDD8;}
	.st6{fill:#C9DBD6;}
	.st7{fill:#0CECAF;}
</style>
<g>
	<path class="st1" d="M1182.16,302.79c-3.98-2.76-6.13-7.66-5.51-12.56c-4.9,1.23-10.11-1.23-12.56-5.82
		c-2.14-4.59-2.76-9.8-1.84-14.7c-10.72-5.21-15.01-18.07-10.11-28.79c2.45-4.9,6.74-8.88,11.95-10.72
		c-1.23-0.61-2.45-1.84-2.76-3.37c-2.76-9.19,2.76-19.91,11.33-24.5c8.88-4.29,18.99-4.59,28.18-0.92
		c-0.61-2.45,0.61-5.21,2.45-6.74c2.14-1.53,4.29-2.45,7.04-2.76c12.56-2.76,25.42-1.84,37.37,2.76
		c5.82,2.14,11.95,6.43,11.33,12.56c10.11-1.84,19.91,5.21,21.44,15.31c0.92,5.21-0.61,10.41-3.68,14.7
		c8.58,8.27,8.88,22.05,0.61,30.63c-2.76,3.06-6.43,5.21-10.72,6.13c0.31-1.53,2.45-0.31,3.06,1.23
		c3.68,9.19-3.06,20.22-11.64,25.42s-21.44,6.13-28.49-0.92c0,4.9-3.37,9.19-7.96,10.41c-4.59,0.92-9.5,0.92-14.4-0.31
		c-4.59-0.92-8.88-3.37-13.48-4.59C1190.13,304.32,1186.15,305.54,1182.16,302.79z"/>
	<path class="st2" d="M1216.47,312.28c-3.06,0-6.13-0.61-9.19-1.23c-2.45-0.61-4.9-1.53-7.35-2.45c-2.14-0.92-3.98-1.53-6.13-2.14
		c-1.53-0.31-2.76-0.31-4.29-0.31c-3.06,0.31-6.13-0.61-8.58-2.14l0,0c-3.68-2.76-6.13-7.04-6.13-11.95
		c-5.21,0.31-9.8-2.45-12.25-7.04c-2.14-4.59-3.06-9.5-2.14-14.4c-11.03-6.13-15.31-20.22-9.19-31.24c2.14-3.98,5.51-7.35,9.8-9.5
		c-0.61-0.61-0.92-1.53-1.23-2.45c-2.76-9.19,2.45-20.83,11.95-26.34c8.58-4.29,18.38-4.9,27.26-1.84c0.31-2.14,1.53-4.29,3.37-5.51
		c2.14-1.53,4.9-2.76,7.66-3.06c12.86-2.76,26.03-1.84,38.29,2.76c7.35,2.76,11.95,7.35,12.56,12.25
		c11.03-0.92,20.83,7.66,21.75,18.68c0.31,4.59-0.92,8.88-3.37,12.56c8.58,9.5,8.27,23.89-1.23,32.77
		c-1.84,1.84-3.98,3.06-6.43,4.29c0,0,0.31,0.31,0.31,0.61c3.98,10.41-3.37,22.05-12.56,27.26c-8.27,4.9-19.91,6.43-27.87,0.92
		c-1.23,4.29-4.59,7.66-8.88,8.88C1220.45,312.28,1218.61,312.28,1216.47,312.28z M1176.65,288.39c0.31,0,0.61,0,0.92,0.31
		c0.31,0.31,0.61,0.92,0.61,1.23c-0.31,4.29,1.53,8.58,4.9,11.03l0,0c2.14,1.23,4.59,1.84,7.04,1.84c1.53,0,3.06,0.31,4.9,0.61
		c2.14,0.61,4.59,1.23,6.74,2.14c2.14,0.92,4.29,1.84,6.74,2.14c4.29,1.23,8.88,1.53,13.48,0.31c3.98-0.92,6.74-4.59,7.04-8.58
		c0-0.61,0.31-1.23,0.92-1.53c0.61-0.31,1.23-0.31,1.84,0.31c6.74,6.74,18.68,5.51,26.65,0.92c7.96-4.9,14.4-15.01,11.03-23.58
		c0-0.31-0.31-0.31-0.31-0.61l-0.92,0.31c-0.61,0-1.23,0-1.53-0.31c-0.31-0.31-0.61-0.92-0.31-1.53c0.31-0.92,1.23-1.84,2.14-1.84
		c0.31,0,0.61,0,0.92,0c6.13-2.14,11.03-7.35,12.86-13.78c1.84-7.04-0.31-14.7-5.51-19.6c-0.61-0.61-0.61-1.53-0.31-2.14
		c5.82-7.66,4.29-18.38-3.06-24.2c-3.68-2.76-8.58-3.98-13.17-3.37c-0.92,0-1.53-0.61-1.84-1.23v-0.31
		c0.31-4.9-5.21-8.88-10.41-11.03c-11.64-4.29-24.5-5.21-36.45-2.76c-2.14,0.31-4.29,1.23-6.13,2.45c-1.53,1.23-2.45,3.06-2.14,4.9
		c0.31,0.61,0,1.23-0.31,1.53c-0.31,0.31-0.92,0.61-1.53,0.31c-8.58-3.68-18.38-3.37-26.95,0.61c-8.27,4.59-12.86,14.4-10.41,22.67
		c0.31,0.61,0.61,2.14,1.53,2.45c0.61,0.31,1.23,0.61,1.23,1.53c0,0.61-0.31,1.23-0.92,1.53c-10.41,3.68-15.62,15.31-11.64,25.73
		c1.84,4.9,5.51,8.88,10.11,11.03c0.61,0.31,0.92,0.92,0.92,1.53c-0.92,4.59-0.61,9.5,1.53,13.48c2.14,3.98,6.43,6.13,10.72,5.21
		C1176.34,288.7,1176.34,288.7,1176.65,288.39L1176.65,288.39z"/>
	<path class="st3" d="M1163.17,339.23c0,0-52.99,95.26-60.34,111.8c-7.04,16.54,24.5,55.44,36.45,45.94
		S1163.17,339.23,1163.17,339.23z"/>
	<path class="st1" d="M1264.86,836.04c0,0,2.14,14.09-0.92,19.3c-4.29,7.66-6.74,16.23-7.35,24.81c4.9,5.82,12.25,9.19,19.91,9.19
		c12.56,0,25.12-9.8,26.65-14.4c1.53-4.59-10.11-54.21-10.11-54.21L1264.86,836.04z"/>
	<path class="st2" d="M1276.5,890.87c-7.96,0-15.62-3.68-21.13-9.8c-0.31-0.31-0.31-0.61-0.31-0.92c0.61-8.88,3.06-17.46,7.66-25.42
		c2.45-3.98,1.53-14.7,0.92-18.38c0-0.61,0.31-1.23,0.61-1.53l27.87-15.01c0.31-0.31,0.92-0.31,1.23,0
		c0.31,0.31,0.61,0.61,0.92,0.92c1.84,8.27,11.64,50.23,10.11,54.83C1302.84,880.15,1289.67,890.87,1276.5,890.87z M1258.12,879.84
		c4.59,5.21,11.33,8.27,18.38,8.27c11.95,0,23.89-9.19,25.12-13.48c0.92-2.76-4.29-28.18-9.8-51.76l-25.42,13.78
		c0.31,3.37,1.53,14.4-1.23,19.3C1261.19,863.3,1258.74,871.27,1258.12,879.84z"/>
	<path class="st2" d="M1178.49,496.36l60.34,17.46l14.09-179.79c0,0-50.23-12.25-62.18-6.43
		C1178.79,333.41,1178.49,496.36,1178.49,496.36z"/>
	<path class="st2" d="M1238.83,515.35h-0.31l-60.34-17.15c-0.61-0.31-1.23-0.92-1.23-1.53c0-27.57,0.92-164.79,13.17-170.61
		s61.26,5.82,63.4,6.13c0.61,0.31,1.23,0.92,1.23,1.53l-14.09,179.79c0,0.61-0.31,0.92-0.61,1.23
		C1239.75,515.05,1239.44,515.35,1238.83,515.35z M1180.02,495.44l57.58,16.23l13.78-176.73c-14.7-3.37-50.54-10.72-60.03-6.13
		C1184.31,332.19,1180.02,417.03,1180.02,495.44L1180.02,495.44z"/>
	<path class="st1" d="M1198.7,803.58v41.96l-19.6,5.82l0.61-8.58l-8.88,9.19c0,0-52.68,9.8-52.38,2.45
		c0.31-7.35,5.51-11.03,12.25-14.7c7.04-3.98,25.73-14.7,25.73-14.7l2.76-30.94"/>
	<path class="st2" d="M1128.26,858.4c-3.37,0.31-7.04-0.31-10.11-1.84c-0.61-0.61-1.23-1.53-0.92-2.14
		c0.31-7.96,6.43-12.56,12.86-15.93c6.43-3.37,21.75-12.56,25.12-14.4l2.76-30.02c0-0.92,0.92-1.23,1.53-1.23
		c0.92,0,1.23,0.61,1.23,1.53l0,0l-2.76,30.94c0,0.31-0.31,0.92-0.61,1.23c-0.31,0-18.68,11.03-25.73,14.7
		c-7.35,3.68-11.33,7.35-11.33,13.48c1.53,2.76,24.5,0.92,50.23-3.98l8.58-8.88c0.31-0.31,0.92-0.61,1.53-0.31
		c0.61,0.31,0.92,0.92,0.92,1.23l-0.31,6.74l16.54-4.9v-41.04c0-0.92,0.61-1.53,1.23-1.53l0,0c0.92,0,1.53,0.61,1.53,1.53v41.96
		c0,0.61-0.31,1.23-0.92,1.23l-19.6,5.82c-0.31,0-0.92,0-1.23-0.31c-0.31-0.31-0.61-0.61-0.61-1.23l0.31-4.9l-6.13,6.43
		c-0.31,0.31-0.61,0.31-0.92,0.31C1156.74,856.26,1142.65,857.79,1128.26,858.4z"/>
	<path class="st2" d="M1292.43,513.52l16.23,319.77c0,0-1.53,11.64-26.34,13.17c-24.81,1.53-22.05-4.59-22.05-4.59l-38.59-234.62
		l-15.93,208.28l-53.29,3.37l10.72-328.35L1292.43,513.52z"/>
	<path class="st2" d="M1275.28,847.99c-8.88,0-14.09-1.23-15.93-3.68c-0.61-0.61-0.92-1.53-0.61-2.45l-36.45-221.45l-14.7,195.42
		c0,0.92-0.61,1.53-1.53,1.53l-53.29,3.37c-0.31,0-0.92,0-1.23-0.31s-0.61-0.61-0.61-1.23l10.72-328.35c0-0.92,0.61-1.53,1.53-1.53
		h0.31l129.26,22.97c0.61,0,1.23,0.61,1.23,1.53l16.23,319.77c0,0.92-2.14,13.17-27.57,14.7
		C1279.87,847.99,1277.42,847.99,1275.28,847.99z M1261.8,842.47L1261.8,842.47c1.23,1.23,5.21,3.37,20.52,2.45
		c22.97-1.23,24.81-11.64,24.81-11.95l-15.93-318.24l-126.5-22.05l-10.41,324.67l50.23-3.06l15.62-207.05
		c0-0.92,0.61-1.53,1.53-1.53s1.53,0.61,1.53,1.23l38.59,234.62C1261.8,841.86,1261.8,842.17,1261.8,842.47L1261.8,842.47z"/>
	<path class="st3" d="M1242.2,316.57c0,0-20.83,217.16-11.33,229.41c9.19,12.56,66.77,22.36,71.06-1.84
		c7.04-39.82,3.06-182.24-5.21-195.72C1263.02,319.02,1242.2,316.57,1242.2,316.57z"/>
	<path class="st3" d="M1163.17,339.23c0,0-29.71,197.25-24.2,202.77c5.51,5.82,36.14,13.48,44.41,7.66
		c8.27-5.82,19.91-232.17,19.91-232.17C1188.29,320.86,1174.51,328.51,1163.17,339.23z"/>
	<path class="st1" d="M1205.14,313.81l-2.45,21.13c2.76,8.58,11.95,13.48,20.83,11.33c15.93-3.37,16.23-12.56,16.23-12.56
		l2.14-47.48c-0.31-1.23-0.92-2.14-1.53-3.06c-2.45-5.51-5.82-12.86-4.9-18.99c0.92-4.9,3.37-9.5,7.04-12.86
		c-6.74,3.06-14.7,0-17.77-6.74c-0.61-1.23-0.92-2.14-0.92-3.37c0,2.14-1.84,3.68-3.68,4.9c-2.76,2.14-5.82,3.06-9.19,3.06
		c-4.29-0.61-7.66-4.29-11.95-5.82c1.23,3.06,0.31,6.43-2.45,7.96s-5.82,2.14-8.88,1.23c2.14,0.31,0.31,22.97,0.31,24.81
		c-0.31,7.04,0,14.09,0.61,20.83C1189.51,310.44,1205.14,313.81,1205.14,313.81z"/>
	<path class="st2" d="M1218.61,348.12c-13.48,0-17.46-12.86-17.46-12.86c0-0.31,0-0.31,0-0.61l2.45-19.6
		c-3.98-1.23-15.62-5.51-16.85-16.85c-0.61-6.43-0.92-12.86-0.61-19.6v-1.53c0-0.31,0-1.23,0-2.45c0.92-15.01,0.61-19.91,0.31-21.13
		c-0.61-0.31-0.61-0.92-0.61-1.53c0-0.92,0.92-1.23,1.84-1.23l0,0l0,0c2.76,0.61,5.51,0.31,7.66-0.92c2.14-1.23,2.76-3.98,1.84-6.13
		c-0.31-0.61-0.31-1.84,0.61-2.14c0.31-0.31,0.92-0.31,1.23,0c1.84,0.61,3.37,1.84,4.9,2.76c1.84,1.53,3.98,2.45,6.43,3.06
		c3.06,0,5.82-0.92,8.27-2.76c2.14-1.23,3.06-2.45,3.06-3.68c0-0.92,0.61-1.53,1.53-1.53s1.53,0.61,1.53,1.23
		c0.92,6.43,7.04,11.03,13.48,10.11c1.23,0,2.14-0.31,3.06-0.92c0.61-0.31,1.53,0,1.84,0.61c0.31,0.61,0.31,1.53-0.31,1.84
		c-3.37,3.06-5.82,7.35-6.43,11.95c-0.92,5.21,2.14,12.56,4.29,17.46l0.31,0.61c0,0.31,0.31,0.61,0.31,0.92
		c0.61,0.92,1.23,1.84,1.23,3.06c0,0,0,0-2.14,47.78c0,0.31-0.31,10.72-17.46,14.09C1221.98,348.12,1220.14,348.42,1218.61,348.12z
		 M1203.91,334.64c2.76,7.66,10.72,12.25,18.68,10.11c14.4-3.06,15.01-11.03,15.01-11.33c0-0.31,2.14-46.86,2.14-47.48
		c0,0-0.61-0.92-0.92-1.23c-0.31-0.31-0.61-0.61-0.61-1.23l-0.31-0.61c-2.45-5.51-5.82-12.86-4.59-19.3
		c0.61-3.68,2.14-7.04,3.98-9.8c-2.76,0.31-5.82-0.31-8.27-1.84c-2.76-1.53-5.21-3.98-6.43-7.04c-0.92,0.92-1.53,1.53-2.45,2.14
		c-3.06,2.14-6.74,3.37-10.41,3.06c-2.76-0.61-5.51-1.84-7.96-3.37l-1.53-1.23c-0.31,2.76-1.53,4.9-3.68,6.43
		c-2.14,1.53-4.9,2.14-7.66,1.84c0.31,6.74,0.31,13.78-0.31,20.52c0,1.23,0,1.84,0,2.45v1.53c-0.31,6.43,0,12.86,0.61,18.99
		c1.23,11.33,15.62,14.7,15.93,14.7c0.92,0.31,1.23,0.92,1.23,1.84L1203.91,334.64z M1186.76,253.78"/>
	<path class="st2" d="M1205.14,313.81c0,0,12.56,0,18.07-3.37c0,0-4.9,14.4-18.38,18.07L1205.14,313.81z"/>
	<path class="st2" d="M1204.83,330.05c-0.31,0-0.61,0-0.92-0.31c-0.31-0.31-0.61-0.61-0.61-1.23l0.31-14.7
		c0-0.92,0.61-1.53,1.53-1.53l0,0c0.61,0,11.95,0,17.46-3.06c0.61-0.31,1.23-0.31,1.84,0c0.61,0.31,0.61,1.23,0.61,1.84
		c-0.31,0.61-5.21,15.31-19.3,18.99L1204.83,330.05z M1206.67,315.34v11.03c5.82-2.45,10.72-7.04,13.78-12.86
		C1215.86,314.73,1211.26,315.34,1206.67,315.34L1206.67,315.34z"/>
	<path class="st2" d="M1308.97,492.07L1308.97,492.07c-2.14-0.31-49.31-5.82-64.32-14.09c-0.61-0.31-0.92-1.23-0.61-2.14l0,0
		c0.31-0.61,1.23-0.92,2.14-0.61c14.4,7.96,62.79,13.78,63.1,13.78c0.92,0,1.53,0.92,1.53,1.53
		C1310.5,491.46,1309.89,492.07,1308.97,492.07z"/>
	<path class="st3" d="M1296.41,348.73c0,0,93.73,133.54,53.6,168.16c-36.76,31.55-118.23-20.83-118.23-20.83l4.9-44.41
		c0,0,64.32,35.84,65.55,19.3c1.53-24.5-30.02-58.2-30.02-58.2c-5.82-11.03-6.74-23.89-2.76-35.53
		C1273.13,363.74,1283.24,353.02,1296.41,348.73z"/>
	<path class="st2" d="M1150,456.54L1150,456.54c-0.92,0-1.53-0.92-1.23-1.84l0,0c2.76-19.3,16.85-93.42,16.85-94.34
		c0.31-0.92,0.92-1.23,1.84-1.23c0.92,0.31,1.53,0.92,1.23,1.84c-0.31,0.61-14.09,74.74-16.85,94.03
		C1151.84,455.93,1150.92,456.54,1150,456.54z"/>
	<path class="st1" d="M1137.14,515.05h93.42c6.43,0,11.64-5.51,11.64-11.95c0-0.92,0-1.53-0.31-2.45l-19.91-96.18
		c-1.23-5.82-6.13-9.8-11.95-9.8h-92.19c-6.74,0-12.25,5.82-12.25,12.56c0,0.92,0,1.53,0.31,2.45l19.91,95.87
		C1126.72,511.06,1131.62,515.05,1137.14,515.05z"/>
	<path class="st2" d="M1230.56,516.58h-93.42c-6.13,0-11.33-4.59-12.56-10.41l-19.91-95.87c-0.92-4.29,0.31-8.58,2.76-11.95
		c2.45-3.06,6.43-4.9,10.41-4.9h92.19c6.43,0,11.95,4.59,13.17,11.03l19.91,96.18c0.92,3.98,0,7.96-2.76,11.33
		C1238.21,514.74,1234.54,516.58,1230.56,516.58z M1117.84,396.2c-3.06,0-6.13,1.53-8.27,3.98c-2.14,2.76-3.06,6.13-2.45,9.19
		l19.91,95.87c0.92,4.59,4.9,8.27,9.8,8.27h93.42c3.06,0,5.82-1.53,7.66-3.68c2.14-2.45,2.76-5.82,2.14-8.88l-19.91-96.18
		c-0.92-4.9-5.51-8.58-10.41-8.88L1117.84,396.2z"/>
	<path class="st1" d="M1249.85,466.96c0.61-3.37,0.31-6.74-0.61-10.11c-0.92-2.14-2.45-4.29-3.98-5.82
		c-3.06-3.06-6.13-6.13-9.19-8.88c-3.06-2.45-6.74-4.9-10.41-3.98c1.23,5.51,4.29,10.41,8.88,13.78c-1.53-1.84-3.37-3.06-5.82-3.68
		c-1.53-0.61-3.37-0.31-3.98,1.23c-0.31,0.92-0.31,2.14,0.31,2.76c1.84,3.98,4.29,7.35,7.66,9.8l-3.68-2.45
		c-0.92-0.61-1.84-1.23-3.06-1.23c-1.23-0.31-2.14,0.31-2.76,1.53c-0.31,0.92,0,1.84,0.31,2.45c0.92,2.14,2.45,4.29,4.59,5.51
		c-1.23-1.23-2.76-1.84-4.59-2.14c-1.84-0.31-3.37,0.92-3.98,2.45c0,0.92,0,1.84,0.61,2.76c2.76,5.21,9.19,5.82,12.25,10.41
		c2.45,3.37,1.23,7.04,5.82,8.88C1249.55,495.14,1249.24,474,1249.85,466.96z"/>
	<path class="st2" d="M1241.28,492.69c-1.23,0-2.76-0.31-3.98-0.92c-2.76-1.23-4.59-3.37-5.21-6.13c-0.31-1.23-0.92-2.14-1.53-3.06
		c-1.53-1.84-3.06-3.06-5.21-3.98c-3.06-1.53-5.51-3.68-7.04-6.43c-0.61-1.23-0.92-2.45-0.61-3.68c0.61-2.14,2.45-3.68,4.59-3.68
		c-0.31-0.31-0.31-0.92-0.61-1.23c-0.61-1.23-0.61-2.45-0.31-3.68c0.61-1.53,2.14-2.45,3.68-2.45c-0.92-1.23-1.53-2.45-2.14-3.98
		c-0.61-1.23-0.92-2.76-0.31-3.98c0.61-1.53,2.45-2.45,3.98-2.14c-1.53-2.45-2.45-5.21-3.06-7.96c-0.31-0.92,0-1.84,0.92-2.14l0,0
		c4.59-0.92,8.58,1.84,11.64,4.29c3.37,2.76,6.43,5.82,9.5,8.88c1.84,1.84,3.37,3.98,4.59,6.13c1.23,3.37,1.53,7.04,0.92,10.72l0,0
		c0,0.92,0,2.14-0.31,3.37c-0.31,7.04-0.92,18.07-6.13,21.13C1243.73,492.07,1242.5,492.38,1241.28,492.69z M1222.9,467.26
		c-0.92,0-1.53,0.31-2.14,1.23c0,0.61,0,1.23,0.31,1.84c1.53,2.14,3.37,3.98,5.82,5.21c2.45,1.23,4.59,2.76,6.13,4.9
		c0.92,1.23,1.53,2.45,1.84,3.98c0.31,2.14,1.53,3.68,3.37,4.29c1.53,0.92,3.06,0.92,4.59,0c3.98-2.45,4.59-13.17,4.9-18.68
		c0-1.23,0-2.45,0.31-3.37c0.61-3.06,0.31-6.43-0.61-9.19c-0.92-2.14-2.14-3.98-3.68-5.51c-3.06-3.06-6.13-5.82-9.19-8.58
		c-2.14-1.84-4.59-3.37-7.35-3.68c0.92,3.37,2.76,6.43,5.21,8.88c1.23,0.61,2.14,1.53,3.06,2.76c0.61,0.61,0.61,1.53,0,2.14
		c-0.61,0.61-1.53,0.61-2.14,0.31c-0.92-0.61-2.14-1.53-3.06-2.45c-0.61-0.31-1.53-0.92-2.45-0.92c-0.92-0.31-2.14-0.31-2.14,0.31
		c0,0.61,0,1.23,0.31,1.53c1.53,3.68,3.98,6.74,7.35,9.19c0.61,0.61,0.92,1.53,0.31,2.14l0,0c-0.61,0.61-1.53,0.92-2.14,0.31
		l-3.68-2.14c-0.61-0.61-1.53-0.92-2.45-1.23c-0.31,0-0.92,0-1.23,0.31c0,0.61,0,0.92,0.31,1.23c0.61,1.84,1.84,3.37,3.68,4.59
		l0.31,0.31c0.61,0.61,0.92,1.53,0.31,2.14l0,0c-0.61,0.61-1.53,0.92-2.14,0.31l-0.31-0.31c-0.92-0.92-2.14-1.53-3.37-1.53V467.26z
		 M1249.85,466.96"/>
	<path class="st1" d="M1107.43,460.22c0.61-6.43,2.45-13.48,7.96-16.85c3.37-1.84,7.66-2.14,11.03-0.31
		c0.61,0.31,1.23,0.92,1.23,1.53c0.31,0.92-0.61,1.84-1.53,2.45c-1.84,1.23-3.68,1.84-5.82,2.45c3.37-0.31,6.74,1.53,7.96,4.9
		c-2.14,2.45-4.9,3.98-7.96,4.29c2.14-0.61,4.29,0.31,5.51,1.84c2.14,3.06,0.31,3.68-1.84,5.51c0.92-0.31,1.84,0,2.76,0.31
		c0.92,0.31,1.53,1.53,1.53,2.45c-0.31,1.84-2.45,2.45-3.98,3.37c-1.23,0.92-2.14,1.84-2.76,3.37c-0.31,0.92-0.31,1.53-0.92,2.45
		c-3.06,5.51-10.11,0.92-11.64-3.06C1107.73,470.33,1107.12,465.12,1107.43,460.22z"/>
	<path class="st2" d="M1117.23,481.97h-0.31c-3.68-0.61-7.04-3.06-8.58-6.43c-1.84-4.9-2.45-10.41-2.14-15.62l0,0
		c0.31-6.13,2.14-14.4,8.58-18.07c3.98-2.14,8.58-2.45,12.56-0.31c0.92,0.31,1.84,1.23,2.14,2.45c0.31,0.92,0,2.45-2.14,3.98
		l-1.23,0.92c1.84,0.92,3.37,2.76,4.29,4.59c0.31,0.61,0,1.23-0.31,1.53c-0.92,1.23-2.14,2.14-3.68,3.06
		c0.61,0.31,0.92,0.92,1.23,1.53c1.53,2.45,1.53,3.98,0.61,5.21l0,0c1.53,0.61,2.45,2.14,2.45,3.98c-0.31,2.45-2.14,3.37-3.68,3.98
		l-0.92,0.61c-0.92,0.61-1.84,1.53-2.14,2.45c0,0.31-0.31,0.61-0.31,0.61c0,0.61-0.31,1.23-0.61,1.84
		C1121.52,480.74,1119.37,481.97,1117.23,481.97z M1108.96,460.22c-0.31,4.9,0.31,9.5,1.84,14.09c1.23,2.45,3.37,3.98,6.13,4.59
		c1.23,0,2.45-0.61,2.76-1.84c0.31-0.31,0.31-0.92,0.31-1.23c0-0.31,0.31-0.61,0.31-0.92c0.61-1.84,1.84-3.37,3.37-4.29l1.23-0.61
		c1.23-0.61,1.84-0.92,2.14-1.53c0.31-0.61-0.31-0.61-0.61-0.92c-0.61-0.31-1.23-0.31-1.84-0.31c-0.92,0-1.53-0.61-1.84-1.23
		c0-0.61,0-1.23,0.61-1.53l0.61-0.61c1.84-1.53,1.84-1.53,0.92-2.76c-0.92-1.53-2.14-1.53-3.98-1.23c-0.92,0-1.53-0.31-1.84-1.23
		l0,0c0-0.92,0.61-1.53,1.23-1.84c2.45-0.31,4.59-1.53,6.13-3.06c-1.23-2.14-3.68-3.37-5.82-3.06c-0.92,0-1.53-0.31-1.84-1.23
		c-0.31-0.92,0.31-1.53,1.23-1.84c1.84-0.61,3.68-1.23,5.51-2.45c0.61-0.31,0.92-0.61,0.92-0.92l-0.61-0.31
		c-3.06-1.53-6.74-1.53-9.49,0.31C1110.8,447.66,1109.27,454.71,1108.96,460.22L1108.96,460.22z"/>
	<path class="st2" d="M1188.29,280.73c-6.43,0-11.64-5.21-11.64-11.64c0-6.43,5.21-11.64,11.64-11.64s11.64,5.21,11.64,11.64
		C1199.93,275.83,1194.72,280.73,1188.29,280.73z M1188.29,260.82c-4.59,0-8.27,3.68-8.27,8.27s3.68,8.27,8.27,8.27
		c4.59,0,8.27-3.68,8.27-8.27C1196.87,264.8,1193.19,261.13,1188.29,260.82z"/>
	<path class="st2" d="M1214.02,280.73c-6.43,0-11.64-5.21-11.64-11.64c0-6.43,5.21-11.64,11.64-11.64c6.43,0,11.64,5.21,11.64,11.64
		C1225.66,275.83,1220.45,280.73,1214.02,280.73L1214.02,280.73z M1214.02,260.82c-4.59,0-8.27,3.68-8.27,8.27s3.68,8.27,8.27,8.27
		c4.59,0,8.27-3.68,8.27-8.27S1218.61,260.82,1214.02,260.82L1214.02,260.82z"/>
	<path class="st2" d="M1204.22,270.93h-5.82c-0.92,0-1.53-0.61-1.53-1.53c0-0.92,0.61-1.53,1.53-1.53h5.82
		c0.92,0,1.53,0.61,1.53,1.53C1205.75,270.32,1204.83,270.93,1204.22,270.93z"/>
	<path class="st2" d="M1246.79,277.06h-0.31l-22.97-6.13c-0.92-0.31-1.23-1.23-1.23-1.84c0.31-0.92,1.23-1.23,1.84-1.23l22.97,6.13
		c0.92,0.31,1.23,1.23,1.23,1.84C1248.32,276.75,1247.71,277.06,1246.79,277.06z"/>
	<path class="st1" d="M1234.23,279.2c0.61-2.14,1.84-4.29,3.68-5.51c2.76-2.45,6.43-3.37,10.11-2.76c3.68,1.53,5.82,5.51,5.21,9.19
		c-0.61,5.21-3.98,9.8-8.88,11.95c-3.06,1.23-6.74,0.92-9.8-0.61"/>
	<path class="st2" d="M1240.05,294.21c-2.14,0-4.29-0.61-6.13-1.53c-0.61-0.31-1.23-1.23-0.61-2.14l0,0
		c0.31-0.92,1.23-1.23,2.14-0.61l0,0c2.76,1.23,5.82,1.53,8.58,0.61c4.29-1.84,7.35-5.82,7.66-10.72c0.61-3.06-1.23-6.43-3.98-7.66
		c-3.06-0.31-6.43,0.61-8.58,2.45c-1.53,1.23-2.76,2.76-3.06,4.9c-0.31,0.92-1.23,1.23-1.84,1.23c-0.92-0.31-1.23-1.23-1.23-1.84
		c0.61-2.45,2.14-4.59,4.29-6.13c3.06-2.76,7.35-3.68,11.33-3.06c4.29,1.84,7.04,6.43,6.13,11.03c-0.61,5.82-4.29,11.03-9.8,13.17
		C1243.42,294.21,1241.58,294.52,1240.05,294.21z"/>
	<path class="st2" d="M1292.74,475.84c-14.4,0-35.22-11.64-38.29-13.17c-0.61-0.31-0.92-1.53-0.61-2.14
		c0.31-0.61,1.53-0.92,2.14-0.61c10.11,5.82,37.67,18.68,45.03,10.11c7.35-8.58-14.7-51.15-23.58-66.77c-0.31-0.92,0-1.84,0.92-2.14
		c0.61-0.31,1.53,0,1.84,0.61c3.37,5.82,33.69,58.5,23.28,70.45C1300.39,474.62,1296.72,476.15,1292.74,475.84z"/>
	<path class="st2" d="M1303.46,528.83L1303.46,528.83c-23.28-3.37-52.99-21.75-54.52-22.36c-0.61-0.31-0.92-1.53-0.61-2.14l0,0
		c0.31-0.61,1.23-0.92,2.14-0.61l0,0c0.31,0.31,30.63,18.68,52.99,22.05c0.92,0,1.53,0.92,1.23,1.53l0,0
		C1304.99,528.22,1304.37,528.52,1303.46,528.83z"/>
	
		<rect x="580.24" y="571.26" transform="matrix(0.229 -0.9734 0.9734 0.229 -127.4954 1092.4226)" class="st1" width="91.27" height="110.88"/>
	<path class="st2" d="M669.43,685.35h-0.31L561,659.92c-0.61-0.31-1.23-0.92-0.92-1.53l0,0l20.83-88.83
		c0.31-0.61,0.92-1.23,1.84-0.92l108.12,25.42c0.31,0,0.61,0.31,0.92,0.61s0.31,0.61,0.31,1.23l-20.83,88.83
		c0,0.31-0.31,0.61-0.61,0.92C670.04,685.35,669.73,685.35,669.43,685.35z M563.14,657.47l105.36,24.81l20.22-86.07L583.36,571.4
		L563.14,657.47z"/>
	<path class="st1" d="M647.99,552.41c0,0-1.84,45.94-6.43,43.19c-6.13-3.68-3.68-14.09-3.68-14.09l-21.13-4.59
		c0,0,8.88-30.32,9.5-31.55C626.85,544.45,647.99,552.41,647.99,552.41z"/>
	<path class="st2" d="M641.86,597.13c-0.31,0-0.92,0-1.23-0.31c-5.82-3.37-5.21-11.03-4.59-14.4l-19.6-4.29
		c-0.31,0-0.61-0.31-0.92-0.61c0-0.31,0-0.61,0-1.23c3.37-11.33,9.19-30.63,9.8-31.85c0.61-0.92,1.23-2.14,23.58,6.43
		c0.61,0.31,0.92,0.61,0.92,1.23c-0.61,12.56-2.14,41.96-6.43,44.41C642.78,597.13,642.17,597.13,641.86,597.13z M618.58,576
		l19.6,3.98c0.31,0,0.61,0.31,0.92,0.61c0,0.31,0,0.61,0,1.23c0,0-2.14,9.19,2.45,12.56c2.14-3.06,3.98-22.97,4.9-40.74
		c-7.96-3.06-16.54-6.13-19.3-6.43C625.93,550.58,621.65,565.28,618.58,576z"/>
	<path class="st1" d="M680.45,810.31c0,0-1.84,28.79-1.53,39.51c0,11.03,0,21.13,12.86,18.68c7.04-1.23,45.33-11.03,41.66-18.07
		c-3.37-7.04-28.49-8.88-28.49-8.88l2.14-32.77"/>
	<path class="st2" d="M688.11,870.35c-2.45,0-4.59-0.61-6.43-2.14c-4.29-3.37-4.29-10.41-4.29-18.07v-0.31
		c0-10.72,1.53-39.51,1.53-39.82c0-0.92,0.61-1.23,1.53-1.23l0,0c0.61,0,1.23,0.61,1.23,1.53l0,0c0,0.31-1.84,28.79-1.53,39.51v0.31
		c0,6.74,0,13.17,3.37,15.93c2.45,1.53,5.21,1.84,7.66,1.23c8.88-1.53,37.98-9.8,40.74-15.31c0.31-0.31,0.31-0.61,0-0.92
		c-2.45-4.59-17.77-7.35-27.26-8.27c-0.92,0-1.23-0.61-1.23-1.53l2.14-32.77c0-0.92,0.61-1.23,1.53-1.23c0.92,0,1.23,0.61,1.23,1.53
		l-2.14,31.55c5.82,0.61,24.81,2.76,27.87,9.5c0.61,0.92,0.61,2.45,0,3.37c-4.29,8.58-42.27,16.54-42.57,16.85
		C690.56,870.35,689.34,870.35,688.11,870.35z"/>
	<path class="st1" d="M769.89,813.68c0,0-1.84,28.79-1.53,39.51c0,11.03,0,21.13,12.86,18.68c7.04-1.23,48.09-7.96,44.72-15.01
		c-3.37-7.04-31.24-11.95-31.24-11.95l2.14-32.77"/>
	<path class="st2" d="M777.55,873.72c-2.45,0-4.59-0.61-6.43-2.14c-4.29-3.37-4.29-10.41-4.29-18.07v-0.61
		c0-10.72,1.53-39.51,1.53-39.82c0-0.92,0.61-1.23,1.53-1.23c0.61,0,1.23,0.61,1.23,1.53l0,0c0,0.31-1.84,28.79-1.53,39.51v0.31
		c0,6.74,0,13.17,3.37,15.93c2.45,1.53,5.21,1.84,7.66,1.23l2.14-0.31c32.16-5.51,40.43-9.5,41.35-11.95c0-0.31,0-0.31,0-0.61
		c-2.45-4.59-19.91-9.19-30.32-11.33c-0.61,0-1.23-0.92-1.23-1.53l2.14-32.77c0-0.92,0.61-1.23,1.53-1.23s1.23,0.61,1.23,1.53
		l-2.14,31.55c5.82,1.23,27.87,5.51,31.24,12.56c0.61,0.92,0.61,2.14,0,3.06c-2.14,4.59-15.62,8.58-43.49,13.48l-2.14,0.31
		C780,873.72,778.77,873.72,777.55,873.72z"/>
	<path class="st2" d="M676.78,485.95c0,0-8.88,305.99-4.29,332.33c0,0,18.07,20.22,41.04,10.11l29.4-248.1l15.62,248.1
		c0,0,15.01,14.7,46.25-9.8V475.53L676.78,485.95z"/>
	<path class="st2" d="M772.34,834.2c-5.21,0.31-10.72-1.53-14.7-4.9c-0.31-0.31-0.31-0.61-0.61-0.92l-14.4-230.95l-27.26,231.25
		c0,0.61-0.31,0.92-0.92,1.23c-23.89,10.41-42.88-10.41-42.88-10.41c-0.31-0.31-0.31-0.61-0.31-0.92
		c-4.59-26.03,3.68-320.08,4.29-332.63c0-0.92,0.61-1.53,1.53-1.53l128.03-10.72c0.92,0,1.53,0.61,1.53,1.53l0,0v343.35
		c0,0.61-0.31,0.92-0.61,1.23C791.33,830.84,780.31,834.2,772.34,834.2z M760.4,827.47c2.45,2.14,16.23,11.03,42.88-9.8v-340.9
		l-124.97,10.72c-0.61,22.36-8.58,302.62-4.29,330.18c2.45,2.45,18.07,18.07,38.29,9.8l29.4-247.18c0-0.92,0.61-1.53,1.53-1.23l0,0
		c0.92,0,1.53,0.61,1.53,1.53L760.4,827.47z"/>
	<path class="st1" d="M937.74,353.94c0,0,17.15-9.5,18.38-10.72c1.23-0.92,7.04-16.85,8.27-17.77c1.23-0.92,3.37-2.76,4.29-0.61
		c0.92,2.14-0.92,14.4-0.92,14.4s20.83-16.23,22.36-15.62c1.53,0.92,2.45,2.76-0.61,7.35c-3.06,3.68-6.43,6.74-10.41,9.19
		c0,0,7.35,8.27,6.13,11.03c-1.23,2.76-29.1,21.44-29.1,21.44"/>
	<path class="st2" d="M955.81,374.15c-0.61,0-0.92-0.31-1.23-0.61c-0.31-0.61-0.31-1.53,0.31-1.84l0,0
		c13.17-8.88,27.57-18.99,28.49-20.83c0.31-0.92-2.45-5.51-6.13-9.5c-0.31-0.31-0.31-0.61-0.31-1.23c0-0.31,0.31-0.92,0.61-0.92
		c3.68-2.45,7.04-5.21,10.11-8.58c1.84-2.76,1.84-3.98,1.84-4.59c0-0.31-0.31-0.31-0.31-0.61c-7.35,4.59-14.4,9.5-21.13,15.01
		c-0.61,0.31-1.23,0.31-1.53,0c-0.61-0.31-0.92-0.92-0.61-1.53c0.92-4.59,1.23-8.88,0.92-13.48c-0.31,0-0.92,0.31-1.84,1.23
		c-0.61,0.92-1.84,4.29-3.06,7.04c-3.06,7.66-4.29,10.11-5.21,10.72s-15.62,9.19-18.68,10.72c-0.61,0.31-1.53,0-1.84-0.61
		c-0.31-0.61,0-1.53,0.61-1.84c6.43-3.68,17.15-9.8,18.07-10.72c1.53-3.06,3.06-6.43,4.29-9.8c0.92-2.76,2.14-5.51,3.68-7.96
		c0.61-0.61,2.45-2.45,4.59-2.14c0.92,0.31,1.84,0.92,2.14,1.84c0.31,3.98,0.31,7.66-0.31,11.64c18.99-14.7,20.52-14.09,21.44-13.48
		c0.92,0.61,1.84,1.53,1.84,2.76c0.31,2.45-0.61,4.9-2.45,6.74c-2.76,3.37-5.82,6.13-9.19,8.58c2.76,3.06,6.43,8.58,5.51,11.33
		c-0.92,2.76-21.13,16.54-29.71,22.36C956.12,373.85,956.12,373.85,955.81,374.15z"/>
	<path class="st3" d="M790.11,336.78c0,0-30.32-9.8-109.65,5.51c-13.78,2.76-20.22,131.4-9.8,208.89l139.36-1.23
		C810.02,549.66,832.99,347.5,790.11,336.78z"/>
	<path class="st3" d="M675.25,323.31c0,0-30.02,96.48-32.16,105.06c-1.84,8.58-22.36,121.9-22.36,121.9l31.55,10.72
		c0,0,45.94-105.98,42.88-135.99C692.4,395.29,675.25,323.31,675.25,323.31z"/>
	<path class="st3" d="M787.66,336.78c24.2,2.45,74.74,60.65,78.72,59.11c3.98-1.84,78.72-52.99,78.72-52.99l23.58,25.73
		c0,0-72.29,83.92-86.99,92.81c-22.67,13.48-118.84-48.09-118.84-48.09S763.46,334.33,787.66,336.78z"/>
	<path class="st1" d="M637.88,581.82c0,0-9.8-5.21-5.51-14.4"/>
	<path class="st2" d="M637.88,583.35c-0.31,0-0.61,0-0.61-0.31c-3.68-2.14-9.8-7.96-6.13-16.23c0.31-0.61,1.23-0.92,1.84-0.61
		c0.61,0.31,0.92,1.23,0.61,1.84c-3.68,7.66,4.59,12.56,4.9,12.56c0.61,0.31,0.92,1.23,0.61,1.84
		C638.8,583.04,638.19,583.35,637.88,583.35L637.88,583.35z"/>
	<path class="st2" d="M861.17,463.59L861.17,463.59c-15.62-3.06-45.33-20.83-84.23-49.62l-1.84-1.23c-0.61-0.31-0.92-1.23-0.31-1.84
		c0.31-0.61,1.23-0.92,1.84-0.31c0.61,0.31,1.23,0.92,1.84,1.53c38.59,28.79,68,46.25,82.7,49.31c0.92,0.31,1.23,0.92,1.23,1.53
		C862.09,462.98,861.78,463.59,861.17,463.59z"/>
	<path class="st2" d="M780,277.06c-5.51,0-10.11-4.59-10.11-10.11c0-5.51,4.59-10.11,10.11-10.11c5.51,0,10.11,4.59,10.11,10.11
		C790.11,272.77,785.51,277.06,780,277.06L780,277.06z M780,259.9c-3.98,0-7.04,3.06-7.04,7.04s3.06,7.04,7.04,7.04
		s7.04-3.06,7.04-7.04S783.98,259.9,780,259.9L780,259.9z"/>
	<path class="st1" d="M774.18,252.25c6.74,5.82,4.29,17.46,3.68,25.12c-0.61,10.72-1.23,21.44-2.14,32.16
		c-0.61,6.74-18.38,6.13-21.44,3.98l3.68,17.15l-38.59-5.51l2.45-22.36c0,0-2.45-31.24,4.9-44.72c4.29-7.96,12.86-12.86,22.05-12.56
		C749.06,245.81,767.75,246.43,774.18,252.25z"/>
	<path class="st2" d="M758.25,332.5L758.25,332.5l-38.9-5.51c-0.92,0-1.53-0.92-1.23-1.84l2.45-22.36c0-0.92-2.45-31.24,5.21-45.33
		c4.59-8.58,13.78-13.78,23.58-13.17c0.61,0,19.3,0.61,26.03,6.74c6.13,5.51,5.21,14.7,4.59,22.36c0,1.53-0.31,2.76-0.31,3.98
		c-0.61,10.72-1.23,21.75-2.14,32.47c-0.31,2.45-1.84,4.59-4.29,5.21c-5.21,1.84-11.03,2.45-16.54,1.23l3.06,14.4
		c0,0.61,0,0.92-0.31,1.23C759.17,332.19,758.56,332.5,758.25,332.5z M721.19,323.92l34.92,5.21l-3.06-15.01
		c0-0.61,0-1.23,0.61-1.53c0.61-0.31,1.23-0.31,1.84,0c5.51,1.53,11.03,1.53,16.54-0.31c1.53-0.61,2.45-1.53,2.45-2.76
		c0.92-10.72,1.84-21.44,2.14-32.16c0-1.23,0.31-2.76,0.31-4.29c0.61-6.74,1.23-15.62-3.68-19.6l0,0
		c-5.82-5.21-23.89-5.82-24.2-5.82c-8.58-0.31-16.54,3.98-20.83,11.64c-7.04,13.17-4.9,43.49-4.9,43.8L721.19,323.92z"/>
	<path class="st1" d="M712,330.35l3.68-11.64l47.48,4.59l2.76,10.72C748.15,341.07,728.54,339.54,712,330.35z"/>
	<path class="st2" d="M743.24,339.85c-11.03,0-22.05-2.76-31.85-8.27c-0.61-0.31-0.92-1.23-0.61-1.84l3.37-11.64
		c0.31-0.61,0.92-1.23,1.53-1.23l47.48,4.59c0.61,0,1.23,0.61,1.23,1.23l2.76,10.72c0.31,0.61-0.31,1.53-0.92,1.84
		C759.17,338.62,751.21,340.15,743.24,339.85z M714.15,329.74c15.62,7.96,33.69,9.19,49.93,3.37l-2.14-8.58l-45.03-4.29
		L714.15,329.74z"/>
	<path class="st1" d="M735.28,305.85c0,18.38,18.38,55.44,2.76,69.83c-14.7,13.78-40.43,17.15-59.42,15.01
		c-27.87-3.06-42.57-22.36-30.94-49.62c5.51-13.17,15.62-24.2,23.89-36.14c7.35-10.41,13.48-21.75,18.07-33.39
		c3.98-10.11,7.04-21.75,12.56-31.24c12.25-20.52,34-28.79,56.66-22.05c9.8,2.76,28.49,14.7,23.89,27.26
		c-1.23,3.06-4.9,7.66-7.96,6.43c-0.92,6.13-4.9,8.88-9.5,12.86c-4.9,3.68-10.11,7.04-15.31,10.11c-3.68,2.14-6.74,4.9-9.19,8.27
		c-2.76,4.59-4.29,9.8-4.59,15.31C735.28,300.95,735.28,303.4,735.28,305.85z"/>
	<path class="st2" d="M688.72,392.84c-3.37,0-7.04-0.31-10.41-0.61c-15.01-1.53-26.65-7.96-32.47-17.77s-5.51-21.13,0-34.3
		c4.59-9.5,10.11-18.68,16.85-26.95c2.45-3.06,4.59-6.13,7.04-9.5c7.04-10.41,13.17-21.44,18.07-33.08
		c1.23-3.37,2.45-6.74,3.68-10.41c2.45-7.35,5.21-14.09,8.88-20.83c11.64-20.52,36.14-30.02,58.5-22.67
		c7.35,2.14,19.6,9.19,23.89,18.07c1.84,3.37,2.14,7.66,0.92,11.33c-1.23,3.06-3.37,5.82-6.13,7.35c-0.61,0.31-1.23,0.31-1.84,0.61
		c-1.23,5.21-4.9,8.27-9.19,11.64l-0.61,0.61c-3.37,2.45-6.74,4.9-10.11,6.74c-1.84,0.92-3.37,2.14-5.21,3.06
		c-3.37,2.14-6.43,4.9-8.88,8.27c-2.45,4.29-3.98,9.5-4.29,14.4c-0.31,2.45-0.31,4.59-0.31,7.04l0,0c0.61,7.35,1.84,14.7,3.98,22.05
		c4.59,18.07,9.19,38.59-1.84,49.01C725.79,388.85,705.57,392.84,688.72,392.84z M743.24,217.64c-16.54,0-31.85,8.88-40.12,23.58
		c-3.68,6.43-6.43,13.17-8.58,20.22c-1.23,3.37-2.45,7.35-3.98,10.41c-4.9,11.95-11.03,23.28-18.38,33.69
		c-2.14,3.06-4.59,6.43-7.04,9.5c-6.43,7.96-12.25,16.85-16.54,26.34c-4.9,11.95-5.21,22.97,0,31.24
		c5.21,8.88,15.93,14.7,30.02,16.23c17.46,1.84,43.19-0.92,58.5-14.7c10.11-9.19,5.21-28.79,0.92-45.94
		c-2.14-7.35-3.68-15.01-3.98-22.67l0,0c0-2.45,0-4.9,0.31-7.35c0.31-5.51,1.84-11.03,4.9-15.93c2.76-3.68,5.82-6.43,9.8-8.88
		c1.84-1.23,3.37-2.14,5.21-3.37c3.37-1.84,6.74-4.29,9.8-6.74l0.61-0.61c4.29-3.68,7.66-6.13,8.27-11.33
		c0-0.92,0.92-1.53,1.84-1.23h0.31c0.31,0.31,0.92,0.31,1.23,0c2.14-1.23,3.68-3.06,4.59-5.51c0.92-3.06,0.61-6.13-0.92-8.88
		c-3.98-7.96-15.62-14.4-22.05-16.23C753.05,218.55,748.15,217.64,743.24,217.64z"/>
	<path class="st2" d="M731.3,280.12h-0.31c-0.92-0.31-1.23-1.23-1.23-1.84c1.53-5.82,3.06-5.82,3.68-5.82
		c0.61,0,36.45-4.59,54.83-6.74c0.92,0,1.53,0.61,1.84,1.23c0,0.92-0.61,1.53-1.23,1.84c-5.21,0.61-49.01,6.13-54.52,6.74
		c-0.61,1.23-0.92,2.45-1.53,3.68C732.52,279.81,731.91,280.12,731.3,280.12z M733.75,275.22"/>
	<path class="st1" d="M754.88,279.81c-0.31-2.76-1.23-5.21-2.76-7.66c-0.92-1.84-2.14-3.68-3.68-4.9c-1.53-1.53-3.68-2.14-5.82-1.84
		c-1.84,0.31-3.37,1.53-4.29,3.06c-0.92,1.53-1.53,3.37-1.53,5.21c-0.61,8.27,3.06,16.23,9.8,20.83L746,293.9"/>
	<path class="st2" d="M746.61,296.35c-0.31,0-0.61,0-0.92-0.31c-7.35-5.21-11.33-13.48-10.41-22.36c0-2.14,0.61-4.29,1.84-5.82
		c1.23-2.14,3.06-3.37,5.51-3.98c2.45-0.31,5.21,0.61,7.04,2.45c1.53,1.53,3.06,3.37,3.98,5.51c1.84,2.45,2.76,5.21,3.06,8.27
		c0,0.92-0.61,1.53-1.53,1.53s-1.53-0.61-1.53-1.53l0,0c-0.31-2.45-1.23-4.59-2.45-6.74c-0.92-1.84-2.14-3.37-3.37-4.59
		c-1.23-1.23-2.76-1.84-4.59-1.53c-1.53,0.31-2.45,1.23-3.37,2.45c-0.92,1.53-1.23,3.06-1.23,4.59c-0.61,7.04,2.45,14.09,7.96,18.68
		c0.31,0,0.61,0.31,0.92,0.61l0.61,0.61c0.61,0.61,0.61,1.53,0,2.14C747.53,296.05,747.23,296.35,746.61,296.35z"/>
	
		<ellipse transform="matrix(0.9999 -0.0157 0.0157 0.9999 -4.0688 12.1736)" class="st2" cx="772.96" cy="265.12" rx="1.53" ry="3.98"/>
	<path class="st2" d="M668.51,532.2c-0.61,0-1.23-0.61-1.53-1.23c-2.76-36.45,2.76-133.54,2.76-134.77c0-0.92,0.61-1.23,1.53-1.23
		l0,0c0.92,0,1.23,0.61,1.23,1.53s-5.51,98.01-2.76,134.16C670.04,531.59,669.43,532.2,668.51,532.2L668.51,532.2z"/>
	<path class="st2" d="M681.68,535.26c-0.92,0-1.23-0.92-1.23-1.53c0-0.61,0.61-1.23,1.23-1.23l124.36-6.13
		c0.92,0,1.53,0.61,1.53,1.23l0,0c0,0.92-0.61,1.53-1.23,1.53L681.68,535.26L681.68,535.26z"/>
</g>
</svg>
