<?xml version="1.0" encoding="utf-8"?>
<!-- Generator: Adobe Illustrator 26.5.0, SVG Export Plug-In . SVG Version: 6.00 Build 0)  -->
<svg version="1.1" id="Layer_1" xmlns="http://www.w3.org/2000/svg" xmlns:xlink="http://www.w3.org/1999/xlink" x="0px" y="0px"
	 viewBox="0 0 1920 1080" style="enable-background:new 0 0 1920 1080;" xml:space="preserve">
<style type="text/css">
	.st0{fill:#E6E7E8;}
	.st1{fill:#FFFFFF;}
	.st2{fill:#231F20;}
	.st3{fill:#0BEEB1;}
	.st4{fill:#282C2B;}
	.st5{fill:#CBDDD8;}
	.st6{fill:#C9DBD6;}
	.st7{fill:#0CECAF;}
</style>
<g>
	<path class="st1" d="M857.64,610.73c0,0-9.8-9.8-10.74-12.61s-2.8-21.01-6.54-18.68c-3.74,2.33-3.03,17.04-3.03,17.04
		s-13.77-21.01-17.74-18.91c-3.74,2.1-9.57,12.84-8.87,16.57c0.7,3.74,25.44,31.51,33.85,36.65L857.64,610.73z"/>
	<path class="st2" d="M844.56,631.98c-0.23,0-0.47,0-0.7-0.23c-8.17-4.9-33.85-32.92-34.32-37.35c-0.47-4.44,5.6-15.64,9.57-17.74
		c3.5-1.87,11.44,8.17,16.81,16.11c0-4.9,0.7-12.14,3.74-14.01c0.7-0.47,1.4-0.47,2.1-0.23c2.57,1.17,3.97,7.47,5.37,15.41
		c0.23,1.4,0.47,2.8,0.93,4.2c0.7,1.87,6.77,8.4,10.5,12.14c0.47,0.47,0.47,0.93,0.23,1.4l-13.07,19.84
		C845.26,631.74,844.8,631.98,844.56,631.98z M820.29,578.75L820.29,578.75c-3.5,1.87-8.64,12.14-8.4,15.41
		c0.23,3.27,23.11,28.71,32.21,35.02L856,610.97c-2.57-2.57-9.57-9.8-10.5-12.37c-0.47-1.4-0.7-3.03-0.93-4.44
		c-0.47-3.27-2.33-13.07-3.97-13.54c-2.1,1.4-2.8,10.27-2.33,16.11c0,0.7-0.47,1.17-1.17,1.17c-0.47,0-0.93-0.23-1.17-0.47
		C829.86,587.15,822.39,578.75,820.29,578.75z"/>
	<path class="st3" d="M962.92,545.84c0,0-66.76,88.94-76.34,79.84s-33.15-24.04-33.15-24.04l-19.38,27.08
		c0,0,57.89,53.92,77.5,46.22c19.61-7.7,75.63-80.77,75.63-80.77L962.92,545.84z"/>
	<path class="st1" d="M922.77,595.56c-4.67-3.03-10.97-6.07-14.94-9.8c-6.3-6.07-10.5-15.41-16.34-22.18
		c-1.63,1.17-2.33,3.27-1.87,5.14c0.47,1.87,1.17,3.74,2.1,5.37c1.87,3.5,3.03,7.24,3.97,11.21c-10.97-3.27-22.41-4.9-34.08-5.37
		c-1.17,3.5-0.47,7.24,1.63,10.27c2.1,2.8,4.67,5.37,7.7,7.47c3.5,3.03,7.24,5.37,11.21,7.7c9.1,4.44,19.61,4.67,27.31,11.91
		c3.5,3.27,9.8,6.3,13.31,2.33C924.4,617.5,923.7,596.03,922.77,595.56z"/>
	<path class="st2" d="M918.56,622.4c-3.74-0.23-7.24-1.87-9.8-4.67c-4.44-4.2-10.27-6.07-16.11-7.7c-3.74-0.93-7.24-2.33-10.74-3.97
		c-4.2-2.1-7.94-4.67-11.44-7.7c-3.03-2.1-5.6-4.67-7.94-7.7c-2.33-3.27-3.03-7.47-1.63-11.21c0.23-0.47,0.7-0.7,1.17-0.7
		c10.97,0.23,21.71,1.87,32.45,4.67c-0.7-3.03-1.87-6.07-3.27-9.1l-0.47-0.7c-0.93-1.4-1.63-3.27-1.87-4.9
		c-0.47-2.33,0.47-4.9,2.33-6.3c0.47-0.23,1.17-0.23,1.63,0.23c2.57,3.27,5.14,6.54,7.24,10.04c2.57,4.2,5.6,8.17,9.1,11.91
		c3.27,2.8,6.77,5.14,10.5,7c1.4,0.93,2.8,1.63,4.2,2.57l0,0c0.47,0.23,0.7,0.93,0.7,1.87c0.47,3.03,1.4,21.48-0.47,23.58
		c-1.17,1.4-2.8,2.33-4.67,2.33L918.56,622.4z M862.54,581.09c-0.7,2.8,0,5.84,1.87,8.4c2.1,2.8,4.67,5.14,7.47,7
		c3.5,2.8,7.24,5.37,10.97,7.47c3.27,1.63,6.77,2.8,10.27,3.74c6.07,1.87,12.14,3.74,17.04,8.4c2.33,2.33,5.37,3.74,8.4,3.97
		c1.17,0,2.33-0.7,3.27-1.63c0.93-1.63,0.47-18.91-0.23-22.18c-1.17-0.7-2.57-1.4-3.74-2.33c-3.97-2.1-7.7-4.67-10.97-7.47
		c-3.5-3.74-6.77-7.94-9.57-12.37c-1.87-3.03-3.97-6.07-6.3-8.87c-0.47,0.93-0.7,2.1-0.47,3.03c0.23,1.4,0.93,2.8,1.63,4.2l0.47,0.7
		c1.87,3.74,3.27,7.47,3.97,11.44c0,0.47,0,0.93-0.47,1.17c-0.23,0.23-0.7,0.47-1.17,0.23
		C884.72,583.19,873.74,581.55,862.54,581.09z"/>
	<path class="st1" d="M1032.25,402.04c12.14,1.87,21.71,10.74,24.98,22.41c2.33,9.1,0.7,20.08,7,27.31
		c3.97,4.2,9.57,6.07,15.41,5.37c5.6-0.93,10.74-3.97,14.24-8.4c1.87,11.67-3.5,23.34-13.54,29.65c-9.1,4.9-19.61,5.84-29.41,2.33
		c-9.57-3.5-18.21-9.1-25.44-16.34c-11.91-10.74-19.61-25.21-21.48-41.32C1002.14,407.64,1018.71,400.17,1032.25,402.04z"/>
	<path class="st2" d="M1063.76,483.74c-4.44,0-8.87-0.7-13.07-2.1c-9.8-3.5-18.68-9.1-25.91-16.57
		c-12.14-10.97-19.84-25.68-21.94-42.02c-0.7-5.6,1.17-11.21,5.37-15.17c6.54-5.84,15.64-8.4,24.28-7l0,0
		c12.37,2.1,22.64,11.21,26.15,23.34c0.7,3.27,1.17,6.54,1.63,9.8c0.7,6.54,1.4,12.37,5.37,16.81c3.74,3.74,9.1,5.6,14.24,4.67
		c5.37-0.93,10.04-3.74,13.54-7.94c0.23-0.47,0.7-0.47,1.17-0.47c0.47,0,0.7,0.47,0.93,0.93c1.87,12.14-3.74,24.28-14.24,30.81
		C1075.67,481.87,1069.83,483.74,1063.76,483.74z M1027.81,402.97c-6.77-0.23-13.07,2.1-18.21,6.54c-3.5,3.5-5.37,8.4-4.44,13.31
		c1.87,15.64,9.57,30.11,21.24,40.39c7,7,15.64,12.61,24.98,16.11c9.34,3.27,19.61,2.57,28.48-2.1c8.87-5.6,14.01-15.41,13.31-25.91
		c-3.5,3.74-8.17,6.07-13.31,6.77c-6.07,0.93-12.14-1.17-16.34-5.6c-4.44-5.14-5.14-11.91-5.84-18.21c-0.23-3.27-0.7-6.3-1.4-9.57
		C1052.79,411.84,1041.12,402.74,1027.81,402.97L1027.81,402.97z"/>
	<path class="st2" d="M1018.94,425.85c-2.8-4.2-7-7.47-11.91-9.57c-3.74-1.17-7.47-1.17-11.21-0.23c-2.8,0.47-5.14,1.87-6.77,3.97
		c-1.17,2.8-0.93,5.84,0.23,8.4c3.03,9.34,14.01,30.35,26.15,29.88C1032.02,457.83,1024.55,433.32,1018.94,425.85z"/>
	<path class="st2" d="M1014.74,459.7c-12.37,0-23.34-20.54-26.61-30.58c-1.4-3.03-1.4-6.3,0-9.34c1.63-2.57,4.44-4.44,7.47-4.67
		c3.97-0.93,7.94-0.93,11.91,0.23c4.9,1.87,9.34,5.37,12.37,9.8l0,0c4.2,5.37,9.57,19.84,5.6,28.48c-1.87,3.74-5.84,6.3-10.04,6.07
		H1014.74z M1001.44,416.74c-1.87,0-3.5,0.23-5.14,0.7c-2.33,0.23-4.67,1.63-6.07,3.5c-0.93,2.33-0.7,5.14,0.23,7.47
		c3.03,9.34,13.54,29.41,24.74,28.95c3.5,0.23,6.54-1.63,7.94-4.67c3.5-7.24-1.4-21.01-5.37-26.15l0,0
		c-2.8-3.97-6.54-7.24-11.21-8.87C1004.94,416.98,1003.3,416.74,1001.44,416.74z"/>
	<polygon class="st2" points="1078,726.75 1090.38,798.18 958.48,788.38 956.62,701.54 	"/>
	<path class="st2" d="M1090.38,799.35L1090.38,799.35l-131.89-9.8c-0.7,0-1.17-0.47-1.17-1.17l-1.87-86.84
		c0-0.47,0.23-0.7,0.47-0.93c0.23-0.23,0.7-0.23,0.93-0.23l121.39,25.21c0.47,0,0.93,0.47,0.93,0.93l12.37,71.43
		c0,0.7-0.23,1.17-0.93,1.4C1090.61,799.35,1090.61,799.35,1090.38,799.35L1090.38,799.35z M959.65,787.45l129.33,9.57l-11.91-69.33
		l-119.05-24.74L959.65,787.45z"/>
	<path class="st3" d="M1024.55,533.93c0,0,30.35,14.24,47.62,55.56c9.1,21.94,12.14,144.73,12.14,144.73s-88.94,19.84-131.66-3.74
		c0,0,1.63-57.19-3.03-96.18c-2.33-19.84-2.8-62.1,6.77-80.3C969.69,529.73,1000.97,535.33,1024.55,533.93z"/>
	<path class="st2" d="M953.11,674.23c-0.7,0-1.17-0.47-1.17-1.17c0-0.47-1.87-56.49-3.74-70.97c-1.87-14.94,7-37.82,7.47-38.75
		c0.23-0.7,0.93-0.93,1.63-0.7l0,0c0.7,0.23,0.93,0.93,0.7,1.63c0,0.23-9.1,23.11-7.24,37.58c1.87,14.47,3.74,70.73,3.74,71.43
		C954.28,673.76,953.81,674.23,953.11,674.23L953.11,674.23L953.11,674.23z"/>
	<path class="st1" d="M1015.91,435.42c-0.93-1.4-1.63-2.8-2.57-4.2c-7.94-12.37-22.88-13.77-35.72-8.87
		c-2.57,0.93-5.37,2.57-5.84,5.37c-5.14-2.33-11.67,0-15.41,4.2c-12.61,13.54-12.14,35.02-7.94,51.82c0.7,3.97,2.33,7.7,4.67,10.97
		c2.33,3.03,5.37,5.37,8.87,7c23.58,12.14,58.59,2.57,63.96-26.15C1028.05,462.5,1022.68,447.56,1015.91,435.42z"/>
	<path class="st2" d="M983.69,508.25c-7.94,0-15.64-1.87-22.64-5.37c-3.74-1.63-7-4.2-9.57-7.24c-2.33-3.5-3.97-7.24-4.67-11.44
		c-2.57-10.5-7-36.42,8.17-52.99c3.5-3.74,9.8-6.77,15.64-5.14c1.17-2.33,3.5-4.2,6.07-4.9c12.14-4.67,28.25-4.67,37.12,9.57
		c0.93,1.4,1.87,2.8,2.57,4.2l0,0c4.9,8.64,12.84,25.45,10.04,41.32c-2.33,11.91-10.27,22.18-21.24,27.31
		C998.63,506.62,991.16,508.25,983.69,508.25z M967.12,427.95c-3.97,0.23-7.7,1.87-10.27,4.9c-14.47,15.64-10.27,40.62-7.7,50.89
		c0.7,3.74,2.1,7.47,4.44,10.5c2.33,2.8,5.14,5.14,8.64,6.77c13.31,6.54,28.71,6.77,42.25,0.47c10.27-4.9,17.74-14.24,19.84-25.68
		c2.8-15.17-4.67-31.28-9.57-39.68c-0.93-1.4-1.63-2.8-2.57-4.2c-8.17-12.84-23.11-12.84-34.32-8.4c-2.1,0.7-4.67,2.33-4.9,4.44
		c0,0.47-0.23,0.7-0.7,0.93c-0.23,0.23-0.7,0.23-1.17,0C969.92,428.18,968.52,427.95,967.12,427.95z"/>
	<path class="st1" d="M976.22,509.42l1.87,23.34c0,0,6.77,5.14,21.71,0.23c14.94-5.14,15.64-9.1,15.64-9.1l-4.2-43.19
		c-0.23-1.87-7.24-7.94-8.87-9.1c-3.97-3.5-8.64-6.54-13.31-8.87c-2.33-0.93-4.44-2.1-6.54-3.5c-5.37-3.74-8.4-9.8-7.94-16.34
		c0.47,5.14-1.17,10.27-4.67,14.24c-2.33,2.57-5.6,4.44-7.94,7c-3.97,5.14-2.33,9.57-1.87,15.17c0.7,6.54-0.23,12.84,1.4,19.38
		C963.85,510.59,975.99,509.42,976.22,509.42z"/>
	<path class="st2" d="M987.66,536.5c-3.74,0.23-7.24-0.7-10.27-2.57c-0.23-0.23-0.47-0.47-0.47-0.93l-1.87-22.18
		c-8.17-0.23-13.31-4.2-14.94-11.21c-0.7-3.74-0.93-7.7-0.93-11.44c0-2.57,0-5.37-0.47-7.94c-0.23-0.93-0.23-1.63-0.47-2.33
		c-0.7-4.67-1.4-8.87,2.33-13.54c1.4-1.63,2.8-3.03,4.44-4.2c1.17-0.93,2.33-1.87,3.5-3.03c2.8-2.8,4.44-6.77,4.67-10.74
		c0-0.93,0-1.87,0-2.8c0-0.7,0.47-1.17,1.17-1.17l0,0c0.7,0,1.17,0.47,1.17,1.17c0,0.93,0,1.87,0,2.8
		c0.47,5.14,3.27,9.57,7.47,12.61c1.4,0.93,3.03,1.87,4.67,2.57l1.63,0.7c4.9,2.33,9.57,5.37,13.54,9.1l0.47,0.47
		c7,6.07,8.64,8.17,8.87,9.57l4.2,43.19v0.23c-0.23,0.7-1.4,4.9-16.34,10.04C996.07,535.56,992.1,536.26,987.66,536.5z
		 M979.26,532.06c1.63,0.93,8.17,3.74,20.31-0.23c12.14-4.2,14.47-7.47,14.71-8.17c-0.47-3.74-4.2-42.72-4.2-42.95
		s-1.17-2.1-7.94-7.94l-0.47-0.47c-3.97-3.5-8.4-6.3-13.07-8.64l-1.4-0.7c-1.87-0.7-3.5-1.63-5.14-2.8c-3.27-2.33-5.6-5.37-7-9.1
		c-0.93,2.57-2.33,4.9-4.2,7c-1.17,1.17-2.33,2.33-3.74,3.27c-1.63,1.17-3.03,2.57-4.2,3.97c-3.03,3.97-2.57,7.47-1.87,11.91
		c0.23,0.93,0.23,1.63,0.47,2.57c0.23,2.8,0.47,5.6,0.47,8.17c0,3.74,0.23,7.47,0.93,10.97c1.4,6.07,5.84,9.34,13.31,9.57
		c0.47,0,0.7,0,1.17,0.23c0.23,0.23,0.47,0.47,0.47,0.93L979.26,532.06z"/>
	<path class="st1" d="M1002.14,480.71c0.23-2.1,1.4-4.2,2.8-5.6c1.4-1.4,3.27-2.33,5.14-3.27c0.93-0.47,2.1-0.93,3.27-0.93
		c0.7,0,1.63,0.23,2.33,0.7c1.63,0.7,3.27,1.87,3.97,3.5c0.47,1.4,0.7,2.8,0.7,4.44s-0.23,3.27-0.7,4.67c-0.93,3.03-3.27,5.6-6.07,7
		c-2.8,1.4-6.3,1.63-9.34,0.7"/>
	<path class="st2" d="M1007.97,494.01c-1.4,0-2.8-0.23-4.2-0.7c-0.7-0.23-0.93-0.93-0.7-1.4c0.23-0.7,0.93-0.93,1.4-0.7
		c5.84,1.87,11.91-1.17,13.77-7c0,0,0,0,0-0.23c0.47-1.4,0.7-3.03,0.7-4.44c0.23-1.17,0-2.57-0.47-3.74c-0.7-1.4-2.1-2.33-3.5-3.03
		c-0.47-0.23-1.17-0.47-1.87-0.47c-0.93,0-1.87,0.23-2.57,0.7c-1.63,0.7-3.27,1.63-4.67,3.03c-1.4,1.4-2.33,3.03-2.57,4.9
		c0,0.7-0.7,1.17-1.4,0.93c-0.7,0-1.17-0.7-0.93-1.4c0.47-2.33,1.4-4.67,3.27-6.3c1.63-1.4,3.5-2.57,5.37-3.5
		c1.17-0.7,2.33-0.93,3.74-0.93c0.93,0,1.87,0.23,2.8,0.7c2.1,0.7,3.74,2.1,4.67,4.2c0.7,1.63,0.93,3.27,0.7,4.9
		c0,1.63-0.23,3.5-0.7,5.14C1019.18,490.04,1014.04,493.78,1007.97,494.01L1007.97,494.01z"/>
	<path class="st1" d="M978.79,471.14c0,0-7.24,12.37-5.37,14.47c2.1,1.87,7.24,0.23,7.24,0.23"/>
	<path class="st2" d="M976.22,509.42c0,0,14.71,2.1,22.88-3.5c0,0-7.94,20.31-21.71,19.38L976.22,509.42z"/>
	<path class="st2" d="M978.56,526.69h-0.93c-0.7,0-1.17-0.47-1.17-1.17l-1.4-16.11c0-0.47,0-0.7,0.47-0.93
		c0.23-0.23,0.7-0.47,0.93-0.23c0.23,0,14.47,2.1,22.18-3.27c0.47-0.23,0.93-0.23,1.4,0c0.47,0.23,0.47,0.93,0.47,1.4
		C1000.04,507.32,992.33,526.69,978.56,526.69z M977.62,510.82l1.17,13.54c9.1-0.23,15.41-10.27,17.97-15.41
		C990.46,510.82,983.93,511.52,977.62,510.82L977.62,510.82z"/>
	<polygon class="st1" points="967.82,533 965.49,543.5 1024.55,533.93 1020.11,522.26 	"/>
	<path class="st2" d="M965.49,544.67c-0.23,0-0.7-0.23-0.93-0.47c-0.23-0.23-0.47-0.7-0.23-1.17l2.33-10.74
		c0-0.47,0.47-0.7,0.93-0.93l52.29-10.5c0.47,0,1.17,0.23,1.4,0.7l4.67,11.67c0.23,0.7-0.23,1.4-0.7,1.63c0,0,0,0-0.23,0
		L965.49,544.67L965.49,544.67z M968.75,533.93l-1.87,8.17l56.03-9.1l-3.74-9.57L968.75,533.93z"/>
	<path class="st3" d="M1045.56,585.99c0,0-23.58,35.02-28.01,42.02c-4.44,7-98.51-41.32-98.51-41.32l-14.24,31.51
		c0,0,133.53,88.94,140.06,73.53c6.54-15.64,20.31-78.2,20.31-78.2"/>
	<path class="st2" d="M1007.97,626.84c-14.94,0-73.07-28.95-80.07-32.45c-0.47-0.23-0.7-0.93-0.47-1.63
		c0.23-0.47,0.93-0.7,1.63-0.47c28.48,14.24,73.07,34.55,80.3,32.21c7.94-2.8,25.68-39.92,31.75-53.92c0.23-0.7,0.93-0.93,1.63-0.7
		c0.7,0.23,0.93,0.93,0.7,1.63c-2.33,5.37-22.64,51.59-33.15,55.33C1009.37,626.84,1008.67,626.84,1007.97,626.84z"/>
	<path class="st2" d="M1020.58,681.46c-30.81,0-110.65-57.89-114.15-60.46c-0.47-0.47-0.7-1.17-0.23-1.63s1.17-0.7,1.63-0.23
		c0.93,0.7,95.01,68.86,118.12,59.29c7.94-3.27,35.02-45.99,44.59-62.33c0.23-0.47,1.17-0.7,1.63-0.47c0.47,0.23,0.7,0.93,0.47,1.63
		l0,0c-1.4,2.33-35.48,58.83-45.75,63.26C1024.78,681,1022.68,681.46,1020.58,681.46z"/>
	<path class="st2" d="M837.33,611.9c-0.47,0-0.93-0.23-1.17-0.7c-3.74-9.1,0-14.94,0-15.17c0.23-0.47,0.93-0.7,1.63-0.47
		c0.47,0.23,0.7,0.93,0.47,1.63l0,0c-0.23,0.23-3.27,5.37,0,13.07c0.23,0.7,0,1.4-0.7,1.63l0,0
		C837.56,611.9,837.33,611.9,837.33,611.9z"/>
	<path class="st1" d="M676.72,538.6h-56.03c-25.21,0-45.52,20.31-45.52,45.52c0,2.57,0.23,5.37,0.7,7.94l40.15,222.94h148.47
		l-42.95-238.81C717.57,554.47,698.9,538.6,676.72,538.6z"/>
	<path class="st2" d="M764.49,816.16H616.26c-0.47,0-1.17-0.47-1.17-0.93l-40.15-222.7c-4.44-25.44,12.37-49.49,37.82-54.16
		c2.57-0.47,5.37-0.7,8.17-0.7h56.03c22.64,0,42.02,16.11,45.99,38.28l43.19,238.81c0.23,0.7-0.23,1.17-0.93,1.4
		C764.73,816.16,764.73,816.16,764.49,816.16L764.49,816.16z M617.19,813.83h145.9l-42.72-237.64
		c-3.74-21.01-22.18-36.42-43.65-36.42h-56.03c-24.51,0-44.35,19.84-44.35,44.35c0,2.57,0.23,5.37,0.7,7.94L617.19,813.83z"/>
	<path class="st1" d="M785.04,679.83c0,0,4.44,62.1,8.87,63.5c4.44,1.4,49.96,6.07,49.96,6.07l-4.67,23.81
		c0,0-87.77,4.44-91.98-11.44c-4.44-16.11-9.8-93.61-9.8-93.61L785.04,679.83z"/>
	<path class="st2" d="M812.35,774.84c-26.61,0-63.5-2.1-66.53-13.07c-4.44-15.87-9.57-90.57-9.8-93.84c0-0.47,0-0.7,0.47-0.93
		c0.23-0.23,0.7-0.23,0.93-0.23l47.62,11.91c0.47,0.23,0.93,0.47,0.93,1.17c2.1,28.95,5.84,60.46,8.17,62.56
		c3.5,1.17,36.88,4.67,49.49,5.84c0.23,0,0.7,0.23,0.93,0.47c0.23,0.23,0.23,0.7,0.23,0.93l-4.67,23.81c0,0.47-0.47,0.93-1.17,0.93
		C836.16,774.37,825.42,774.84,812.35,774.84z M738.58,669.56c0.7,11.21,5.6,77.27,9.57,91.74c3.5,12.14,65.13,11.91,90.11,10.74
		l4.44-21.71c-7.7-0.7-44.82-4.44-48.79-5.84c-3.97-1.4-7.94-40.15-9.8-63.73L738.58,669.56z"/>
	<path class="st3" d="M743.95,589.49c0.7,1.63,28.01,14.94,40.39,48.32c12.37,33.62,12.84,52.06,12.84,52.06h-70.03L743.95,589.49z"
		/>
	<path class="st3" d="M684.42,584.59c0,0-25.68,7.24-30.81,19.14c-5.14,11.91,5.37,172.28,5.37,172.28l119.99,3.74
		c0,0-18.68-76.8-12.61-96.88c6.07-20.08,0.7-61.16-1.4-72.37c-2.33-11.21-24.51-21.71-31.98-26.15S684.42,584.59,684.42,584.59z"/>
	<path class="st2" d="M723.64,779.28L723.64,779.28c-0.93,0-1.17-0.7-1.17-1.4c15.87-98.04,7.7-167.61,7.47-168.31
		c0-0.7,0.47-1.17,0.93-1.4c0.7,0,1.17,0.23,1.4,0.93l0,0c0,0.7,8.4,70.5-7.47,169.01C724.58,779.04,724.11,779.28,723.64,779.28z"
		/>
	<path class="st1" d="M691.89,544.44c-0.23-0.47-0.47-1.17-0.93-2.33c-1.17-3.03-3.5-4.67-4.9-7.7c-2.8-5.37-1.87-10.27-2.1-15.87
		c-0.47-7,0.93-14.01,3.97-20.54c1.17-2.8,3.03-5.14,5.6-7c2.57-1.63,6.07-1.4,8.4,0.7c-1.17-3.03-0.47-6.3,1.63-8.64
		s4.9-3.97,7.94-4.9c4.44-2.1,9.34-3.27,14.24-3.27c4.9-0.23,9.8,1.63,13.31,5.14c3.27,3.5,4.67,8.4,7,12.37s7,7.94,11.67,6.54
		c3.74-0.93,5.84-4.9,7.24-8.64c1.87,6.54,0.47,13.54-3.97,18.68c3.27-1.17,6.07-3.03,8.4-5.6c0,3.97-1.63,7.7-4.2,10.74
		c-3.27,3.03-6.77,5.14-10.97,6.54c-2.1,0.93-4.44,1.4-5.14,3.5c-0.93,2.1,0.23,5.14-0.7,7.7c-1.4,3.97-3.74,7.47-6.54,10.74
		c-4.67,4.67-10.5,7.7-16.81,8.64c-6.3,0.93-12.84,0.93-19.38-0.47c-3.27-0.47-6.54-1.63-9.57-3.27
		C693.29,545.6,692.83,546.3,691.89,544.44z"/>
	<path class="st2" d="M717.57,553.31c-3.97,0-7.94-0.47-11.91-1.17c-3.5-0.47-7-1.63-10.04-3.5c-0.7-0.47-1.63-0.93-2.33-1.17
		c-1.17-0.47-2.1-1.17-2.57-2.33l0,0c-0.47-0.7-0.7-1.63-0.93-2.33c-0.7-1.4-1.4-2.8-2.57-3.97c-0.93-1.17-1.63-2.33-2.33-3.5
		c-1.63-3.74-2.57-8.17-2.1-12.37c0-1.4,0-2.8,0-4.2c-0.47-7.24,0.93-14.47,4.2-21.01c1.17-3.03,3.5-5.6,6.07-7.47
		c2.1-1.17,4.67-1.63,7-0.93c0-2.57,0.93-4.9,2.57-7c2.33-2.33,5.14-4.2,8.4-5.37c4.67-2.1,9.57-3.27,14.71-3.5l0,0
		c5.37-0.23,10.5,1.87,14.24,5.6c2.1,2.57,3.74,5.37,5.14,8.17c0.7,1.4,1.4,3.03,2.33,4.44c2.1,3.74,6.3,7,10.27,6.07
		c2.57-0.7,4.67-3.27,6.54-7.94c0.23-0.47,0.7-0.7,1.17-0.7s0.93,0.47,1.17,0.93c1.63,5.37,0.93,10.97-1.63,15.87
		c1.4-0.93,2.8-2.1,3.97-3.27c0.23-0.47,0.93-0.47,1.4-0.23c0.47,0.23,0.7,0.7,0.7,1.17c0,4.2-1.63,8.4-4.67,11.44
		c-3.27,3.03-7.24,5.37-11.44,7l-1.4,0.47c-1.63,0.7-2.8,1.17-3.27,2.1c-0.23,1.17-0.47,2.1-0.23,3.27c0.23,1.4,0,3.03-0.47,4.2
		c-1.4,4.2-3.74,7.94-6.77,11.21c-4.67,4.9-10.97,7.94-17.51,9.1C722.94,553.07,720.14,553.31,717.57,553.31z M693.06,543.74
		c0.47,0.93,0.47,0.93,1.4,1.4c0.93,0.47,1.87,0.93,2.57,1.4c2.8,1.63,6.07,2.57,9.1,3.03c6.3,1.4,12.61,1.4,18.91,0.47
		c6.07-0.93,11.91-3.97,16.34-8.4c2.8-3.03,4.9-6.54,6.3-10.27c0.23-1.17,0.47-2.33,0.23-3.5c-0.23-1.4,0-2.8,0.47-4.2
		c0.93-1.87,2.57-3.03,4.67-3.5l1.17-0.47c3.97-1.4,7.47-3.5,10.5-6.3c1.63-1.87,2.8-3.97,3.5-6.54c-1.87,1.63-4.2,2.8-6.3,3.5
		c-0.7,0.23-1.4,0-1.63-0.7c-0.23-0.47,0-0.93,0.23-1.17c3.27-3.97,4.9-8.87,4.44-14.01c-1.4,2.8-3.74,4.9-6.54,5.84
		c-5.14,1.4-10.27-2.57-13.07-7c-0.93-1.4-1.63-3.03-2.33-4.67c-1.17-2.8-2.8-5.37-4.67-7.7c-3.27-3.27-7.94-4.9-12.37-4.67l0,0
		c-4.67,0.23-9.34,1.4-13.77,3.27c-2.8,0.93-5.37,2.57-7.47,4.67c-1.87,1.87-2.33,4.9-1.4,7.24c0.23,0.47,0,1.17-0.47,1.63
		c-0.47,0.23-1.17,0.23-1.63-0.23c-1.87-1.63-4.67-1.87-6.77-0.47c-2.33,1.63-4.2,3.74-5.14,6.3c-2.8,6.07-4.2,12.84-3.74,19.61
		c0,1.4,0,2.8,0,4.44c-0.23,3.74,0.23,7.7,1.87,11.21c0.7,1.17,1.4,2.1,2.1,3.03c1.17,1.4,2.1,3.03,2.8,4.67
		C692.59,542.57,692.83,543.27,693.06,543.74L693.06,543.74z"/>
	<path class="st1" d="M740.22,575.25l2.33,15.41c0,0-2.33,22.41-19.38,18.44c-10.27-2.57-18.91-9.57-23.81-19.14l-1.87-40.62
		c0,0,12.37-6.77,8.4-33.85c13.77,5.84,28.95,7.7,43.89,5.6c0,0,6.07,27.78,4.2,40.85C753.29,569.18,747.45,574.78,740.22,575.25z"
		/>
	<path class="st2" d="M727.14,610.5c-1.4,0-2.8-0.23-4.2-0.47c-10.74-2.57-19.61-10.04-24.51-19.84c0-0.23,0-0.23,0-0.47
		l-1.87-40.39c0-0.47,0.23-0.93,0.7-1.17c0,0,11.67-6.77,7.94-32.68c0-0.47,0.23-0.93,0.47-1.17c0.47-0.23,0.93-0.23,1.17,0
		c13.54,5.6,28.48,7.47,43.19,5.6c0.7,0,1.17,0.23,1.4,0.93c0.23,1.17,6.07,28.25,4.2,41.32c-0.7,7.24-6.3,13.07-13.54,14.01
		l2.1,14.01v0.23c0,0.47-1.4,12.14-8.87,17.51C732.75,609.8,729.94,610.73,727.14,610.5z M701,589.49
		c4.67,9.1,12.84,15.64,22.64,18.21c3.5,0.93,7,0.47,10.04-1.63c6.07-4.44,7.7-14.24,7.7-15.64l-2.33-15.17c0-0.23,0-0.7,0.23-0.93
		c0.23-0.23,0.47-0.47,0.93-0.47c6.54-0.23,11.91-5.6,12.61-12.14c1.63-11.21-2.8-34.08-3.97-39.45c-14.01,1.63-28.25,0-41.32-5.14
		c2.57,22.64-6.07,30.58-8.64,32.45L701,589.49z"/>
	<path class="st1" d="M731.58,537.43c0,0,7.94,14.71,5.6,16.81c-2.33,2.1-8.4,0-8.4,0"/>
	<path class="st1" d="M708.47,542.33c-1.4-2.57-3.5-4.67-5.84-6.54c-1.17-1.17-2.8-1.63-4.2-1.87c-1.4,0-2.57,0.47-3.74,1.17
		c-3.27,1.87-5.6,5.37-6.54,9.1c-0.47,1.87-0.23,3.5,0.23,5.37c0.93,2.57,2.8,4.9,5.14,6.3s4.9,2.57,7.7,3.27"/>
	<path class="st2" d="M701.23,560.08c-0.23,0-0.23,0-0.47,0c-2.8-0.93-5.37-2.1-7.94-3.5c-2.57-1.63-4.67-3.97-5.84-7
		c-0.47-1.87-0.7-3.97-0.23-5.84c0.93-4.2,3.5-7.7,7-10.04c1.4-0.93,2.8-1.17,4.44-1.17c1.87,0.23,3.5,0.93,5.14,2.1
		c2.57,1.87,4.44,4.2,6.07,7c0.23,0.7,0,1.4-0.7,1.63c-0.47,0.23-1.17,0-1.4-0.47c-1.4-2.33-3.27-4.44-5.6-6.3
		c-0.93-0.93-2.33-1.4-3.74-1.63c-1.17,0-2.1,0.23-3.03,0.93c-3.03,1.87-5.14,4.9-5.84,8.17c-0.23,1.63-0.23,3.27,0.23,4.67
		c0.93,2.33,2.57,4.44,4.67,5.6c2.33,1.4,4.9,2.33,7.47,3.27c0.7,0.23,0.93,0.93,0.7,1.63l0,0
		C702.17,559.84,701.7,560.08,701.23,560.08z"/>
	<path class="st2" d="M740.22,575.25c-9.8,1.4-19.61-0.23-28.25-4.67c0,0,14.47,22.18,30.58,18.91L740.22,575.25z"/>
	<path class="st2" d="M739.28,591.12c-15.17,0-27.78-18.91-28.48-19.84c-0.23-0.47-0.23-0.93,0-1.4c0.47-0.47,0.93-0.47,1.4-0.23
		c8.4,4.44,18.21,6.07,27.55,4.44c0.23,0,0.7,0,0.93,0.23c0.23,0.23,0.47,0.47,0.47,0.7l2.1,14.47c0,0.7-0.23,1.17-0.93,1.4
		C741.38,590.89,740.22,590.89,739.28,591.12z M715.47,573.38c4.67,5.84,14.71,16.34,25.45,15.17l-1.87-12.14
		C731.11,577.58,723.17,576.42,715.47,573.38z"/>
	<path class="st2" d="M718.74,548.4c-7.47,0-13.54-6.07-13.54-13.54s6.07-13.54,13.54-13.54s13.54,6.07,13.54,13.54l0,0
		C732.51,542.33,726.44,548.4,718.74,548.4z M718.74,523.66c-6.07,0-11.21,4.9-11.21,11.21c0,6.07,4.9,11.21,11.21,11.21
		c6.07,0,11.21-4.9,11.21-11.21l0,0C729.94,528.56,725.04,523.66,718.74,523.66z"/>
	<path class="st2" d="M745.59,548.4c-7.47,0-13.54-6.07-13.54-13.54s6.07-13.54,13.54-13.54s13.54,6.07,13.54,13.54l0,0
		C759.12,542.33,753.06,548.4,745.59,548.4z M745.59,523.66c-6.07,0-11.21,4.9-11.21,11.21c0,6.07,4.9,11.21,11.21,11.21
		c6.07,0,11.21-4.9,11.21-11.21l0,0C756.79,528.56,751.65,523.66,745.59,523.66z"/>
	<rect x="734.38" y="766.44" class="st1" width="162.01" height="10.27"/>
	<path class="st2" d="M896.39,777.88H734.38c-0.7,0-1.17-0.47-1.17-1.17v-10.27c0-0.7,0.47-1.17,1.17-1.17h162.01
		c0.7,0,1.17,0.47,1.17,1.17v10.27C897.55,777.18,897.09,777.88,896.39,777.88z M735.55,775.31h159.67v-7.94H735.55
		C735.55,767.37,735.55,775.31,735.55,775.31z"/>
	<path class="st1" d="M638.2,678.43c0,0-11.21,87.77-5.14,94.78c6.07,7,117.19-8.87,128.86-9.34c11.67-0.47,35.02,6.54,34.32-5.84
		c-0.7-12.37-30.35-13.31-38.28-9.34c-7.94,3.97-84.27-2.33-84.27-2.33l2.33-67.93H638.2z"/>
	<path class="st2" d="M646.37,776.24c-7.94,0-12.61-0.7-14.01-2.33c-6.3-7.47,3.74-86.84,4.67-95.71c0-0.7,0.7-0.93,1.17-0.93h37.82
		c0.23,0,0.7,0.23,0.93,0.47c0.23,0.23,0.23,0.47,0.23,0.93l-2.1,67c21.94,1.87,76.33,5.37,82.4,2.33
		c6.07-3.03,24.74-3.27,34.32,2.1c3.27,1.63,5.37,4.67,5.6,8.17c0.23,2.1-0.47,4.2-2.1,5.84c-3.97,3.74-13.07,2.8-21.94,1.87
		c-3.74-0.47-7.7-0.7-11.44-0.7c-2.8,0.23-12.14,1.17-23.81,2.57C694.7,772.97,663.18,776.24,646.37,776.24z M639.14,679.6
		c-4.44,35.02-9.57,88.01-5.14,92.91c4.2,4.9,74.23-3.5,104.11-7c12.14-1.4,21.01-2.57,23.81-2.57c3.97,0,7.94,0.23,11.91,0.7
		c7.94,0.93,16.81,1.87,20.08-1.4c0.93-0.93,1.4-2.57,1.4-3.97c-0.23-2.8-2.1-5.14-4.44-6.3c-8.4-4.9-26.38-4.9-31.98-2.1
		c-7.94,3.97-77.04-1.63-84.74-2.33c-0.7,0-1.17-0.47-1.17-1.17l2.1-66.76H639.14z"/>
	<polygon class="st1" points="819.59,672.13 919.26,672.13 895.92,766.67 796.01,766.67 	"/>
	<path class="st2" d="M895.92,767.84h-99.91c-0.47,0-0.7-0.23-0.93-0.47c-0.23-0.23-0.23-0.7-0.23-0.93l23.58-94.54
		c0.23-0.47,0.7-0.93,1.17-0.93h99.91c0.47,0,0.7,0.23,0.93,0.47c0.23,0.23,0.23,0.7,0.23,0.93l-23.34,94.54
		C896.85,767.37,896.39,767.84,895.92,767.84z M797.64,765.5h97.34l22.88-92.21h-97.34L797.64,765.5z"/>
	<path class="st3" d="M666.92,596.49c-0.47,0.47-10.27,3.03-10.74,3.5c-9.1,9.8-14.24,16.81-17.97,29.65
		c-4.9,17.74-7.7,35.95-8.4,54.16c0,0,37.35,13.54,53.69,5.6c0,0,9.57-67,0-85.44C679.99,597.19,674.62,591.36,666.92,596.49z"/>
	<path class="st2" d="M684.66,681h-0.23c-0.7-0.23-0.93-0.7-0.93-1.4l0,0c0.23-0.7,14.01-65.36-3.03-78.44
		c-0.47-0.47-0.7-1.17-0.23-1.63c0.47-0.47,1.17-0.7,1.63-0.23c18.44,14.01,4.67,78.2,3.97,81C685.59,680.53,685.12,681,684.66,681z
		"/>
	<path class="st2" d="M765.19,691.04L765.19,691.04c-0.93,0-1.17-0.7-1.17-1.4l0,0c0-0.47,8.87-51.36,0-70.73
		c-0.23-0.47,0-1.4,0.47-1.63c0.47-0.23,1.4,0,1.63,0.47c0,0,0,0,0,0.23c9.1,20.31,0.47,70.03,0,72.13
		C766.13,690.57,765.89,691.04,765.19,691.04z"/>
	<rect x="561.17" y="776.48" class="st1" width="643.83" height="14.94"/>
	<path class="st2" d="M1205,792.82H561.17c-0.7,0-1.17-0.47-1.17-1.17v-14.94c0-0.7,0.47-1.17,1.17-1.17H1205
		c0.7,0,1.17,0.47,1.17,1.17v14.94C1206.16,792.35,1205.7,792.82,1205,792.82z M562.33,790.48h641.49v-12.61H562.33V790.48z"/>
	<rect x="575.41" y="791.65" class="st1" width="615.35" height="23.58"/>
	<path class="st2" d="M1190.76,816.39H575.41c-0.7,0-1.17-0.47-1.17-1.17v-23.81c0-0.7,0.47-1.17,1.17-1.17h615.35
		c0.7,0,1.17,0.47,1.17,1.17v23.81C1191.92,815.93,1191.46,816.39,1190.76,816.39z M576.57,814.06h613.01v-21.24H576.57V814.06z"/>
	<path class="st1" d="M871.88,397.6c0,31.05-20.78,58.36-50.89,66.53c-0.7,26.85-24.74,45.52-26.38,46.69
		c13.54-16.34,14.94-32.68,13.07-44.59c-1.63,0.23-3.27,0.23-4.9,0.23h-53.22c-38.05,0-69.1-30.81-69.1-69.1
		c0-38.05,30.81-69.1,69.1-69.1l0,0h53.22C841.06,328.5,871.88,359.32,871.88,397.6L871.88,397.6z"/>
	<path class="st2" d="M794.84,512.22c-0.7,0-1.17-0.47-1.17-1.17c0-0.23,0-0.47,0.23-0.7c13.31-15.87,14.47-31.75,12.84-42.72
		c-1.4,0-2.57,0.23-3.97,0.23h-53.22c-38.75,0-70.27-31.51-70.27-70.27s31.51-70.27,70.27-70.27h53.22
		c38.75,0,70.27,31.51,70.27,70.27c0,31.28-20.78,59.06-50.89,67.7c-1.4,27.08-25.68,45.99-26.85,46.92
		C795.31,511.99,795.07,512.22,794.84,512.22z M807.68,465.3c0.47,0,1.17,0.47,1.17,0.93c2.1,12.61-0.47,25.45-7,36.42
		c7.47-7.94,17.51-21.48,17.97-38.52c0-0.47,0.47-0.93,0.93-1.17c36.18-10.04,57.43-47.39,47.39-83.57
		c-8.17-29.41-34.78-49.96-65.36-49.96h-53.22c-37.58,0-67.93,30.35-67.93,67.93s30.35,67.93,67.93,67.93l0,0h53.22
		C804.41,465.53,806.05,465.53,807.68,465.3L807.68,465.3z"/>
	<path class="st1" d="M1104.85,414.88c0,24.04,16.11,44.82,38.98,51.36c0.7,20.54,18.91,35.02,20.31,35.95
		c-8.17-9.34-11.91-21.94-10.04-34.32c1.17,0,2.57,0.23,3.74,0.23h40.85c29.41,0,53.22-23.81,53.22-53.22s-23.81-53.22-53.22-53.22
		h-40.85C1128.66,361.89,1104.85,385.46,1104.85,414.88L1104.85,414.88z"/>
	<path class="st2" d="M1164.14,503.35c-0.23,0-0.47,0-0.7-0.23c-0.7-0.7-19.61-15.17-20.78-35.95
		c-28.71-8.4-45.29-38.52-37.12-67.23c6.77-23.11,28.01-39.22,52.29-39.22h40.85c29.88,0,54.39,24.28,54.39,54.39
		c0,30.11-24.28,54.39-54.39,54.39h-40.85c-0.93,0-1.87,0-2.8,0c-1.4,11.67,2.1,23.34,9.8,32.21c0.47,0.47,0.47,1.17,0,1.63
		C1164.84,503.35,1164.38,503.35,1164.14,503.35z M1157.84,363.05c-28.71,0-51.82,23.34-51.82,52.06
		c0,23.34,15.64,43.89,38.05,49.96c0.47,0.23,0.93,0.47,0.93,1.17c0.47,11.91,6.77,21.48,12.14,27.78c-4.2-7.94-5.6-17.04-4.2-26.15
		c0-0.7,0.7-0.93,1.17-0.93c1.17,0,2.33,0.23,3.73,0.23h40.85c28.71,0,51.82-23.34,51.82-51.82s-23.34-51.82-51.82-51.82
		L1157.84,363.05z"/>
	<path class="st1" d="M950.08,264.77h-86.14c-38.98,0-70.73,31.75-70.73,70.73l0,0c0,38.98,31.75,70.73,70.73,70.73h20.54
		c-0.47,16.57,14.24,43.19,48.56,85.44c0,0-37.82-47.15-31.28-85.44h48.56c38.98,0,70.73-31.75,70.73-70.73l0,0
		C1020.81,296.29,989.06,264.77,950.08,264.77z"/>
	<path class="st2" d="M933.04,492.85c-0.47,0-0.7-0.23-0.93-0.47l0,0c-32.92-40.62-48.56-67.7-48.79-84.97h-19.38
		c-39.68,0-71.9-32.21-71.9-71.9s32.21-71.9,71.9-71.9h86.14c39.68,0,71.9,32.21,71.9,71.9s-32.21,71.9-71.9,71.9h-47.39
		c-5.6,37.12,30.58,82.87,31.28,83.57l0,0c0.47,0.47,0.23,1.17-0.23,1.63C933.5,492.61,933.27,492.85,933.04,492.85z M863.94,265.94
		c-38.28,0-69.57,31.05-69.57,69.57c0,38.28,31.05,69.57,69.57,69.57h20.54c0.23,0,0.7,0.23,0.93,0.47
		c0.23,0.23,0.23,0.47,0.23,0.93c-0.47,13.31,9.34,33.15,30.11,61.63c-0.7-1.17-1.4-2.57-2.1-3.97
		c-7.94-15.17-16.81-37.82-13.31-57.89c0-0.47,0.7-0.93,1.17-0.93h48.56c38.28,0,69.57-31.05,69.57-69.57
		c0-38.28-31.05-69.57-69.57-69.57L863.94,265.94z"/>
	<path class="st1" d="M1257.75,538.6h56.03c25.21,0,45.52,20.31,45.52,45.52c0,2.57-0.23,5.37-0.7,7.94l-40.15,222.94h-148.47
		l42.95-239.04C1216.9,554.47,1235.58,538.6,1257.75,538.6z"/>
	<path class="st2" d="M1318.21,816.16h-148.47c-0.23,0-0.7-0.23-0.93-0.47s-0.47-0.7-0.47-0.93l42.95-239.04
		c3.97-22.18,23.34-38.28,45.99-38.28h56.03c25.68,0,46.69,20.78,46.69,46.69c0,2.8-0.23,5.6-0.7,8.17l-39.92,223.17
		C1319.38,815.93,1318.91,816.16,1318.21,816.16z M1171.38,813.83h145.9l39.92-222c4.44-24.04-11.67-47.15-35.72-51.36
		c-2.57-0.47-5.14-0.7-7.94-0.7h-56.03c-21.48,0-39.68,15.41-43.65,36.42L1171.38,813.83z"/>
	<path class="st2" d="M1281.33,782.78c0,0-3.03,22.88-14.01,32.21h-142.63c0,0,43.19-42.72,58.36-48.79
		C1198.23,760.13,1281.33,782.78,1281.33,782.78z"/>
	<path class="st2" d="M1267.32,816.16h-142.63c-0.47,0-0.93-0.23-1.17-0.7c-0.23-0.47,0-0.93,0.23-1.17
		c1.87-1.87,43.65-42.95,58.83-49.02c15.17-6.07,95.71,15.41,98.98,16.34c0.47,0.23,0.93,0.7,0.93,1.4
		c0,0.93-3.27,23.34-14.24,32.92C1268.02,816.16,1267.56,816.39,1267.32,816.16z M1127.49,813.83h139.36
		c8.87-7.94,12.37-25.68,13.07-30.11c-9.57-2.57-82.87-21.71-96.41-16.34C1170.68,772.74,1136.36,805.42,1127.49,813.83
		L1127.49,813.83z"/>
	<path class="st1" d="M1085.01,745.43c-0.23,0.23-13.54-0.7-21.48,3.5c-7.94,4.2-20.54,11.44-16.11,14.94s43.19,0.47,46.22-1.87
		C1096.45,759.67,1085.01,745.43,1085.01,745.43z"/>
	<path class="st2" d="M1060.96,766.67c-7,0-12.84-0.47-14.47-1.87c-0.93-0.7-1.4-1.87-1.4-3.03c0.23-3.5,5.84-7.7,17.74-14.01
		c6.77-3.5,16.81-3.5,20.78-3.5h1.17h0.23c0.47,0,0.7,0.23,0.93,0.47c1.63,2.1,9.8,12.37,9.34,16.57c0,0.7-0.47,1.4-0.93,1.87
		C1091.78,764.8,1074.27,766.67,1060.96,766.67z M1084.54,746.59h-0.93c-3.74,0-13.31,0-19.61,3.27
		c-14.01,7.47-16.34,10.74-16.57,12.14c0,0.23,0,0.47,0.47,0.93c1.4,1.17,8.87,1.87,22.64,0.93c12.61-0.7,21.01-2.1,21.94-2.8
		C1093.64,760.37,1090.14,753.83,1084.54,746.59L1084.54,746.59z"/>
	<path class="st3" d="M1191.22,594.62c0,0-18.44,7.94-46.69,116.02c-2.33,8.64-70.73,34.55-70.73,34.55l18.91,14.47
		c0,0,85.91,10.27,105.52-12.14C1218.07,724.88,1191.22,594.62,1191.22,594.62z"/>
	<path class="st3" d="M1191.22,594.62c0,0-10.04,38.75-2.57,80.07c7.47,41.32-18.68,96.88-18.68,96.88s61.39,38.98,116.49,8.87
		c0,0,3.03-144.5-16.81-170.18C1249.35,584.59,1221.1,564.04,1191.22,594.62z"/>
	<polygon class="st2" points="1199.63,591.82 1205,678.43 1235.81,586.45 	"/>
	<path class="st2" d="M1205,679.6L1205,679.6c-0.7,0-1.17-0.47-1.17-1.17l-5.14-86.37c0-0.7,0.47-1.17,0.93-1.17l36.18-5.37
		c0.47,0,0.93,0,1.17,0.47c0.23,0.23,0.23,0.7,0.23,1.17l-30.81,91.98C1205.93,679.13,1205.46,679.6,1205,679.6z M1201.03,592.99
		l4.67,79.37l28.25-84.27L1201.03,592.99z"/>
	<path class="st1" d="M1138.23,744.73c0,0-26.61-6.77-32.21-4.67s-26.61,10.5-24.74,18.44c1.87,7.94,0.93,7,15.41,6.3
		c14.47-0.7,44.82-0.7,44.82-0.7L1138.23,744.73z"/>
	<path class="st2" d="M1087.34,766.2c-4.9,0-5.6-1.17-7-6.54l-0.23-0.93c-1.4-6.07,7-12.84,25.44-19.84
		c5.84-2.33,30.11,3.97,32.92,4.67c0.47,0,0.7,0.47,0.93,0.93l3.03,19.38c0,0.23,0,0.7-0.23,0.93c-0.23,0.23-0.47,0.47-0.93,0.47
		l0,0c-0.23,0-30.58,0-44.59,0.7l-4.67,0.23C1090.14,766.2,1088.74,766.2,1087.34,766.2z M1109.52,740.76c-0.93,0-2.1,0-3.03,0.47
		c-16.34,6.3-24.98,12.61-24.04,17.04l0.23,0.93c1.17,4.9,1.17,4.9,9.34,4.44l4.67-0.23c12.37-0.47,37.35-0.47,43.42-0.7l-2.8-17.27
		C1128.43,743.33,1115.59,740.76,1109.52,740.76L1109.52,740.76z"/>
	<path class="st3" d="M1238.14,614.47c0,0,8.17,98.28,0,100.15l-108.55,24.74l6.3,26.85c0,0,74.23,11.44,117.89-7.24
		c43.89-18.68,45.75-125.12,23.11-151.5C1254.25,581.32,1240.01,600.69,1238.14,614.47z"/>
	<rect x="1014.51" y="766.44" class="st1" width="118.35" height="10.27"/>
	<path class="st2" d="M1133.1,777.88h-118.59c-0.7,0-1.17-0.47-1.17-1.17v-10.27c0-0.7,0.47-1.17,1.17-1.17h118.59
		c0.7,0,1.17,0.47,1.17,1.17v10.27C1134.26,777.18,1133.8,777.88,1133.1,777.88z M1015.91,775.31h116.02v-7.94h-116.02
		L1015.91,775.31z"/>
	
		<rect x="978.5" y="656.91" transform="matrix(0.8952 -0.4456 0.4456 0.8952 -216.0378 513.3487)" class="st1" width="10.27" height="118.35"/>
	<path class="st2" d="M1005.4,772.74c-0.23,0-0.23,0-0.47,0s-0.47-0.23-0.7-0.7l-52.52-105.98c-0.23-0.23-0.23-0.7,0-0.93
		c0-0.23,0.23-0.47,0.7-0.7l9.1-4.44c0.7-0.23,1.4,0,1.63,0.47l0,0l52.76,105.98c0.23,0.7,0,1.4-0.47,1.63l-9.1,4.44
		C1005.87,772.74,1005.64,772.74,1005.4,772.74z M954.28,666.06l51.59,103.88l7-3.5l-51.59-103.88L954.28,666.06z"/>
	<path class="st2" d="M1133.1,739.82c-0.47,0-0.93-0.47-1.17-0.93c-0.23-0.7,0.23-1.17,0.93-1.4c36.18-8.17,91.04-21.94,94.54-26.85
		s7.94-56.03,10.27-89.17c0-0.7,0.7-1.17,1.17-1.17l0,0c0.7,0,1.17,0.7,1.17,1.17l0,0c-0.47,8.4-5.84,83.34-10.74,90.34
		C1224.37,719.05,1142.67,737.72,1133.1,739.82L1133.1,739.82z"/>
	<path class="st2" d="M1170.68,769.24c-17.74,0-31.05-1.17-31.05-1.17c-0.7,0-1.17-0.7-1.17-1.17c0-0.7,0.7-1.17,1.17-1.17l0,0
		c0.93,0,98.51,7.7,120.46-19.84c22.18-27.78,21.71-72.83,21.71-73.53s0.47-1.17,1.17-1.17l0,0c0.7,0,1.17,0.47,1.17,1.17
		c0,0.47,0.47,46.22-22.41,74.93c-9.57,12.14-33.15,19.38-70.27,21.24C1184.69,769.01,1177.45,769.24,1170.68,769.24z"/>
	<path class="st2" d="M1183.29,722.55L1183.29,722.55c-0.7,0-1.17-0.7-1.17-1.4c1.17-14.71,1.4-29.65,0.7-44.35
		c-1.17-27.08-0.93-65.36-0.93-65.6c0-0.7,0.47-1.17,1.17-1.17l0,0c0.7,0,1.17,0.47,1.17,1.17c0,0.47-0.23,38.52,0.93,65.6
		c0.7,14.94,0.7,29.88-0.7,44.82C1184.69,722.08,1183.99,722.55,1183.29,722.55L1183.29,722.55z"/>
	<path class="st1" d="M1222.5,815.23c7.94-18.91,23.11-34.08,42.02-41.79c24.74-10.04,62.56-8.17,62.56-8.17l-8.87,49.96H1222.5z"/>
	<path class="st2" d="M1317.98,816.39h-95.71c-0.47,0-0.7-0.23-0.93-0.47c-0.23-0.23-0.23-0.7-0.23-1.17
		c7.94-19.38,23.34-34.55,42.72-42.72c24.74-10.04,62.56-8.17,63.03-8.17c0.23,0,0.7,0.23,0.93,0.47c0.23,0.23,0.23,0.7,0.23,0.93
		l-8.87,49.96C1319.15,815.93,1318.68,816.39,1317.98,816.39z M1224.14,814.06h92.91l8.64-47.62c-7-0.23-38.98-0.7-60.69,8.17
		C1246.78,782.08,1232.31,796.08,1224.14,814.06z"/>
	<path class="st1" d="M1195.89,505.45c-0.7,0-3.27,9.57-3.74,10.27c-2.33,5.84-5.84,11.21-8.64,16.81
		c-6.3,13.07-14.24,25.21-23.11,36.65c8.17-0.23,15.87-3.74,21.24-9.57l-6.77,18.68c9.1,3.27,19.38,2.33,27.78-2.33
		c14.71-8.4,17.51-24.51,18.91-39.68l3.73-34.08L1195.89,505.45z"/>
	<path class="st2" d="M1186.32,581.55c-3.97,0-7.94-0.7-11.67-2.1c-0.23,0-0.47-0.23-0.7-0.7c-0.23-0.23-0.23-0.7,0-0.93l5.14-14.01
		c-5.37,4.2-11.91,6.54-18.68,6.54l0,0c-0.7,0-1.17-0.47-1.17-1.17c0-0.23,0-0.47,0.23-0.7c8.87-11.21,16.57-23.58,23.11-36.42
		c1.17-2.1,2.33-4.2,3.5-6.3c1.87-3.27,3.73-6.77,5.14-10.5c0-0.23,0.23-0.7,0.47-1.63c2.57-8.87,3.03-9.57,4.2-9.57l29.65-3.27
		c0.47,0,0.7,0,0.93,0.23c0.23,0.23,0.47,0.7,0.23,0.93l-3.5,34.08c-1.63,15.87-4.67,31.98-19.61,40.62
		C1198.23,579.92,1192.39,581.55,1186.32,581.55z M1176.75,577.58c8.64,2.8,17.74,1.63,25.68-2.8
		c14.01-8.17,16.81-23.58,18.44-38.98l3.5-32.45l-27.55,3.03c-0.93,2.57-1.87,5.14-2.57,7.94c-0.23,0.93-0.47,1.63-0.47,1.87
		c-1.4,3.74-3.27,7.24-5.37,10.74c-1.17,2.1-2.33,4.2-3.27,6.3c-6.07,12.37-13.31,24.04-21.71,34.78c7-0.7,13.31-3.97,17.97-9.1
		c0.47-0.47,0.93-0.47,1.4-0.23c0.47,0.23,0.7,0.93,0.47,1.4L1176.75,577.58z M1195.89,505.45"/>
	<path class="st1" d="M1205,568.71l-5.37,23.11c0,0-2.8,14.47,12.61,13.07c9.34-0.93,17.51-5.84,22.64-13.54l6.3-42.02
		c0.23-1.87,2.8-19.14,6.07-34.32c-17.74-3.74-33.38-8.17-33.38-8.17c1.4,2.1-4.9,1.17-4.9,1.17c-2.8-0.47-5.84-0.7-8.64-0.23
		c-3.03,10.04-7.7,20.78-9.57,31.05c-1.17,6.07-1.63,12.37-1.63,18.44C1189.36,568.95,1205,568.71,1205,568.71z"/>
	<path class="st2" d="M1210.36,606.3c-3.5,0.23-6.77-0.93-9.1-3.5c-2.33-3.27-3.27-7.24-2.57-11.21l4.9-21.71
		c-6.07-0.23-15.41-3.27-15.64-12.61c0-6.3,0.47-12.61,1.63-18.68c1.4-6.77,3.27-13.54,5.84-20.08c1.17-3.5,2.57-7.24,3.73-10.97
		c0.23-0.47,0.47-0.7,0.93-0.7c3.03-0.47,6.07-0.23,9.1,0.23c1.17,0.23,2.57,0.23,3.73,0.23c0-0.23,0-0.47,0.23-0.7
		c0.23-0.47,0.7-0.47,1.17-0.47c0.23,0,15.87,4.44,33.15,8.17c0.23,0,0.47,0.23,0.7,0.47c0.23,0.23,0.23,0.47,0.23,0.7
		c-2.8,13.31-5.14,28.25-5.84,34.08c0,0.23-6.3,42.25-6.3,42.25c0,0.23,0,0.23-0.23,0.47c-5.37,8.17-14.01,13.31-23.58,14.24
		C1211.77,606.3,1211.07,606.3,1210.36,606.3z M1205,567.78c0.23,0,0.7,0.23,0.93,0.47c0.23,0.23,0.23,0.7,0.23,0.93l-5.37,23.11
		c0,0-0.93,5.84,2.1,9.1c1.87,2.1,5.14,3.03,9.57,2.57c8.87-0.93,16.81-5.6,21.71-12.84c0.47-3.27,6.07-41.55,6.07-41.79
		c0.93-5.84,3.03-20.31,5.84-33.38c-14.24-3.03-27.08-6.54-31.05-7.47l-0.23,0.23c-1.17,1.17-4.67,0.93-6.07,0.47l0,0
		c-2.57-0.47-5.14-0.7-7.7-0.47c-0.93,3.5-2.33,7-3.5,10.27c-2.57,6.54-4.44,13.07-5.84,19.84c-1.17,6.07-1.63,12.14-1.63,18.21
		C1190.52,567.78,1204.53,567.78,1205,567.78L1205,567.78z"/>
	<path class="st1" d="M1213.63,533c0,0-10.04,10.04-8.4,12.37s6.77,2.1,6.77,2.1"/>
	<path class="st1" d="M1209.43,522.73l2.57-4.67l1.87,5.6l14.94,4.44l4.2-6.07l-0.47,8.4l7.94,0.7
		c-2.1-0.23-11.21,36.88-12.14,39.92c-1.63,5.6-3.5,11.67-8.4,14.71c5.14,1.87,10.97-0.93,15.41-4.2
		c5.84-4.2,10.97-9.34,14.94-15.17l-4.2,23.11c4.2,0.47,8.4-0.93,11.44-3.74c3.03-2.8,5.37-6.3,7-10.04
		c6.77-14.71,5.14-28.48,5.6-43.89c0.7-18.21-0.47-33.62-21.94-41.79c-21.48-8.4-37.12-5.6-48.32,4.2
		c-6.77,6.3-10.74,14.94-10.97,24.04C1188.42,518.06,1204.76,522.26,1209.43,522.73z"/>
	<path class="st2" d="M1247.25,590.66c-0.7,0-1.4,0-1.87-0.23c-0.23,0-0.7-0.23-0.7-0.47c-0.23-0.23-0.23-0.7-0.23-0.93l3.5-18.21
		c-3.5,4.44-7.7,8.17-12.14,11.67c-6.3,4.67-11.91,6.07-16.57,4.2c-0.47-0.23-0.7-0.47-0.7-0.93c0-0.47,0.23-0.93,0.47-1.17
		c4.44-2.8,6.3-8.4,7.94-14.24c0.23-0.47,0.7-2.1,1.17-4.44c5.84-21.94,8.4-30.58,10.04-34.08l-5.84-0.7c-0.7,0-1.17-0.7-1.17-1.17
		l0.23-3.97l-1.63,2.57c-0.23,0.47-0.93,0.7-1.4,0.47l-14.94-4.44c-0.47,0-0.7-0.47-0.7-0.7l-0.93-3.03l-1.17,2.33
		c-0.23,0.47-0.7,0.7-1.17,0.7c-4.44-0.47-20.54-4.67-21.24-4.9c-0.47,0-0.93-0.47-0.93-1.17c0-9.57,4.2-18.68,11.21-24.98
		c12.37-10.74,29.18-12.37,49.49-4.44c21.94,8.64,23.34,24.51,22.88,42.95c0,3.03,0,6.07-0.23,9.1c0,11.91,0,23.34-5.6,35.48
		c-1.63,3.97-4.2,7.47-7.24,10.5C1254.72,589.02,1250.98,590.42,1247.25,590.66z M1247.01,588.32c3.5,0,6.77-1.4,9.1-3.5
		c2.8-2.8,5.14-6.07,6.77-9.57c5.37-11.67,5.37-22.64,5.37-34.32c0-3.03,0-6.07,0.23-9.1c0.7-18.21-0.7-32.68-21.24-40.62
		c-19.84-7.7-35.25-6.54-47.16,3.97c-6.3,5.84-10.04,13.77-10.5,22.18c3.27,0.93,14.71,3.74,19.14,4.44l2.1-3.97
		c0.23-0.47,0.7-0.7,1.17-0.7s0.93,0.47,0.93,0.93l1.63,5.14l13.54,3.97l3.74-5.37c0.23-0.47,0.93-0.7,1.4-0.47
		c0.47,0.23,0.93,0.7,0.7,1.17l-0.47,7l6.54,0.7l0,0c0.7,0,1.17,0.47,1.17,1.17c0,0.47-0.23,0.93-0.93,1.17
		c-1.87,2.57-8.17,26.61-10.27,34.55c-0.7,2.33-0.93,3.97-1.17,4.67c-1.63,5.37-3.27,10.5-7,13.77c3.5,0.47,7.47-1.17,12.14-4.44
		c5.6-4.2,10.74-9.34,14.71-14.94c0.23-0.47,0.93-0.7,1.4-0.47c0.47,0.23,0.7,0.7,0.7,1.4L1247.01,588.32z"/>
	<path class="st2" d="M1205,568.71c0,0,12.37-0.23,17.74-3.5c0,0-7.47,16.11-21.71,21.24L1205,568.71z"/>
	<path class="st2" d="M1201.03,587.62c-0.23,0-0.47,0-0.7-0.23c-0.23-0.23-0.47-0.7-0.47-1.17l3.97-17.74
		c0.23-0.47,0.47-0.93,1.17-0.93c0.23,0,12.14-0.47,17.04-3.27c0.47-0.23,0.93-0.23,1.4,0s0.47,0.93,0.23,1.4
		c-0.23,0.7-7.94,16.57-22.41,21.94C1201.26,587.62,1201.03,587.62,1201.03,587.62z M1205.93,569.88l-3.27,14.71
		c8.64-3.97,14.71-12.37,17.27-16.81C1215.27,568.95,1210.6,569.88,1205.93,569.88z"/>
</g>
</svg>
