<?xml version="1.0" encoding="utf-8"?>
<!-- Generator: Adobe Illustrator 26.5.0, SVG Export Plug-In . SVG Version: 6.00 Build 0)  -->
<svg version="1.1" id="Layer_1" xmlns="http://www.w3.org/2000/svg" xmlns:xlink="http://www.w3.org/1999/xlink" x="0px" y="0px"
	 viewBox="0 0 1920 1080" style="enable-background:new 0 0 1920 1080;" xml:space="preserve">
<style type="text/css">
	.st0{fill:#FFFFFF;}
	.st1{fill:#85EAB0;}
	.st2{fill:#86ECB2;}
</style>
<rect width="1920" height="1080" fill="none"/>
<g>
	<path d="M717.89,502.77h57.61v8.43h-24v69.24h-9.6V511.2h-24.01V502.77z M836.18,538.77c1.01,3.45,1.52,7.19,1.52,11.2v4.43h-41.23
		v0.38c0.25,2.81,0.81,5.28,1.68,7.41c0.87,2.13,2.07,4.02,3.6,5.65c1.57,1.74,3.45,3.11,5.65,4.11c2.2,1,4.64,1.5,7.31,1.5
		c3.52,0,6.65-0.71,9.39-2.13c2.74-1.42,5.01-3.31,6.83-5.66l6.03,4.69c-1.92,2.91-4.79,5.5-8.61,7.76
		c-3.82,2.26-8.55,3.39-14.17,3.39c-4.05,0-7.78-0.69-11.18-2.08c-3.39-1.39-6.3-3.32-8.72-5.81c-2.42-2.49-4.3-5.44-5.66-8.85
		c-1.35-3.41-2.03-7.13-2.03-11.15v-2.24c0-4.66,0.75-8.83,2.24-12.51c1.5-3.68,3.49-6.8,5.98-9.36c2.45-2.53,5.25-4.47,8.4-5.82
		c3.15-1.35,6.38-2.02,9.68-2.02c4.16,0,7.8,0.72,10.91,2.16c3.11,1.44,5.7,3.42,7.76,5.95
		C833.62,532.32,835.17,535.32,836.18,538.77z M827.83,545.82c0-1.78-0.34-3.69-1.01-5.74c-0.68-2.04-1.62-3.81-2.82-5.3
		c-1.21-1.5-2.73-2.7-4.56-3.63c-1.83-0.92-4.01-1.39-6.54-1.39c-1.99,0-3.88,0.36-5.65,1.09c-1.78,0.73-3.38,1.79-4.8,3.18
		c-1.42,1.42-2.62,3.16-3.6,5.2c-0.98,2.05-1.66,4.4-2.05,7.07h31.04V545.82z M863.33,543.04c0.55-2.45,1.47-4.68,2.75-6.67
		c1.28-1.96,2.96-3.55,5.04-4.78s4.65-1.84,7.71-1.84c1.99,0,3.85,0.34,5.58,1.01c1.72,0.68,3.2,1.6,4.45,2.78
		c1.24,1.17,2.23,2.53,2.96,4.08c0.73,1.55,1.11,3.19,1.15,4.93h9.33c0-2.91-0.59-5.65-1.76-8.21c-1.17-2.56-2.79-4.78-4.85-6.67
		c-2.1-1.85-4.58-3.32-7.44-4.4c-2.86-1.08-6-1.62-9.41-1.62c-4.38,0-8.2,0.78-11.47,2.35c-3.27,1.56-5.99,3.66-8.16,6.29
		c-2.2,2.67-3.86,5.74-4.96,9.23c-1.1,3.49-1.65,7.13-1.65,10.93v2.24c0,3.84,0.55,7.49,1.65,10.96c1.1,3.47,2.76,6.52,4.96,9.15
		c2.17,2.67,4.89,4.79,8.16,6.35c3.27,1.57,7.09,2.35,11.47,2.35c3.06,0,5.99-0.52,8.8-1.57c2.81-1.05,5.3-2.46,7.47-4.24
		c2.17-1.74,3.9-3.78,5.2-6.11c1.3-2.33,1.97-4.77,2-7.33h-9.33c-0.04,1.6-0.46,3.09-1.26,4.46c-0.8,1.37-1.86,2.55-3.17,3.55
		c-1.32,1.03-2.82,1.83-4.51,2.4c-1.69,0.57-3.42,0.85-5.2,0.85c-3.09,0-5.68-0.61-7.76-1.84c-2.08-1.22-3.74-2.83-4.99-4.82
		c-1.28-1.96-2.2-4.17-2.75-6.64c-0.55-2.47-0.82-4.97-0.82-7.49v-2.24C862.51,547.97,862.78,545.49,863.33,543.04z M962.04,527.04
		c-1.74-1.85-3.85-3.21-6.32-4.08s-5.22-1.3-8.24-1.3c-2.31,0.03-4.49,0.37-6.54,1.01c-2.04,0.64-3.92,1.58-5.63,2.82
		c-1.07,0.75-2.08,1.61-3.04,2.59c-0.96,0.98-1.83,2.05-2.61,3.22v-32.8h-9.87v81.93h9.87v-41.92c0.71-1.14,1.52-2.18,2.43-3.12
		c0.9-0.94,1.89-1.77,2.96-2.48c1.35-0.93,2.83-1.64,4.43-2.14c1.6-0.5,3.29-0.74,5.07-0.74c2.17-0.04,4.09,0.26,5.76,0.88
		c1.67,0.62,3.06,1.56,4.16,2.8c1.03,1.14,1.81,2.57,2.35,4.29c0.53,1.73,0.8,3.73,0.8,6v36.43h9.87v-36.33
		c0-3.88-0.47-7.23-1.41-10.06C965.13,531.23,963.78,528.89,962.04,527.04z M1027.65,553.33c-1.92-1.35-4.29-2.51-7.09-3.49
		c-2.81-0.98-5.99-1.84-9.55-2.59c-2.7-0.53-4.93-1.09-6.69-1.65c-1.76-0.57-3.16-1.21-4.19-1.92c-1.07-0.71-1.81-1.51-2.24-2.4
		c-0.43-0.89-0.64-1.9-0.64-3.04c0-1.1,0.27-2.17,0.8-3.2c0.53-1.03,1.33-1.94,2.4-2.72c1.03-0.78,2.34-1.4,3.92-1.87
		c1.58-0.46,3.42-0.69,5.52-0.69c2.02,0,3.85,0.28,5.47,0.85c1.62,0.57,2.99,1.31,4.13,2.24c1.14,0.93,2.03,1.99,2.67,3.18
		c0.64,1.19,0.96,2.41,0.96,3.65h9.87c0-2.52-0.54-4.88-1.62-7.07c-1.09-2.19-2.62-4.1-4.61-5.73c-2-1.64-4.41-2.92-7.26-3.84
		c-2.84-0.92-6.05-1.39-9.6-1.39c-3.31,0-6.34,0.44-9.09,1.33c-2.76,0.89-5.13,2.1-7.12,3.63c-1.99,1.53-3.54,3.31-4.64,5.36
		c-1.1,2.05-1.65,4.24-1.65,6.59c0,2.38,0.53,4.47,1.6,6.27c1.07,1.8,2.58,3.35,4.53,4.67c1.92,1.35,4.24,2.5,6.96,3.47
		c2.72,0.96,5.74,1.78,9.04,2.45c2.7,0.53,4.96,1.13,6.78,1.79c1.81,0.66,3.27,1.38,4.38,2.16c1.1,0.78,1.88,1.65,2.35,2.59
		c0.46,0.94,0.69,2,0.69,3.18c0,0.92-0.18,1.8-0.53,2.61s-0.87,1.57-1.55,2.24c-1.1,1.1-2.63,1.97-4.59,2.59
		c-1.96,0.62-4.25,0.93-6.88,0.93c-1.68,0-3.36-0.18-5.07-0.53c-1.7-0.36-3.25-0.96-4.64-1.81c-1.42-0.85-2.6-1.98-3.55-3.36
		c-0.94-1.39-1.49-3.09-1.63-5.12h-9.87c0,2.45,0.56,4.82,1.68,7.09c1.12,2.28,2.75,4.27,4.88,5.97c2.1,1.74,4.68,3.14,7.74,4.19
		c3.06,1.05,6.54,1.57,10.46,1.57c3.41,0,6.56-0.41,9.44-1.22c2.88-0.82,5.35-1.98,7.41-3.47c2.06-1.49,3.67-3.29,4.83-5.39
		c1.15-2.1,1.73-4.43,1.73-6.99c0-2.38-0.51-4.48-1.52-6.29C1031.04,556.32,1029.57,554.72,1027.65,553.33z M1060,543.04
		c0.55-2.45,1.47-4.68,2.75-6.67c1.28-1.96,2.96-3.55,5.04-4.78s4.65-1.84,7.71-1.84c1.99,0,3.85,0.34,5.58,1.01
		c1.72,0.68,3.2,1.6,4.45,2.78c1.24,1.17,2.23,2.53,2.96,4.08s1.11,3.19,1.15,4.93h9.33c0-2.91-0.59-5.65-1.76-8.21
		c-1.17-2.56-2.79-4.78-4.85-6.67c-2.1-1.85-4.58-3.32-7.44-4.4c-2.86-1.08-6-1.62-9.41-1.62c-4.38,0-8.2,0.78-11.47,2.35
		c-3.27,1.56-5.99,3.66-8.16,6.29c-2.2,2.67-3.86,5.74-4.96,9.23c-1.1,3.49-1.65,7.13-1.65,10.93v2.24c0,3.84,0.55,7.49,1.65,10.96
		c1.1,3.47,2.76,6.52,4.96,9.15c2.17,2.67,4.89,4.79,8.16,6.35c3.27,1.57,7.09,2.35,11.47,2.35c3.06,0,5.99-0.52,8.8-1.57
		c2.81-1.05,5.3-2.46,7.47-4.24c2.17-1.74,3.9-3.78,5.2-6.11c1.3-2.33,1.97-4.77,2-7.33h-9.33c-0.04,1.6-0.46,3.09-1.26,4.46
		c-0.8,1.37-1.86,2.55-3.17,3.55c-1.32,1.03-2.82,1.83-4.51,2.4c-1.69,0.57-3.42,0.85-5.2,0.85c-3.09,0-5.68-0.61-7.76-1.84
		c-2.08-1.22-3.74-2.83-4.99-4.82c-1.28-1.96-2.2-4.17-2.75-6.64c-0.55-2.47-0.82-4.97-0.82-7.49v-2.24
		C1059.17,547.97,1059.45,545.49,1060,543.04z M1163.96,538.77c1.01,3.45,1.52,7.19,1.52,11.2v4.43h-41.23v0.38
		c0.25,2.81,0.81,5.28,1.68,7.41c0.87,2.13,2.07,4.02,3.6,5.65c1.57,1.74,3.45,3.11,5.65,4.11c2.2,1,4.64,1.5,7.31,1.5
		c3.52,0,6.65-0.71,9.39-2.13c2.74-1.42,5.01-3.31,6.83-5.66l6.03,4.69c-1.92,2.91-4.79,5.5-8.61,7.76
		c-3.82,2.26-8.55,3.39-14.17,3.39c-4.05,0-7.78-0.69-11.18-2.08c-3.39-1.39-6.3-3.32-8.72-5.81c-2.42-2.49-4.3-5.44-5.66-8.85
		c-1.35-3.41-2.03-7.13-2.03-11.15v-2.24c0-4.66,0.75-8.83,2.24-12.51s3.49-6.8,5.98-9.36c2.45-2.53,5.25-4.47,8.4-5.82
		c3.15-1.35,6.38-2.02,9.68-2.02c4.16,0,7.8,0.72,10.91,2.16c3.11,1.44,5.7,3.42,7.76,5.95
		C1161.41,532.32,1162.95,535.32,1163.96,538.77z M1155.62,545.82c0-1.78-0.34-3.69-1.01-5.74c-0.68-2.04-1.62-3.81-2.82-5.3
		c-1.21-1.5-2.73-2.7-4.56-3.63c-1.83-0.92-4.01-1.39-6.54-1.39c-1.99,0-3.88,0.36-5.65,1.09c-1.78,0.73-3.38,1.79-4.8,3.18
		c-1.42,1.42-2.62,3.16-3.6,5.2c-0.98,2.05-1.66,4.4-2.05,7.07h31.04V545.82z M1224.11,526.93c-1.74-1.81-3.85-3.15-6.32-4
		c-2.47-0.86-5.22-1.28-8.24-1.28c-2.24,0.03-4.37,0.36-6.38,0.99c-2.01,0.62-3.87,1.5-5.57,2.64c-1.14,0.74-2.21,1.62-3.23,2.64
		c-1.01,1.01-1.95,2.12-2.8,3.33l-0.7-8.53h-8.86v57.71h9.87v-41.39c0.68-1.24,1.47-2.38,2.37-3.41c0.91-1.03,1.9-1.94,2.96-2.72
		c1.31-0.89,2.76-1.6,4.32-2.11c1.56-0.51,3.25-0.77,5.07-0.77c2.09,0,3.96,0.25,5.58,0.74c1.61,0.5,2.99,1.3,4.13,2.4
		c1.1,1.1,1.94,2.54,2.5,4.32c0.57,1.78,0.86,3.95,0.86,6.51v36.43h9.87v-36.64c0-3.84-0.47-7.16-1.41-9.95
		C1227.19,531.05,1225.85,528.75,1224.11,526.93z M1295.08,538.77c1.01,3.45,1.52,7.19,1.52,11.2v4.43h-41.23v0.38
		c0.25,2.81,0.81,5.28,1.68,7.41c0.87,2.13,2.07,4.02,3.6,5.65c1.57,1.74,3.45,3.11,5.65,4.11c2.2,1,4.64,1.5,7.31,1.5
		c3.52,0,6.65-0.71,9.39-2.13c2.74-1.42,5.01-3.31,6.83-5.66l6.03,4.69c-1.92,2.91-4.79,5.5-8.61,7.76
		c-3.82,2.26-8.55,3.39-14.17,3.39c-4.05,0-7.78-0.69-11.18-2.08c-3.4-1.39-6.3-3.32-8.72-5.81c-2.42-2.49-4.3-5.44-5.66-8.85
		c-1.35-3.41-2.03-7.13-2.03-11.15v-2.24c0-4.66,0.75-8.83,2.24-12.51s3.49-6.8,5.98-9.36c2.45-2.53,5.25-4.47,8.4-5.82
		c3.15-1.35,6.38-2.02,9.68-2.02c4.16,0,7.8,0.72,10.91,2.16c3.11,1.44,5.7,3.42,7.76,5.95
		C1292.52,532.32,1294.07,535.32,1295.08,538.77z M1286.73,545.82c0-1.78-0.34-3.69-1.01-5.74c-0.68-2.04-1.62-3.81-2.82-5.3
		c-1.21-1.5-2.73-2.7-4.56-3.63c-1.83-0.92-4.01-1.39-6.54-1.39c-1.99,0-3.88,0.36-5.65,1.09c-1.78,0.73-3.38,1.79-4.8,3.18
		c-1.42,1.42-2.62,3.16-3.6,5.2c-0.98,2.05-1.66,4.4-2.05,7.07h31.04V545.82z M1333.41,502.77l-4.93,13.66l-4.9-13.66h-3.83v18.38
		h3.08V507.7l4.76,13.45h1.78l4.79-13.49v13.49h3.08v-18.38H1333.41z M1303.83,505.54h5.03v15.61h3.11v-15.61h5.07v-2.77h-13.21
		V505.54z"/>
	<g>
		<path d="M582.76,502.82v25.93h38.18v51.87h27.04C647.97,536.93,629.17,502.82,582.76,502.82z"/>
		<rect x="647.97" y="502.82" width="38.18" height="25.93"/>
	</g>
</g>
</svg>
